<svg width="64" height="64" viewBox="0 0 64 64" fill="none" xmlns="http://www.w3.org/2000/svg">
<g clip-path="url(#clip0)">
<mask id="path-1-inside-1" fill="white">
<path d="M62.7356 60.3518C62.159 60.1528 61.567 59.9427 60.9403 59.7202C59.9955 59.3848 58.9961 59.0302 57.9587 58.6837C56.4182 55.2778 53.0826 52.3738 48.2895 50.2732C47.5193 49.9357 46.7149 49.6258 45.8861 49.3397C46.618 41.604 45.412 34.6718 42.2979 28.733C39.8032 23.9757 36.1926 20.0497 31.5372 17.0204C31.6128 16.9847 31.6872 16.9455 31.7581 16.8994L33.827 15.5542L36.2388 16.0764C36.7278 16.1822 37.2386 16.0884 37.6579 15.8158L39.7267 14.4705L42.1386 14.9928C42.6275 15.0985 43.1382 15.0048 43.5576 14.7323L45.6265 13.387L48.0384 13.9093C48.6707 14.0463 49.329 13.8474 49.7799 13.3834C50.2307 12.9194 50.4106 12.2557 50.2556 11.6276C49.4135 8.21443 47.2264 5.62642 43.9309 4.1433C41.1256 2.88067 37.7116 2.5398 34.3181 3.18342C30.9877 3.81492 28.0221 5.34055 25.9676 7.47917C25.5877 7.87467 25.242 8.28617 24.9308 8.71255C24.6778 8.15317 24.3752 7.60242 24.0223 7.06267C22.3773 4.54642 19.7466 2.46867 16.615 1.21242C13.5412 -0.0205756 10.2967 -0.325576 7.47885 0.353674C4.1536 1.15542 1.62822 3.22717 0.175475 6.3453C-0.0961503 6.9283 -0.0500253 7.6098 0.297725 8.15092C0.645475 8.69193 1.24897 9.01942 1.88935 9.01217L4.27272 8.99393L5.9636 10.6739C6.31835 11.0264 6.79785 11.2229 7.29947 11.2187L9.68285 11.2004L11.3736 12.8803C11.7251 13.2294 12.2001 13.4252 12.6951 13.4252H12.7093L15.1131 13.4069C15.2531 13.5358 15.3887 13.6563 15.521 13.7703C15.1813 13.7903 14.8388 13.8245 14.4933 13.8745C11.5583 14.2996 8.59122 15.8222 6.1386 18.1618C3.63935 20.5459 1.9286 23.5198 1.32135 26.5357C0.6081 30.0784 1.4386 33.3635 3.72285 36.0357C4.08197 36.4558 4.60435 36.6923 5.14785 36.6923C5.2406 36.6923 5.3341 36.6854 5.42735 36.6714C6.0671 36.5751 6.6121 36.1557 6.86897 35.5618L7.84872 33.2968L10.1471 32.3983C10.613 32.2162 10.9866 31.8555 11.1852 31.3965L12.1651 29.1315L14.4635 28.2329C14.9292 28.0508 15.303 27.6902 15.5015 27.2312L16.4813 24.9662L18.7797 24.0675C19.2455 23.8854 19.6192 23.5248 19.8179 23.0657L20.7976 20.8007L23.096 19.902C23.2043 19.8597 23.3071 19.8075 23.404 19.7473C28.5045 27.5367 29.8411 38.2473 26.5455 47.4463C22.4651 47.9312 18.6059 48.9533 15.335 50.4409C10.7925 52.5069 7.5321 55.4093 6.04335 58.6827C5.18272 58.9744 4.31822 59.2798 3.44435 59.5886C2.7326 59.84 1.9966 60.1002 1.26672 60.3507C0.28735 60.6869 -0.23415 61.7534 0.1021 62.7329C0.43835 63.7123 1.50535 64.2338 2.48435 63.8975C3.23022 63.6415 3.97422 63.3785 4.69385 63.1243C8.8781 61.6457 12.8302 60.2492 16.9377 60.2492C19.1811 60.2492 21.4266 61.1008 23.804 62.0023C26.3926 62.9841 29.0694 63.9992 32 63.9992C34.9305 63.9992 37.6072 62.9841 40.1959 62.0023C42.5732 61.1007 44.8187 60.2492 47.0621 60.2492C51.2217 60.2492 55.7185 61.8455 59.6859 63.254C60.3207 63.4794 60.9202 63.6923 61.5127 63.8967C61.7152 63.9665 61.9215 63.9997 62.1244 63.9997C62.902 63.9997 63.6288 63.512 63.8967 62.7357C64.2344 61.7569 63.7146 60.6895 62.7356 60.3518ZM32.0784 37.2907C32.1018 34.8477 31.8782 32.4079 31.4237 30.026C33.5204 29.3553 35.3864 28.3012 36.7959 26.977C38.2494 28.9397 39.4245 31.0928 40.3131 33.4175C38.7337 35.4042 35.7462 36.863 32.4084 37.2559C32.299 37.2687 32.1887 37.2802 32.0784 37.2907ZM35.0166 6.86792C38.6199 6.18492 42.7755 6.84517 45.0877 9.52205C44.7872 9.54967 44.495 9.64967 44.2374 9.8173L42.1686 11.1625L39.7567 10.6403C39.2677 10.5345 38.7571 10.6283 38.3377 10.9009L36.2689 12.2462L33.857 11.7239C33.3684 11.6182 32.8574 11.7119 32.438 11.9845L30.3691 13.3298L27.9572 12.8075C27.8258 12.779 27.6929 12.765 27.5605 12.765C27.3606 12.765 27.1621 12.7969 26.9727 12.8595C28.0502 9.59342 31.4541 7.54355 35.0166 6.86792ZM13.4622 9.6693L11.7715 7.98942C11.4167 7.63692 10.937 7.43617 10.4356 7.44467L8.05235 7.46292L6.36147 5.78292C6.14535 5.56817 5.88235 5.41142 5.59672 5.32267C8.17935 3.28205 11.9873 3.3968 15.2187 4.69292C18.6382 6.06467 21.7891 8.92305 22.1032 12.4867C21.2393 12.0355 20.5407 11.9302 19.8323 11.8753C19.2732 11.8319 18.7903 11.7945 17.1813 10.1959C16.8298 9.8468 16.3548 9.65105 15.8598 9.65105C15.8551 9.65105 15.8503 9.65105 15.8456 9.65105L13.4622 9.6693ZM17.6662 18.5947L16.6865 20.8597L14.3881 21.7583C13.9223 21.9404 13.5486 22.301 13.3501 22.76L12.3702 25.025L10.0718 25.9237C9.6061 26.1058 9.23235 26.4664 9.03372 26.9254L8.05385 29.1904L5.75547 30.089C5.46922 30.201 5.21772 30.3803 5.02035 30.6085C4.1911 27.17 6.0736 23.4067 8.7271 20.8754C10.7953 18.9024 13.5005 17.507 16.1612 17.507C16.8757 17.507 17.587 17.6077 18.2818 17.8248C18.0138 18.02 17.8001 18.2849 17.6662 18.5947ZM34.3601 24.1288C34.3295 24.1544 34.2985 24.1793 34.2691 24.2072C33.31 25.122 32.0146 25.8684 30.53 26.3744C29.7293 23.7122 28.6283 21.1658 27.2382 18.8235C29.9697 20.3043 32.3485 22.0823 34.3601 24.1288ZM31.8433 41.0683C31.8756 41.0677 31.9077 41.0672 31.9402 41.0649C32.242 41.0439 32.547 41.0154 32.8469 40.98C36.2267 40.5823 39.2966 39.3234 41.5342 37.4817C42.2823 40.8123 42.516 44.4271 42.2136 48.2836C38.9913 47.5273 35.5121 47.1243 32.0001 47.1243C31.5296 47.1243 31.0601 47.1323 30.5917 47.1464C31.1927 45.1619 31.6073 43.1248 31.8433 41.0683ZM38.866 58.4962C36.4886 59.3977 34.2432 60.2493 31.9998 60.2493C29.7565 60.2493 27.511 59.3977 25.1336 58.4962C22.545 57.5144 19.8682 56.4993 16.9376 56.4993C15.198 56.4993 13.526 56.7012 11.8845 57.0343C13.1851 55.8498 14.8738 54.7704 16.8876 53.8545C21.1131 51.9327 26.4802 50.8743 32.0002 50.8743C40.4534 50.8743 48.1302 53.3418 52.1715 57.0714C50.4757 56.7215 48.755 56.4993 47.0621 56.4993C44.1313 56.4993 41.4546 57.5144 38.866 58.4962Z"/>
</mask>
<path d="M62.7356 60.3518C62.159 60.1528 61.567 59.9427 60.9403 59.7202C59.9955 59.3848 58.9961 59.0302 57.9587 58.6837C56.4182 55.2778 53.0826 52.3738 48.2895 50.2732C47.5193 49.9357 46.7149 49.6258 45.8861 49.3397C46.618 41.604 45.412 34.6718 42.2979 28.733C39.8032 23.9757 36.1926 20.0497 31.5372 17.0204C31.6128 16.9847 31.6872 16.9455 31.7581 16.8994L33.827 15.5542L36.2388 16.0764C36.7278 16.1822 37.2386 16.0884 37.6579 15.8158L39.7267 14.4705L42.1386 14.9928C42.6275 15.0985 43.1382 15.0048 43.5576 14.7323L45.6265 13.387L48.0384 13.9093C48.6707 14.0463 49.329 13.8474 49.7799 13.3834C50.2307 12.9194 50.4106 12.2557 50.2556 11.6276C49.4135 8.21443 47.2264 5.62642 43.9309 4.1433C41.1256 2.88067 37.7116 2.5398 34.3181 3.18342C30.9877 3.81492 28.0221 5.34055 25.9676 7.47917C25.5877 7.87467 25.242 8.28617 24.9308 8.71255C24.6778 8.15317 24.3752 7.60242 24.0223 7.06267C22.3773 4.54642 19.7466 2.46867 16.615 1.21242C13.5412 -0.0205756 10.2967 -0.325576 7.47885 0.353674C4.1536 1.15542 1.62822 3.22717 0.175475 6.3453C-0.0961503 6.9283 -0.0500253 7.6098 0.297725 8.15092C0.645475 8.69193 1.24897 9.01942 1.88935 9.01217L4.27272 8.99393L5.9636 10.6739C6.31835 11.0264 6.79785 11.2229 7.29947 11.2187L9.68285 11.2004L11.3736 12.8803C11.7251 13.2294 12.2001 13.4252 12.6951 13.4252H12.7093L15.1131 13.4069C15.2531 13.5358 15.3887 13.6563 15.521 13.7703C15.1813 13.7903 14.8388 13.8245 14.4933 13.8745C11.5583 14.2996 8.59122 15.8222 6.1386 18.1618C3.63935 20.5459 1.9286 23.5198 1.32135 26.5357C0.6081 30.0784 1.4386 33.3635 3.72285 36.0357C4.08197 36.4558 4.60435 36.6923 5.14785 36.6923C5.2406 36.6923 5.3341 36.6854 5.42735 36.6714C6.0671 36.5751 6.6121 36.1557 6.86897 35.5618L7.84872 33.2968L10.1471 32.3983C10.613 32.2162 10.9866 31.8555 11.1852 31.3965L12.1651 29.1315L14.4635 28.2329C14.9292 28.0508 15.303 27.6902 15.5015 27.2312L16.4813 24.9662L18.7797 24.0675C19.2455 23.8854 19.6192 23.5248 19.8179 23.0657L20.7976 20.8007L23.096 19.902C23.2043 19.8597 23.3071 19.8075 23.404 19.7473C28.5045 27.5367 29.8411 38.2473 26.5455 47.4463C22.4651 47.9312 18.6059 48.9533 15.335 50.4409C10.7925 52.5069 7.5321 55.4093 6.04335 58.6827C5.18272 58.9744 4.31822 59.2798 3.44435 59.5886C2.7326 59.84 1.9966 60.1002 1.26672 60.3507C0.28735 60.6869 -0.23415 61.7534 0.1021 62.7329C0.43835 63.7123 1.50535 64.2338 2.48435 63.8975C3.23022 63.6415 3.97422 63.3785 4.69385 63.1243C8.8781 61.6457 12.8302 60.2492 16.9377 60.2492C19.1811 60.2492 21.4266 61.1008 23.804 62.0023C26.3926 62.9841 29.0694 63.9992 32 63.9992C34.9305 63.9992 37.6072 62.9841 40.1959 62.0023C42.5732 61.1007 44.8187 60.2492 47.0621 60.2492C51.2217 60.2492 55.7185 61.8455 59.6859 63.254C60.3207 63.4794 60.9202 63.6923 61.5127 63.8967C61.7152 63.9665 61.9215 63.9997 62.1244 63.9997C62.902 63.9997 63.6288 63.512 63.8967 62.7357C64.2344 61.7569 63.7146 60.6895 62.7356 60.3518ZM32.0784 37.2907C32.1018 34.8477 31.8782 32.4079 31.4237 30.026C33.5204 29.3553 35.3864 28.3012 36.7959 26.977C38.2494 28.9397 39.4245 31.0928 40.3131 33.4175C38.7337 35.4042 35.7462 36.863 32.4084 37.2559C32.299 37.2687 32.1887 37.2802 32.0784 37.2907ZM35.0166 6.86792C38.6199 6.18492 42.7755 6.84517 45.0877 9.52205C44.7872 9.54967 44.495 9.64967 44.2374 9.8173L42.1686 11.1625L39.7567 10.6403C39.2677 10.5345 38.7571 10.6283 38.3377 10.9009L36.2689 12.2462L33.857 11.7239C33.3684 11.6182 32.8574 11.7119 32.438 11.9845L30.3691 13.3298L27.9572 12.8075C27.8258 12.779 27.6929 12.765 27.5605 12.765C27.3606 12.765 27.1621 12.7969 26.9727 12.8595C28.0502 9.59342 31.4541 7.54355 35.0166 6.86792ZM13.4622 9.6693L11.7715 7.98942C11.4167 7.63692 10.937 7.43617 10.4356 7.44467L8.05235 7.46292L6.36147 5.78292C6.14535 5.56817 5.88235 5.41142 5.59672 5.32267C8.17935 3.28205 11.9873 3.3968 15.2187 4.69292C18.6382 6.06467 21.7891 8.92305 22.1032 12.4867C21.2393 12.0355 20.5407 11.9302 19.8323 11.8753C19.2732 11.8319 18.7903 11.7945 17.1813 10.1959C16.8298 9.8468 16.3548 9.65105 15.8598 9.65105C15.8551 9.65105 15.8503 9.65105 15.8456 9.65105L13.4622 9.6693ZM17.6662 18.5947L16.6865 20.8597L14.3881 21.7583C13.9223 21.9404 13.5486 22.301 13.3501 22.76L12.3702 25.025L10.0718 25.9237C9.6061 26.1058 9.23235 26.4664 9.03372 26.9254L8.05385 29.1904L5.75547 30.089C5.46922 30.201 5.21772 30.3803 5.02035 30.6085C4.1911 27.17 6.0736 23.4067 8.7271 20.8754C10.7953 18.9024 13.5005 17.507 16.1612 17.507C16.8757 17.507 17.587 17.6077 18.2818 17.8248C18.0138 18.02 17.8001 18.2849 17.6662 18.5947ZM34.3601 24.1288C34.3295 24.1544 34.2985 24.1793 34.2691 24.2072C33.31 25.122 32.0146 25.8684 30.53 26.3744C29.7293 23.7122 28.6283 21.1658 27.2382 18.8235C29.9697 20.3043 32.3485 22.0823 34.3601 24.1288ZM31.8433 41.0683C31.8756 41.0677 31.9077 41.0672 31.9402 41.0649C32.242 41.0439 32.547 41.0154 32.8469 40.98C36.2267 40.5823 39.2966 39.3234 41.5342 37.4817C42.2823 40.8123 42.516 44.4271 42.2136 48.2836C38.9913 47.5273 35.5121 47.1243 32.0001 47.1243C31.5296 47.1243 31.0601 47.1323 30.5917 47.1464C31.1927 45.1619 31.6073 43.1248 31.8433 41.0683ZM38.866 58.4962C36.4886 59.3977 34.2432 60.2493 31.9998 60.2493C29.7565 60.2493 27.511 59.3977 25.1336 58.4962C22.545 57.5144 19.8682 56.4993 16.9376 56.4993C15.198 56.4993 13.526 56.7012 11.8845 57.0343C13.1851 55.8498 14.8738 54.7704 16.8876 53.8545C21.1131 51.9327 26.4802 50.8743 32.0002 50.8743C40.4534 50.8743 48.1302 53.3418 52.1715 57.0714C50.4757 56.7215 48.755 56.4993 47.0621 56.4993C44.1313 56.4993 41.4546 57.5144 38.866 58.4962Z" fill="#EE2E24" stroke="#EE2E24" stroke-width="2" mask="url(#path-1-inside-1)"/>
</g>
<defs>
<clipPath id="clip0">
<rect width="64" height="64" fill="white"/>
</clipPath>
</defs>
</svg>
