<svg id="Слой_1" data-name="Слой 1" xmlns="http://www.w3.org/2000/svg" preserveAspectRatio="none" viewBox="0 0 64 55.02"><defs><style>.cls-1{fill:#ee2e24;}</style></defs><title>paw</title><path class="cls-1" d="M48.8,54.91c-1.86,1.55-6.72.65-10.62-.08A37.26,37.26,0,0,0,32,54a39.61,39.61,0,0,0-6.67.86c-3.74.69-8.4,1.54-10.15.09-.23-.2-.94-.79-.94-2.83,0-4.28,2-9.4,5.32-13.36,3.58-4.33,8-6.71,12.44-6.71s8.86,2.38,12.44,6.71c3.28,4,5.32,9.08,5.32,13.36C49.76,54.12,49,54.71,48.8,54.91ZM47.33,36.37C43,31.18,37.58,28.31,32,28.31s-11,2.87-15.33,8.06c-3.87,4.68-6.18,10.57-6.18,15.76a7,7,0,0,0,2.29,5.71,8.65,8.65,0,0,0,5.7,1.67A43.81,43.81,0,0,0,26,58.56a37.19,37.19,0,0,1,6-.8,35.07,35.07,0,0,1,5.5.76c4.91.91,10.48,1.95,13.7-.73a7,7,0,0,0,2.31-5.66C53.51,46.94,51.2,41.05,47.33,36.37Z" transform="translate(0 -4.49)"/><path class="cls-1" d="M44.66,21.82a4,4,0,0,1-3.08,2,4.07,4.07,0,0,1-3.09-2A10.61,10.61,0,0,1,36.89,16a10.58,10.58,0,0,1,1.6-5.78,4.07,4.07,0,0,1,3.09-2,4,4,0,0,1,3.08,2A10.49,10.49,0,0,1,46.26,16,10.53,10.53,0,0,1,44.66,21.82ZM47.77,8.14a7.62,7.62,0,0,0-6.19-3.65,7.61,7.61,0,0,0-6.19,3.65A14.17,14.17,0,0,0,33.14,16a14.12,14.12,0,0,0,2.25,7.89,7.59,7.59,0,0,0,6.19,3.66,7.61,7.61,0,0,0,6.19-3.66A14.11,14.11,0,0,0,50,16,14.16,14.16,0,0,0,47.77,8.14Z" transform="translate(0 -4.49)"/><path class="cls-1" d="M25.51,21.82a4.07,4.07,0,0,1-3.09,2,4.05,4.05,0,0,1-3.08-2A10.53,10.53,0,0,1,17.74,16a10.49,10.49,0,0,1,1.6-5.78,4.05,4.05,0,0,1,3.08-2,4.07,4.07,0,0,1,3.09,2A10.58,10.58,0,0,1,27.11,16,10.61,10.61,0,0,1,25.51,21.82Zm3.1-13.68a7.61,7.61,0,0,0-6.19-3.65,7.62,7.62,0,0,0-6.19,3.65A14.24,14.24,0,0,0,14,16a14.19,14.19,0,0,0,2.24,7.89,7.61,7.61,0,0,0,6.19,3.66,7.59,7.59,0,0,0,6.19-3.66A14.12,14.12,0,0,0,30.86,16,14.17,14.17,0,0,0,28.61,8.14Z" transform="translate(0 -4.49)"/><path class="cls-1" d="M59.83,31.36A6,6,0,0,1,57,34.87a2.37,2.37,0,0,1-1.79.15c-1.62-.61-2.25-3.42-1.35-6a6,6,0,0,1,2.84-3.51,2.68,2.68,0,0,1,1.12-.27,1.76,1.76,0,0,1,.67.12C60.1,26,60.73,28.77,59.83,31.36Zm3.8-5.09a6.45,6.45,0,0,0-3.84-4.42,6,6,0,0,0-4.69.26,9.68,9.68,0,0,0-4.8,5.67A10.51,10.51,0,0,0,50,34.11a6.46,6.46,0,0,0,3.83,4.42,5.64,5.64,0,0,0,2,.35,6.3,6.3,0,0,0,2.71-.62,9.65,9.65,0,0,0,4.8-5.67h0A10.48,10.48,0,0,0,63.63,26.27Z" transform="translate(0 -4.49)"/><path class="cls-1" d="M8.81,35A2.37,2.37,0,0,1,7,34.87a6,6,0,0,1-2.85-3.51h0c-.9-2.59-.27-5.39,1.35-6a2.28,2.28,0,0,1,1.79.15A6,6,0,0,1,10.16,29C11.06,31.6,10.43,34.41,8.81,35Zm4.89-7.24a9.68,9.68,0,0,0-4.8-5.67,6,6,0,0,0-4.69-.26A6.45,6.45,0,0,0,.37,26.27a10.48,10.48,0,0,0,.26,6.32h0a9.65,9.65,0,0,0,4.8,5.67,6.27,6.27,0,0,0,2.71.62,5.64,5.64,0,0,0,2-.35A6.46,6.46,0,0,0,14,34.11,10.51,10.51,0,0,0,13.7,27.78Z" transform="translate(0 -4.49)"/></svg>