<svg width="64" height="64" viewBox="0 0 64 64" fill="none" xmlns="http://www.w3.org/2000/svg">
<path d="M38.0907 55.3261L38.0907 55.3261C35.7974 54.9003 33.697 54.5123 31.9989 54.5123C30.0802 54.5123 27.8482 54.9201 25.4196 55.3656L25.4018 55.3688C23.5425 55.7099 21.4201 56.0992 19.5407 56.2183C18.5971 56.2781 17.6946 56.2714 16.9043 56.1497C16.1197 56.029 15.3993 55.788 14.8638 55.3418C14.7221 55.2237 14.4258 54.9734 14.1752 54.4543C13.9291 53.9445 13.7418 53.208 13.7418 52.1285C13.7418 47.709 15.8363 42.4794 19.1759 38.4472L19.5609 38.7661L19.1759 38.4472C22.8242 34.0422 27.3719 31.5619 31.9988 31.5619C36.6257 31.5619 41.1734 34.0422 44.8218 38.4472C48.1614 42.4794 50.2558 47.709 50.2558 52.1284L38.0907 55.3261ZM38.0907 55.3261L38.1087 55.3295M38.0907 55.3261L38.1087 55.3295M38.1087 55.3295C40.0476 55.6894 42.2602 56.1001 44.2245 56.2239M38.1087 55.3295L44.2245 56.2239M44.2245 56.2239C45.2107 56.2861 46.1545 56.2776 46.9828 56.1474M44.2245 56.2239L46.9828 56.1474M46.9828 56.1474C47.8062 56.018 48.5593 55.7619 49.1227 55.2935M46.9828 56.1474L49.1227 55.2935M49.1227 55.2935C49.2642 55.1759 49.5629 54.9248 49.8162 54.4124C50.0657 53.9079 50.256 53.1828 50.2558 52.1285L49.1227 55.2935ZM17.0583 36.6932L17.0583 36.6932C21.291 31.5823 26.6021 28.812 31.9991 28.812C37.396 28.812 42.707 31.5823 46.94 36.6932L47.3251 36.3743L46.94 36.6932C50.7494 41.2925 53.0062 47.0724 53.0061 52.1286C53.0061 54.5067 52.2687 56.2542 50.881 57.4079C49.4079 58.6327 47.3565 59.0399 44.9934 59.0025C42.634 58.9651 40.0557 58.4878 37.589 58.0298L37.5889 58.0298L37.5432 58.0213C35.4761 57.6375 33.4546 57.2623 31.9992 57.2623C30.3208 57.2623 28.1669 57.6574 25.9555 58.0631L25.9161 58.0704C23.3385 58.5432 20.7741 59.0119 18.4763 59.0119C16.3193 59.012 14.4757 58.5975 13.1038 57.4544L13.1037 57.4544C11.7272 56.3075 10.9922 54.5462 10.9922 52.1286C10.9922 47.0724 13.2489 41.2925 17.0583 36.6932Z" fill="#EE2E24" stroke="#EE2E24"/>
<path d="M38.0785 22.1003L38.0785 22.1003C36.9962 20.5045 36.3944 18.2928 36.3944 16.0339C36.3944 13.7749 36.9963 11.5633 38.0785 9.96752L38.0785 9.96749C38.3493 9.56829 38.7796 9.02049 39.3554 8.56839C39.9325 8.11528 40.6827 7.73815 41.5785 7.73815C42.4744 7.73815 43.2245 8.11524 43.8017 8.56834C44.3775 9.02042 44.8078 9.56821 45.0786 9.9675L38.0785 22.1003ZM38.0785 22.1003C38.3493 22.4996 38.7796 23.0474 39.3554 23.4995C39.9326 23.9526 40.6827 24.3297 41.5785 24.3297C42.4744 24.3297 43.2245 23.9525 43.8017 23.4994C44.3775 23.0473 44.8078 22.4995 45.0786 22.1003L44.6648 21.8197M38.0785 22.1003L44.6648 21.8197M44.6648 21.8197L45.0786 22.1003C46.1609 20.5045 46.7625 18.2928 46.7627 16.0339V16.0339M44.6648 21.8197L46.7627 16.0339M46.7627 16.0339C46.7627 13.775 46.1609 11.5633 45.0786 9.96752L46.7627 16.0339ZM47.3544 8.42394L47.3544 8.42396C48.7377 10.4632 49.5125 13.1644 49.5125 16.0339C49.5125 18.9034 48.7376 21.6044 47.3544 23.6439C45.8516 25.8594 43.7378 27.0795 41.5785 27.0795C39.4194 27.0795 37.3055 25.8594 35.8027 23.6439C34.4194 21.6045 33.6445 18.9034 33.6445 16.0339C33.6445 13.1644 34.4195 10.4634 35.8027 8.42393C37.3055 6.20852 39.4193 4.9884 41.5785 4.9884C43.7377 4.9884 45.8516 6.20831 47.3544 8.42394Z" fill="#EE2E24" stroke="#EE2E24"/>
<path d="M19.3359 21.8195L18.9221 22.1002C17.8398 20.5044 17.238 18.2927 17.238 16.0338C17.238 13.7748 17.8399 11.5631 18.9221 9.9674L18.9221 9.96737C19.1929 9.56817 19.6232 9.02038 20.199 8.56828C20.7762 8.11517 21.5263 7.73804 22.4222 7.73804C23.318 7.73804 24.0681 8.11513 24.6452 8.56823C25.221 9.02031 25.6513 9.5681 25.9221 9.96738L19.3359 21.8195ZM19.3359 21.8195L18.9221 22.1002C19.1929 22.4994 19.6232 23.0472 20.199 23.4993C20.7762 23.9524 21.5263 24.3295 22.4222 24.3295C23.318 24.3295 24.0681 23.9524 24.6452 23.4993M19.3359 21.8195L24.6452 23.4993M24.6452 23.4993C25.221 23.0472 25.6513 22.4994 25.9221 22.1002L25.5083 21.8195M24.6452 23.4993L25.5083 21.8195M25.5083 21.8195L25.9221 22.1002C27.0044 20.5044 27.6062 18.2927 27.6062 16.0338C27.6062 13.7749 27.0044 11.5632 25.9221 9.9674L25.5083 21.8195ZM16.6465 23.6436L16.2339 23.9234L16.6464 23.6436C15.2631 21.6042 14.4883 18.9032 14.4883 16.0337C14.4883 13.1642 15.2633 10.4631 16.6465 8.42369C18.1491 6.20817 20.263 4.98804 22.4223 4.98804C24.5816 4.98804 26.6953 6.20805 28.1981 8.4237L28.6119 8.14304L28.1981 8.4237C29.5813 10.463 30.3562 13.1642 30.3563 16.0337C30.3563 18.9033 29.5813 21.6042 28.1981 23.6436C26.6953 25.8593 24.5816 27.0794 22.4223 27.0794C20.263 27.0794 18.1492 25.8593 16.6465 23.6436Z" fill="#EE2E24" stroke="#EE2E24"/>
<path d="M53.369 28.8513C52.8884 30.2267 52.8113 31.6697 53.0811 32.8678C53.347 34.0487 53.9805 35.096 55.0164 35.4852L55.0165 35.4852C55.8751 35.8076 56.7005 35.5498 57.194 35.319L57.1942 35.319C58.56 34.6798 59.6977 33.2411 60.298 31.5226C60.7786 30.1472 60.8557 28.7042 60.5859 27.506C60.32 26.3251 59.6865 25.2778 58.6506 24.8886L58.6506 24.8885C58.3614 24.7799 58.0743 24.7372 57.8034 24.7372C57.276 24.7372 56.8066 24.8988 56.473 25.0548L56.4729 25.0549C55.107 25.6941 53.9693 27.1329 53.369 28.8513ZM53.369 28.8513L53.841 29.0162L53.369 28.8513ZM63.1469 26.4076L63.1469 26.4077C63.6891 28.2515 63.6061 30.3914 62.8942 32.4295L62.8842 32.4581C62.0091 34.9418 60.348 36.8793 58.3598 37.8096L58.3598 37.8096C57.538 38.1942 56.6875 38.385 55.8615 38.385C55.2384 38.385 54.6274 38.2766 54.0496 38.0595L53.8737 38.5276L54.0496 38.0595C52.383 37.4336 51.1185 36.0015 50.5202 33.9663L50.0408 34.1073L50.5202 33.9663C49.9782 32.1225 50.0612 29.9827 50.7732 27.9445L50.304 27.7806L50.7732 27.9445C51.6456 25.4469 53.3118 23.4982 55.3075 22.5644L55.3076 22.5643C56.7486 21.8899 58.2771 21.8109 59.6177 22.3144C61.2842 22.9404 62.5486 24.3725 63.1469 26.4076Z" fill="#EE2E24" stroke="#EE2E24"/>
<path d="M8.69186 22.5643L8.69185 22.5643C7.25072 21.8899 5.72211 21.811 4.38162 22.3144L8.69186 22.5643ZM8.69186 22.5643C10.6875 23.4982 12.3537 25.4467 13.2262 27.9443C13.9381 29.9827 14.0211 32.1226 13.4793 33.9663C12.881 36.0013 11.6167 37.4334 9.94985 38.0595C9.37206 38.2764 8.76099 38.3849 8.13791 38.3849C7.31188 38.3849 6.46157 38.1942 5.63958 37.8096C3.6515 36.8792 1.99039 34.9418 1.11507 32.4577M8.69186 22.5643L1.11507 32.4577M1.11507 32.4577L1.10519 32.4294C0.393216 30.3913 0.310184 28.2514 0.852232 26.4076C1.4505 24.3726 2.71496 22.9405 4.38157 22.3144L1.11507 32.4577ZM8.98271 35.4853L8.98274 35.4852C10.0187 35.0961 10.6521 34.0488 10.9181 32.868C11.1879 31.6698 11.1108 30.2269 10.6303 28.8514C10.0301 27.1331 8.89241 25.6943 7.52647 25.0551L7.52632 25.055C7.03283 24.8243 6.20712 24.5664 5.3487 24.8889L5.34867 24.8889C4.31275 25.2781 3.67934 26.3254 3.41345 27.5063C3.14366 28.7044 3.22079 30.1474 3.70125 31.5228L3.70129 31.5228C4.30153 33.2412 5.43932 34.6799 6.80511 35.319L6.8052 35.3191C7.29862 35.5499 8.12419 35.8077 8.98271 35.4853Z" fill="#EE2E24" stroke="#EE2E24"/>
</svg>
