<svg width="64" height="64" viewBox="0 0 64 64" fill="none" xmlns="http://www.w3.org/2000/svg">
<g clip-path="url(#clip0)">
<path d="M55.3025 6.50147L34.4709 0.357844C32.8537 -0.119281 31.1433 -0.119281 29.5255 0.357844L8.69416 6.50134C7.15616 6.95484 6.08203 8.39134 6.08203 9.99484V27.2466C6.08203 35.2306 8.45866 42.9185 12.955 49.4791C17.3448 55.8845 23.4539 60.8122 30.6213 63.7291C31.0653 63.9097 31.5318 64.0001 31.9983 64.0001C32.4648 64.0001 32.9313 63.9096 33.3752 63.7291C40.5425 60.8122 46.6517 55.8847 51.0414 49.4791C55.5377 42.9184 57.9143 35.2306 57.9143 27.2466V9.99497C57.9145 8.39147 56.8404 6.95484 55.3025 6.50147ZM55.0008 27.2465C55.0008 34.6398 52.8005 41.7581 48.6382 47.8316C44.5719 53.7649 38.9144 58.3288 32.277 61.03C32.0973 61.1031 31.8994 61.1031 31.7197 61.03C25.0823 58.3288 19.4247 53.765 15.3585 47.8316C11.1962 41.7581 8.99591 34.64 8.99591 27.2465V9.99484C8.99591 9.67422 9.21078 9.38697 9.51841 9.29622L30.3499 3.15259C30.8892 2.99347 31.4438 2.91409 31.9984 2.91409C32.5529 2.91409 33.1075 2.99359 33.6468 3.15272L54.4785 9.29622C54.7859 9.38684 55.0008 9.67409 55.0008 9.99484V27.2465Z" fill="#EE2E24" stroke="#EE2E24" stroke-width="0.5"/>
<path d="M48.1436 12.9443L32.6178 8.36556C32.2136 8.24644 31.7863 8.24619 31.3818 8.36556L15.8564 12.9443C14.9337 13.2166 14.2891 14.0786 14.2891 15.0406V27.2464C14.2891 33.6962 16.2401 39.8824 19.9308 45.1367C22.7923 49.2108 26.6159 52.5744 30.9881 54.8642C31.3048 55.0302 31.6523 55.1131 31.9999 55.1131C32.3474 55.1131 32.6949 55.0302 33.0118 54.8642C37.3838 52.5746 41.2074 49.2107 44.0691 45.1367C47.7598 39.8826 49.7108 33.6962 49.7108 27.2464V15.0406C49.7107 14.0783 49.0662 13.2164 48.1436 12.9443ZM46.7971 27.2464C46.7971 33.0936 45.0293 38.7008 41.6849 43.4618C39.1634 47.0514 35.8209 50.0321 31.9999 52.1018C28.1789 50.0319 24.8363 47.0514 22.3149 43.4618C18.9706 38.7008 17.2028 33.0936 17.2028 27.2464V15.5852L31.9999 11.2212L46.7971 15.5852V27.2464Z" fill="#EE2E24" stroke="#EE2E24" stroke-width="0.5"/>
</g>
<defs>
<clipPath id="clip0">
<rect width="64" height="64" fill="white"/>
</clipPath>
</defs>
</svg>
