<svg width="64" height="65" viewBox="0 0 64 65" fill="none" xmlns="http://www.w3.org/2000/svg">
<path d="M18.1199 37.8675L18.1199 37.8675C17.5511 38.4364 16.6287 38.4366 16.0596 37.8675C15.4906 37.2985 15.4905 36.3761 16.0596 35.8071L18.1199 37.8675ZM18.1199 37.8675C18.4895 37.4977 18.9798 37.2946 19.5028 37.2946C20.0257 37.2946 20.5161 37.4977 20.8859 37.8675M18.1199 37.8675L20.8859 37.8675M20.8859 37.8675C21.1702 38.1518 21.5434 38.2944 21.9161 38.2942L20.8859 37.8675ZM19.5029 34.3809C18.2028 34.3809 16.9791 34.8877 16.0596 35.8071L22.9462 37.8675C23.5153 37.2986 23.5153 36.3762 22.9462 35.8071C22.0268 34.8877 20.8031 34.3809 19.5029 34.3809ZM21.9162 38.2942C22.2885 38.2942 22.6618 38.1519 22.9462 37.8675L21.9162 38.2942Z" fill="#EE2E24" stroke="#EE2E24" stroke-width="0.5"/>
<path d="M43.112 37.8675L43.112 37.8675C43.8744 37.105 45.1158 37.1051 45.8782 37.8675C46.1626 38.1519 46.5358 38.2942 46.9084 38.2942C47.2809 38.2942 47.6541 38.1519 47.9385 37.8675C48.5077 37.2986 48.5076 36.3762 47.9386 35.8072C46.04 33.9084 42.9508 33.9083 41.0518 35.8071C40.4827 36.3761 40.4827 37.2985 41.0518 37.8675C41.6207 38.4364 42.5431 38.4364 43.112 37.8675Z" fill="#EE2E24" stroke="#EE2E24" stroke-width="0.5"/>
<path d="M19.6862 47.7128C26.4754 54.5019 37.5224 54.5019 44.3115 47.7128C44.8804 47.1439 45.8029 47.1439 46.3719 47.7128C46.9409 48.2819 46.9409 49.2042 46.3719 49.7732C42.4091 53.736 37.2035 55.7172 31.9989 55.7172C26.7944 55.7172 21.5888 53.736 17.626 49.7732C17.057 49.2043 17.057 48.2817 17.626 47.7128L19.6862 47.7128ZM19.6862 47.7128C19.1173 47.1439 18.195 47.1439 17.626 47.7128L19.6862 47.7128Z" fill="#EE2E24" stroke="#EE2E24" stroke-width="0.5"/>
<path d="M4.54445 18.0853L4.54444 18.0853C4.19209 19.1286 4.58244 20.2304 5.51332 20.8189C6.444 21.4073 7.60699 21.2878 8.39835 20.5219L8.39838 20.5218C8.51347 20.4104 8.63419 20.3077 8.75955 20.2132V31.5578C5.62874 32.2291 3.27344 35.0156 3.27344 38.3449C3.27344 41.8194 5.83862 44.7031 9.17403 45.2078C10.0357 49.7651 12.2238 53.9664 15.5459 57.3364C19.9404 61.7941 25.7844 64.2502 31.9998 64.2502H31.9998H31.9999H32H32H32.0001H32.0001H32.0002H32.0003H32.0003H32.0004H32.0004H32.0005H32.0006H32.0006H32.0007H32.0007H32.0008H32.0009H32.0009H32.001H32.001H32.0011H32.0012H32.0012H32.0013H32.0013H32.0014H32.0015H32.0015H32.0016H32.0016H32.0017H32.0018H32.0018H32.0019H32.0019H32.002C38.2084 64.2496 44.0445 61.8318 48.433 57.4434C51.8171 54.0594 54.0295 49.8143 54.8652 45.2017C58.1812 44.6801 60.7261 41.8055 60.7261 38.3449C60.7261 35.0157 58.3708 32.2292 55.24 31.5578V11.5731C55.24 8.87014 53.895 6.36372 51.6428 4.86931L51.5165 5.05967L51.6427 4.8693C49.5516 3.48201 46.9611 3.15468 44.6078 3.95556L37.112 1.41127C31.2437 -0.58076 25.0639 -0.78583 19.242 0.820474L19.3085 1.06147L19.242 0.820475C11.6436 2.91697 7.2165 7.36696 6.50951 13.7273C5.92143 14.5148 5.45295 15.3962 5.13219 16.3458L4.54445 18.0853ZM50.0318 7.29733L50.1498 7.11954L50.0318 7.29734C51.4913 8.26554 52.3262 9.82171 52.3262 11.5731V27.0687C48.8418 26.3875 46.204 23.3109 46.204 19.6305L46.204 19.6286L46.1056 6.55692C47.4518 6.25492 48.8409 6.50717 50.0318 7.29733ZM7.87864 17.3201L7.89274 17.2784L7.89275 17.2784C8.48444 15.5271 9.79861 14.1051 11.4978 13.3776L11.4979 13.3776C13.197 12.6501 15.133 12.6803 16.8087 13.4608L16.8087 13.4609C20.5637 15.2097 25.101 14.2647 27.8455 11.1622L27.8455 11.1622L28.1444 10.8241C28.1445 10.8241 28.1445 10.8241 28.1445 10.8241C28.6777 10.2215 28.6212 9.30075 28.0186 8.76773L28.0186 8.7677C27.4159 8.23474 26.4952 8.29093 25.9621 8.89359L25.9621 8.8936L25.6631 9.23166C23.768 11.3739 20.6315 12.0271 18.0388 10.8196C15.613 9.68963 12.8109 9.64578 10.3509 10.6991L10.3509 10.6992C10.3309 10.7077 10.3109 10.7164 10.291 10.7251C11.7847 7.39926 15.0157 5.00911 20.0172 3.62915L19.9511 3.38946L20.0172 3.62915C25.2718 2.17925 30.8588 2.36558 36.1757 4.17025L43.1931 6.5522L43.2833 12.5275C40.1232 16.7891 35.5338 19.6733 30.3068 20.6687C24.9263 21.6931 19.4383 20.6092 14.8518 17.6162L14.8518 17.6162C12.7022 16.2137 10.0388 16.147 7.87864 17.3201ZM6.18717 38.3449C6.18717 36.6376 7.25552 35.1747 8.75955 34.5893V40.7816C8.75955 41.228 8.77213 41.6725 8.79677 42.1148C7.27335 41.5391 6.18717 40.0663 6.18717 38.3449ZM46.3728 55.3829C42.5339 59.2218 37.431 61.3357 32.0018 61.3363H32.0018H32.0018H32.0018H32.0017H32.0017H32.0017H32.0016H32.0016H32.0016H32.0016H32.0015H32.0015H32.0015H32.0014H32.0014H32.0014H32.0013H32.0013H32.0013H32.0012H32.0012H32.0012H32.0011H32.0011H32.0011H32.0011H32.001H32.001H32.001H32.0009H32.0009H32.0009H32.0008H32.0008H32.0008H32.0007H32.0007H32.0007H32.0006H32.0006H32.0006H32.0005H32.0005H32.0005H32.0005H32.0004H32.0004H32.0004H32.0003H32.0003H32.0003H32.0002H32.0002H32.0002H32.0001H32.0001H32.0001H32H32H32H31.9999H31.9999H31.9999H31.9998H31.9998H31.9998C26.5711 61.3363 21.4648 59.1898 17.6209 55.2908C13.7853 51.3999 11.6733 46.2477 11.6733 40.7814V19.4553C12.2236 19.535 12.7646 19.7338 13.2591 20.0565C18.4796 23.463 24.7278 24.6972 30.8516 23.5311C35.6166 22.6236 39.9182 20.337 43.2901 16.9694V19.6303C43.2901 24.9221 47.2277 29.308 52.3261 30.0195V41.0097C52.3262 46.4397 50.2123 51.5435 46.3728 55.3829ZM57.8124 38.3449C57.8124 40.0623 56.7312 41.5324 55.2131 42.1107C55.2305 41.7455 55.24 41.3785 55.24 41.0098V34.5893C56.744 35.1747 57.8124 36.6376 57.8124 38.3449Z" fill="#EE2E24" stroke="#EE2E24" stroke-width="0.5"/>
</svg>
