<svg width="64" height="64" viewBox="0 0 64 64" fill="none" xmlns="http://www.w3.org/2000/svg">
<g clip-path="url(#clip0)">
<path d="M34.2177 21.9939C34.2804 21.8098 34.3431 21.6248 34.4061 21.4389C34.5919 20.8908 34.78 20.3359 34.9773 19.7809C34.9773 19.7644 34.9939 19.7314 35.0104 19.6983M34.2177 21.9939L36.1733 16.8142M34.2177 21.9939C33.3424 24.6197 32.5167 27.0803 31.0139 29.2767L34.2177 21.9939ZM35.0104 19.6983C35.0963 19.5121 35.2196 19.2885 35.3694 19.0169C35.3922 18.9754 35.4157 18.9329 35.4398 18.8891C35.671 18.4763 36.2985 17.3203 36.4636 16.7257L36.2228 16.6588C36.2096 16.7064 36.1929 16.7584 36.1733 16.8142M35.0104 19.6983L34.7834 19.5936C34.7839 19.5924 34.7845 19.5912 34.785 19.59M35.0104 19.6983L34.7868 19.5865L34.7856 19.5889C34.7854 19.5893 34.7852 19.5896 34.785 19.59M36.1733 16.8142C33.4841 14.6419 31.8752 11.4398 30.9307 8.74101C29.9967 6.07246 29.7023 3.86699 29.6626 3.56958C29.6614 3.56062 29.6604 3.5534 29.6597 3.54794L29.6589 3.5424L29.659 3.54239C29.5613 2.68233 30.1676 1.89456 31.0352 1.79598C31.8942 1.69836 32.6812 2.30318 32.7813 3.1691C32.7814 3.17029 32.7816 3.1717 32.7818 3.1733C32.8025 3.32542 33.0723 5.31121 33.9025 7.69047C34.754 10.1306 36.1812 12.9437 38.4956 14.6351C38.5233 14.6476 38.5433 14.6618 38.5541 14.6699C38.571 14.6826 38.5861 14.6966 38.5957 14.706C39.4739 15.4147 39.5229 16.4284 39.2675 17.4159C39.0138 18.3967 38.4436 19.4269 37.9782 20.2679L37.9705 20.2818L37.9649 20.2919L37.9647 20.2918C37.8789 20.4311 37.8073 20.5651 37.7459 20.6797C37.7174 20.7331 37.6911 20.7822 37.6667 20.8258C37.4213 21.5291 37.1768 22.2304 36.9485 22.9151C36.0579 25.5872 35.1071 28.3941 33.3671 30.9372L33.3651 30.9401C32.34 32.3951 29.6436 35.994 26.5997 38.1348L26.5989 38.1353C25.2083 39.1055 23.7106 39.7781 22.2923 40.4151C22.2389 40.4391 22.1856 40.463 22.1325 40.4869L22.1299 40.488C20.842 41.0494 19.653 41.5875 18.532 42.3022C17.9301 42.6927 17.361 43.1156 16.8245 43.5707L16.8185 43.5758L16.8184 43.5757C16.7834 43.6036 16.7483 43.6316 16.713 43.6597C15.293 44.7902 13.6436 46.1034 11.3689 46.3208L11.3618 46.3215L11.3618 46.3214C11.2427 46.3293 11.123 46.3413 10.9984 46.3537L10.9962 46.354C10.8744 46.3661 10.748 46.3788 10.6208 46.3873C9.22939 46.5033 8.17839 46.6012 7.09482 47.2292C5.18826 48.3496 4.11163 50.1729 3.52579 52.3987C2.93855 54.6298 2.85077 57.2428 2.90848 59.9057L2.90859 59.9111L2.90854 59.9276C2.90854 60.7893 2.22279 61.4956 1.35957 61.5152L1.35389 61.5153V61.5153H1.33738C0.471634 61.5153 -0.214188 60.8255 -0.233715 59.9663L-0.233746 59.9649C-0.266735 58.0596 -0.317801 55.0903 0.379933 52.1615C1.07824 49.2303 2.53409 46.3085 5.53707 44.5355L5.53807 44.5349C7.24306 43.5389 8.84956 43.3978 10.3381 43.267L10.3819 43.2632L10.386 43.2628L10.386 43.2628C10.4916 43.2553 10.5976 43.2441 10.7104 43.2322L10.7265 43.2305C10.8426 43.2183 10.9653 43.2056 11.0929 43.197C12.4725 43.0559 13.6021 42.1563 14.8684 41.1232C15.5027 40.5892 16.1713 40.0877 16.8744 39.6357L16.8747 39.6355C18.0498 38.8823 19.2923 38.319 20.4747 37.783C20.6071 37.723 20.7387 37.6633 20.8694 37.6037L20.872 37.6025C22.2941 36.9742 23.6271 36.3718 24.8269 35.5451C26.6271 34.2798 28.8693 31.8783 30.8086 29.1341C32.2878 26.9716 33.1037 24.5453 33.9805 21.9148L33.981 21.9132C34.0435 21.7301 34.106 21.5456 34.1689 21.3601C34.3525 20.8184 34.5391 20.2679 34.7344 19.718C34.7368 19.7073 34.7392 19.6987 34.741 19.6929C34.7465 19.6749 34.7529 19.6589 34.7579 19.6473C34.7668 19.6265 34.7777 19.6047 34.785 19.59M36.1733 16.8142C36.081 17.0767 35.9232 17.4213 35.7526 17.7642C35.5487 18.1742 35.3361 18.5626 35.2216 18.767L35.2207 18.7687C35.1969 18.8118 35.1736 18.8542 35.1508 18.8956C35.0027 19.1641 34.875 19.3956 34.785 19.59" fill="#EE2E24" stroke="#EE2E24" stroke-width="0.5"/>
<path d="M61.1755 19.069L61.1748 19.0676C58.4132 13.9461 53.9851 10.8406 48.3868 10.1031L48.3706 10.101H48.3542H48.3541H48.354H48.3539H48.3538H48.3537H48.3536H48.3535H48.3534H48.3533H48.3532H48.3531H48.353H48.3529H48.3528H48.3527H48.3526H48.3525H48.3524H48.3523H48.3522H48.3521H48.352H48.352H48.3519H48.3518H48.3517H48.3516H48.3515H48.3514H48.3513H48.3512H48.3511H48.351H48.3509H48.3508H48.3507H48.3506H48.3505H48.3504H48.3503H48.3502H48.3501H48.35H48.3499H48.3498H48.3497H48.3496H48.3495H48.3494H48.3493H48.3492H48.3491H48.349H48.3489H48.3488H48.3487H48.3486H48.3485H48.3484H48.3483H48.3482H48.3481H48.3481H48.348H48.3479H48.3478H48.3477H48.3476H48.3475H48.3474H48.3473H48.3472H48.3471H48.347H48.3469H48.3468H48.3467H48.3466H48.3465H48.3464H48.3463H48.3462H48.3461H48.346H48.3459H48.3458H48.3457H48.3456H48.3455H48.3454H48.3453H48.3452H48.3451H48.345H48.3449H48.3448H48.3447H48.3446H48.3445H48.3444H48.3443H48.3442H48.3441H48.344H48.3439H48.3438H48.3437H48.3436H48.3435H48.3434H48.3433H48.3432H48.3431H48.343H48.3429H48.3428H48.3427H48.3426H48.3425H48.3424H48.3423H48.3421H48.342H48.3419H48.3418H48.3417H48.3416H48.3415H48.3414H48.3413H48.3412H48.3411H48.341H48.3409H48.3408H48.3407H48.3406H48.3405H48.3404H48.3403H48.3402H48.3401H48.34H48.3399H48.3398H48.3397H48.3396H48.3395H48.3394H48.3392H48.3391H48.339H48.3389H48.3388H48.3387H48.3386H48.3385H48.3384H48.3383H48.3382H48.3381H48.338H48.3379H48.3378H48.3377H48.3376H48.3374H48.3373H48.3372H48.3371H48.337H48.3369H48.3368H48.3367H48.3366H48.3365H48.3364H48.3363H48.3362H48.336H48.3359H48.3358H48.3357H48.3356H48.3355H48.3354H48.3353H48.3352H48.3351H48.3349H48.3348H48.3347H48.3346H48.3345H48.3344H48.3343H48.3342H48.3341H48.334H48.3338H48.3337H48.3336H48.3335H48.3334H48.3333H48.3332H48.3331H48.3329H48.3328H48.3327H48.3326H48.3325H48.3324H48.3323H48.3321H48.332H48.3319H48.3318H48.3317H48.3316H48.3315H48.3313H48.3312H48.3311H48.331H48.3309H48.3308H48.3307H48.3305H48.3304H48.3303H48.3302H48.3301H48.33H48.3298H48.3297H48.3296H48.3295H48.3294H48.3293H48.3291H48.329H48.3289H48.3288H48.3287H48.3285H48.3284H48.3283H48.3282H48.3281H48.3279H48.3278H48.3277H48.3276H48.3275H48.3273H48.3272H48.3271H48.327H48.3269H48.3267H48.3266H48.3265H48.3264H48.3262H48.3261H48.326H48.3259H48.3258H48.3256H48.3255H48.3254H48.3253H48.3251H48.325H48.3249H48.3248H48.3246H48.3245H48.3244H48.3243H48.3241H48.324H48.3239H48.3237H48.3236H48.3235H48.3234H48.3232H48.3231H48.323H48.3229H48.3227H48.3226H48.3225H48.3223H48.3222H48.3221H48.322H48.3218H48.3217H48.3216H48.3214H48.3213H48.3212H48.321H48.3209H48.3208H48.3206H48.3205H48.3204H48.3203H48.3201H48.32H48.3199H48.3197H48.3196H48.3195H48.3193H48.3192H48.319H48.3189H48.3188H48.3186H48.3185H48.3184H48.3182H48.3181H48.318H48.3178H48.3177H48.3175H48.3174H48.3173H48.3171H48.317H48.3169H48.3167H48.3166H48.3164H48.3163H48.3162H48.316H48.3159H48.3157H48.3156H48.3155H48.3153H48.3152H48.315H48.3149H48.3148H48.3146H48.3145H48.3143H48.3142H48.314H48.3139H48.3137H48.3136H48.3135H48.3133H48.3132H48.313H48.3129H48.3127H48.3126H48.3124H48.3123H48.3121H48.312H48.3118H48.3117H48.3116H48.3114H48.3113H48.3111H48.311H48.3108H48.3107H48.3105H48.3104H48.3102H48.3101H48.3099H48.3097H48.3096H48.3094H48.3093H48.3091H48.309H48.3088H48.3087H48.3085H48.3084H48.3082H48.3081H48.3079H48.3078H48.3076H48.3074H48.3073H48.3071H48.307H48.3068H48.3067H48.3065H48.3063H48.3062H48.306H48.3059H48.3057H48.3055H48.3054H48.3052H48.3051H48.3049H48.3047H48.3046H48.3044H48.3043H48.3041H48.3039H48.3038H48.3036H48.3034H48.3033H48.3031H48.303H48.3028H48.3026H48.3025H48.3023H48.3021H48.302H48.3018H48.3016H48.3015H48.3013H48.3011H48.301H48.3008H48.3006H48.3004C47.9624 10.068 47.6425 10.068 47.3515 10.068H47.3502C47.3079 10.0668 47.2661 10.0658 47.225 10.0647C46.9644 10.0581 46.7275 10.0521 46.516 10.0301C46.2674 10.0042 46.0894 9.95899 45.9726 9.88889L45.9502 9.87546C45.9499 9.8753 45.9497 9.87513 45.9494 9.87496C45.9491 9.87479 45.9488 9.87462 45.9485 9.87445L45.9132 9.85327H45.9069C45.674 9.71219 45.2517 9.33679 44.7292 8.77427C44.1943 8.19838 43.5747 7.44873 42.9802 6.61221C41.7827 4.92705 40.7212 2.93609 40.6106 1.31705C40.5516 0.452043 39.8042 -0.196299 38.9404 -0.137407C38.0758 -0.0784516 37.4276 0.668398 37.4859 1.53169C37.6307 3.79714 38.8968 6.29978 40.3339 8.35165C41.0554 9.38179 41.8264 10.3073 42.5343 11.0434C43.2378 11.775 43.8915 12.3326 44.3804 12.6148C45.3586 13.1908 46.4021 13.21 47.2798 13.2262L47.3091 13.2267L47.3091 13.2268H47.3138C47.5821 13.2268 47.8112 13.2273 48.0216 13.2573L48.0246 13.2577C52.6302 13.8577 56.1132 16.3326 58.4058 20.609C60.3132 24.1959 61.2816 28.8898 61.1012 33.8582C60.5927 46.3862 54.4041 55.4384 43.6763 59.4122L43.6751 59.4127C42.1656 59.9808 38.7529 60.847 34.6473 61.0153C30.5804 61.182 25.8563 60.6627 21.6361 58.5112V58.5013L21.4979 58.4322C19.9637 57.6651 18.5419 56.3813 16.9749 54.3443L16.9691 54.3328L16.9593 54.3132L16.9462 54.2956L16.9181 54.2577C16.3095 53.4379 15.5592 52.4273 14.5371 51.7885C13.4786 51.1269 12.1449 50.8723 10.4132 51.5525C8.46102 52.2887 7.50716 54.0652 7.03853 55.8872C6.57031 57.7076 6.57031 59.6324 6.57031 60.762V60.7696C6.57031 61.6344 7.27676 62.3408 8.14147 62.3408C9.00618 62.3408 9.71263 61.6344 9.71263 60.7696C9.71263 59.9749 9.71321 58.5559 9.95616 57.2439C10.0776 56.5879 10.2574 55.9726 10.5193 55.4807C10.7724 55.0055 11.0918 54.6641 11.4925 54.4964H11.5082L11.5522 54.4792C11.8652 54.3563 12.1092 54.2975 12.3183 54.2938C12.521 54.2903 12.7029 54.3384 12.8944 54.4514C13.3006 54.6911 13.7374 55.2102 14.4308 56.1458L14.4418 56.1607L14.4549 56.1738L14.4879 56.2068L14.4879 56.2068L14.4924 56.2112C16.3202 58.6178 18.1116 60.2125 20.1002 61.2072C23.873 63.16 28.2728 64.1409 33.1609 64.1409C33.8421 64.1409 34.5231 64.1243 35.2206 64.0911L35.2225 64.091C39.7035 63.842 43.3451 62.8635 44.7766 62.3081C50.7999 60.078 55.5496 56.4134 58.9163 51.3966L58.9164 51.3965C62.1661 46.5469 63.9609 40.6545 64.2267 33.927L64.2267 33.9262C64.4262 28.4244 63.3466 23.1607 61.1755 19.069Z" fill="#EE2E24" stroke="#EE2E24" stroke-width="0.5"/>
<path d="M52.1737 31.5073L52.1907 31.5096C52.8857 31.6055 53.4032 32.0001 53.7635 32.4097C54.121 32.8162 54.3382 33.253 54.4367 33.4795C55.7822 36.275 55.9089 39.6543 54.7857 42.7819C53.9065 45.4748 52.2668 47.9424 49.7819 50.3416L49.7802 50.3432C46.4951 53.4569 42.6202 55.6177 38.5816 56.5916L38.5814 56.5916C36.794 57.0206 34.9625 57.2497 33.1299 57.2498M52.1737 31.5073L33.1291 56.9998M52.1737 31.5073H52.1565H52.1565H52.1564H52.1563H52.1562H52.1561H52.1561H52.156H52.1559H52.1558H52.1557H52.1556H52.1556H52.1555H52.1554H52.1553H52.1552H52.1551H52.1551H52.155H52.1549H52.1548H52.1547H52.1546H52.1546H52.1545H52.1544H52.1543H52.1542H52.1541H52.1541H52.154H52.1539H52.1538H52.1537H52.1536H52.1536H52.1535H52.1534H52.1533H52.1532H52.1531H52.1531H52.153H52.1529H52.1528H52.1527H52.1526H52.1526H52.1525H52.1524H52.1523H52.1522H52.1522H52.1521H52.152H52.1519H52.1518H52.1517H52.1517H52.1516H52.1515H52.1514H52.1513H52.1512H52.1512H52.1511H52.151H52.1509H52.1508H52.1507H52.1507H52.1506H52.1505H52.1504H52.1503H52.1502H52.1502H52.1501H52.15H52.1499H52.1498H52.1497H52.1497H52.1496H52.1495H52.1494H52.1493H52.1493H52.1492H52.1491H52.149H52.1489H52.1488H52.1488H52.1487H52.1486H52.1485H52.1484H52.1483H52.1483H52.1482H52.1481H52.148H52.1479H52.1478H52.1478H52.1477H52.1476H52.1475H52.1474H52.1473H52.1473H52.1472H52.1471H52.147H52.1469H52.1468H52.1468H52.1467H52.1466H52.1465H52.1464H52.1463H52.1463H52.1462H52.1461H52.146H52.1459H52.1458H52.1458H52.1457H52.1456H52.1455H52.1454H52.1454H52.1453H52.1452H52.1451H52.145H52.1449H52.1449H52.1448H52.1447H52.1446H52.1445H52.1444H52.1444H52.1443H52.1442H52.1441H52.144H52.1439H52.1439H52.1438H52.1437H52.1436H52.1435H52.1434H52.1434H52.1433H52.1432H52.1431H52.143H52.1429H52.1429H52.1428H52.1427H52.1426H52.1425H52.1424H52.1424H52.1423H52.1422H52.1421H52.142H52.1419H52.1419H52.1418H52.1417H52.1416H52.1415H52.1415H52.1414H52.1413H52.1412H52.1411H52.141H52.141H52.1409H52.1408H52.1407H52.1406H52.1405H52.1405H52.1404H52.1403H52.1402H52.1401H52.14H52.14H52.1399H52.1398H52.1397H52.1396H52.1395H52.1395H52.1394H52.1393H52.1392H52.1391H52.139H52.139H52.1389H52.1388H52.1387H52.1386H52.1385H52.1385H52.1384H52.1383H52.1382H52.1381H52.1381H52.138H52.1379H52.1378H52.1377H52.1376H52.1376H52.1375H52.1374H52.1373H52.1372H52.1371H52.1371H52.137H52.1369H52.1368H52.1367H52.1366H52.1366H52.1365H52.1364H52.1363H52.1362H52.1361H52.1361H52.136H52.1359H52.1358H52.1357H52.1356H52.1356H52.1355H52.1354H52.1353H52.1352H52.1351H52.1351H52.135H52.1349H52.1348H52.1347H52.1347H52.1346H52.1345H52.1344H52.1343H52.1342H52.1342H52.1341H52.134H52.1339H52.1338H52.1337H52.1337H52.1336H52.1335H52.1334H52.1333H52.1332H52.1332H52.1331H52.133H52.1329H52.1328H52.1327H52.1327H52.1326H52.1325H52.1324H52.1323H52.1322H52.1322H52.1321H52.132H52.1319H52.1318H52.1317H52.1317H52.1316H52.1315H52.1314H52.1313H52.1312H52.1312H52.1311H52.131H52.1309H52.1308H52.1308H52.1307H52.1306H52.1305H52.1304H52.1303H52.1303H52.1302H52.1301H52.13H52.1299H52.1298H52.1298H52.1297H52.1296H52.1295H52.1294H52.1293H52.1293H52.1292H52.1291H52.129H52.1289H52.1288H52.1288H52.1287H52.1286H52.1285H52.1284H52.1283H52.1283H52.1282H52.1281H52.128H52.1279H52.1278H52.1278H52.1277H52.1276H52.1275H52.1274H52.1273H52.1273H52.1272H52.1271H52.127H52.1269H52.1269H52.1268H52.1267H52.1266H52.1265H52.1264H52.1264H52.1263H52.1262H52.1261H52.126H52.1259H52.1259H52.1258H52.1257H52.1256H52.1255H52.1254H52.1254M52.1737 31.5073H52.1254M33.1299 57.2498C33.1296 57.2498 33.1294 57.2498 33.1291 57.2498V56.9998M33.1299 57.2498C33.1301 57.2498 33.1303 57.2498 33.1305 57.2498L33.1291 56.9998M33.1299 57.2498C30.6082 57.264 28.1015 56.8198 25.7385 55.9606L25.7377 55.9603C23.7898 55.2441 22.3214 54.3627 21.2808 53.2489L21.2788 53.2468L21.2788 53.2468C19.7431 51.5647 19.1323 49.4435 19.6061 47.415C20.0802 45.3853 21.589 43.7682 23.7084 42.9635M33.1291 56.9998C30.6374 57.0139 28.1599 56.5751 25.8239 55.7256C23.8985 55.0177 22.4686 54.1542 21.4635 53.0782C19.9769 51.4501 19.3965 49.4114 19.8495 47.4719C20.3026 45.5323 21.7466 43.975 23.7994 43.1964M23.7084 42.9635C23.7077 42.9638 23.7069 42.9641 23.7061 42.9644L23.7994 43.1964M23.7084 42.9635C25.0492 42.4248 26.4408 42.2818 27.6067 42.2107C32.1419 41.9272 36.3789 41.6447 40.556 40.0187L40.5572 40.0182C43.1939 39.0084 46.788 37.0675 49.1114 33.496C49.6327 32.5807 50.2094 32.0626 50.7545 31.7841C51.2944 31.5084 51.7847 31.4773 52.1254 31.5073M23.7084 42.9635C23.7092 42.9632 23.71 42.9629 23.7108 42.9626L23.7994 43.1964M23.7994 43.1964C25.1019 42.6726 26.461 42.531 27.6219 42.4602C32.1522 42.1771 36.4278 41.8939 40.6466 40.2517M40.6466 40.2517C43.3082 39.2323 46.9608 37.2645 49.3251 33.626C50.3303 31.8564 51.5053 31.7006 52.1141 31.7573M40.6466 40.2517L52.1565 31.7573H52.1141M40.6466 40.2517L52.1254 31.5073M52.1141 31.7573V31.5073H52.1142H52.1142H52.1143H52.1144H52.1145H52.1146H52.1147H52.1147H52.1148H52.1149H52.115H52.1151H52.1152H52.1152H52.1153H52.1154H52.1155H52.1156H52.1157H52.1157H52.1158H52.1159H52.116H52.1161H52.1162H52.1162H52.1163H52.1164H52.1165H52.1166H52.1166H52.1167H52.1168H52.1169H52.117H52.1171H52.1171H52.1172H52.1173H52.1174H52.1175H52.1176H52.1176H52.1177H52.1178H52.1179H52.118H52.1181H52.1181H52.1182H52.1183H52.1184H52.1185H52.1186H52.1186H52.1187H52.1188H52.1189H52.119H52.1191H52.1191H52.1192H52.1193H52.1194H52.1195H52.1196H52.1196H52.1197H52.1198H52.1199H52.12H52.1201H52.1201H52.1202H52.1203H52.1204H52.1205H52.1205H52.1206H52.1207H52.1208H52.1209H52.121H52.121H52.1211H52.1212H52.1213H52.1214H52.1215H52.1215H52.1216H52.1217H52.1218H52.1219H52.122H52.122H52.1221H52.1222H52.1223H52.1224H52.1225H52.1225H52.1226H52.1227H52.1228H52.1229H52.123H52.123H52.1231H52.1232H52.1233H52.1234H52.1235H52.1235H52.1236H52.1237H52.1238H52.1239H52.124H52.124H52.1241H52.1242H52.1243H52.1244H52.1244H52.1245H52.1246H52.1247H52.1248H52.1249H52.1249H52.125H52.1251H52.1252H52.1253H52.1254M52.1141 31.7573L52.1372 31.5083C52.1333 31.508 52.1293 31.5076 52.1254 31.5073M52.173 41.8354L52.164 41.8443L52.1455 41.9011C51.4106 44.1473 50.0213 46.2514 47.8497 48.339C44.92 51.1283 41.476 53.0446 37.9122 53.9111C34.0637 54.8347 30.1788 54.6516 26.675 53.3675C25.1359 52.7938 24.0021 52.1175 23.3036 51.3655C22.3866 50.3674 22.0265 49.1614 22.2873 48.053C22.546 46.9532 23.4 46.0388 24.6674 45.5501C24.6868 45.5461 24.709 45.5393 24.7324 45.5277C24.7441 45.5218 24.7544 45.5156 24.7631 45.5096C25.7332 45.1266 26.8163 45.0165 27.7779 44.9608L27.7792 44.9607C32.2616 44.6779 36.9576 44.38 41.5294 42.5944C46.9678 40.5244 49.909 37.3241 51.4232 34.979C51.4413 34.9564 51.4537 34.9352 51.4605 34.9234C51.4711 34.9048 51.4809 34.8852 51.4873 34.8724L51.4882 34.8704L51.4883 34.8704L51.4906 34.8656C51.5641 34.7105 51.6666 34.5631 51.7885 34.4283C51.8214 34.4821 51.8502 34.5376 51.8752 34.595C51.889 34.642 51.912 34.6747 51.9229 34.6892C51.9263 34.6936 51.9297 34.6979 51.9331 34.7021C52.944 36.8158 53.0421 39.4083 52.173 41.8354Z" fill="#EE2E24" stroke="#EE2E24" stroke-width="0.5"/>
</g>
<defs>
<clipPath id="clip0">
<rect width="64" height="64" fill="white"/>
</clipPath>
</defs>
</svg>
