<svg id="Слой_1" data-name="Слой 1" xmlns="http://www.w3.org/2000/svg" xmlns:xlink="http://www.w3.org/1999/xlink" viewBox="0 0 64 63.79"><defs><style>.cls-1{fill:none;}.cls-2{clip-path:url(#clip-path);}.cls-3{fill:#ee2e24;}</style><clipPath id="clip-path" transform="translate(0 -0.11)"><rect class="cls-1" width="64" height="64"/></clipPath></defs><title>stomach</title><g class="cls-2"><path class="cls-3" d="M38.09,20.58a12.82,12.82,0,0,0,1.3-2.88,2.64,2.64,0,0,0-.75-2.93l-.62.77a1.67,1.67,0,0,1,.42,1.92,12.18,12.18,0,0,1-1.21,2.64Zm-.31.56c.09-.16.17-.33.3-.54l-.84-.52c-.13.22-.27.5-.31.57Zm-.67,2c.22-.68.47-1.37.71-2.07l-.93-.33c-.24.7-.49,1.4-.72,2.09Zm-3.56,8a31.17,31.17,0,0,0,3.56-8l-.94-.31a30.34,30.34,0,0,1-3.43,7.72Zm-6.73,7.15a31.93,31.93,0,0,0,6.73-7.14l-.81-.57a31,31,0,0,1-6.48,6.91Zm-4.43,2.34a26.72,26.72,0,0,0,4.43-2.34l-.56-.8A25.32,25.32,0,0,1,22,39.68Zm-3.52,1.77a26.16,26.16,0,0,1,3.51-1.77l-.39-.9a25.45,25.45,0,0,0-3.65,1.84Zm-1.65,1.23a16.83,16.83,0,0,1,1.65-1.23l-.53-.83a17.86,17.86,0,0,0-1.76,1.31Zm-5.51,2.77c2.38-.23,4.08-1.64,5.5-2.76l-.62-.77c-1.45,1.15-2.93,2.35-5,2.55Zm-.75.06.39,0c.12,0,.23,0,.35,0l-.07-1-.38,0-.35,0Zm-3.36.8a7.48,7.48,0,0,1,3.37-.8l-.08-1a8.25,8.25,0,0,0-3.78.93Zm-4,12.26a27.51,27.51,0,0,1,.6-7.32,7.65,7.65,0,0,1,3.4-4.94l-.5-.85A8.63,8.63,0,0,0,3.25,51.9a27.93,27.93,0,0,0-.63,7.59Zm0,0v0h-1v0ZM1.84,61.31A1.81,1.81,0,0,0,3.6,59.5h-1a.82.82,0,0,1-.81.82Zm0,0h0v-1h0ZM0,59.54a1.79,1.79,0,0,0,1.79,1.77v-1a.81.81,0,0,1-.81-.8Zm5.8-15.41A11.54,11.54,0,0,0,.63,51.79,30.49,30.49,0,0,0,0,59.54l1,0A30.34,30.34,0,0,1,1.58,52a10.64,10.64,0,0,1,4.74-7Zm4.87-1.29a10.82,10.82,0,0,0-4.87,1.29l.5.85a9.77,9.77,0,0,1,4.46-1.15Zm.71-.06-.37,0-.33,0,.07,1,.36,0,.34,0Zm3.58-2c-1.26,1-2.32,1.86-3.59,2l.09,1a8,8,0,0,0,4.12-2.21Zm2-1.48a18.21,18.21,0,0,0-2,1.49l.64.75a17.63,17.63,0,0,1,1.9-1.41Zm4-2a31,31,0,0,0-4,2l.54.83a29.48,29.48,0,0,1,3.84-2Zm3.86-2a23,23,0,0,1-3.86,2l.4.9a23.57,23.57,0,0,0,4-2.09ZM30.63,29a27,27,0,0,1-5.84,6.26l.57.81a28.43,28.43,0,0,0,6.07-6.5Zm3.09-7A27.47,27.47,0,0,1,30.62,29l.82.56a28.59,28.59,0,0,0,3.21-7.3Zm.75-2.19c-.26.74-.51,1.48-.75,2.19l.93.32c.24-.72.49-1.45.75-2.18Zm.05-.13,0,.07,0,.07a1.08,1.08,0,0,0,0,.16h1v.08a.11.11,0,0,0,0,.05l0,0v0Zm.44-.82c-.18.32-.34.6-.44.83l.89.41c.09-.19.22-.43.41-.76Zm1-2a6.89,6.89,0,0,1-.45,1c-.19.4-.4.78-.51,1l.86.48c.11-.21.33-.6.54-1a8,8,0,0,0,.51-1.22ZM29.45,4a27.72,27.72,0,0,0,1.26,5.16,17.87,17.87,0,0,0,5.38,8.17l.61-.78a16.8,16.8,0,0,1-5.06-7.72,25.54,25.54,0,0,1-1.21-5ZM31,2a1.79,1.79,0,0,0-1.57,2l1-.11a.81.81,0,0,1,.7-.91Zm2,1.57A1.79,1.79,0,0,0,31,2l.11,1A.82.82,0,0,1,32,3.7Zm5.56,11.13A13.81,13.81,0,0,1,34.11,8,23.88,23.88,0,0,1,33,3.57l-1,.14a.75.75,0,0,0,0,.11c0,.07,0,.17.05.29s.1.58.19,1a24.23,24.23,0,0,0,.89,3.2c.85,2.46,2.33,5.42,4.81,7.21Zm.11.09-.08-.07a.52.52,0,0,0-.32-.11v1a.49.49,0,0,1-.27-.09l0,0Zm-1,5.53.42.26h0Zm-.31.56-.42-.25,0,0v0ZM36.64,23l-.47-.16Zm-3.5,7.83.41.29h0Zm-6.6,7,.28.4h0Zm-4.36,2.29.2.45h0Zm-3.57,1.81-.27-.42h0ZM16.9,43.2l.31.39h0Zm-5.24,2.66,0,.49h0Zm-.73.06,0-.49h0Zm-3.58.86-.24-.42h0ZM3.11,59.48h0ZM1.83,60.81v.5h0ZM.51,59.53h0Zm5.56-15-.25-.42h0Zm4.67-1.21,0-.5h0Zm.7-.07,0,.49h0Zm3.85-2.1.31.38h0Zm1.95-1.44L17,39.31h0Zm3.9-2-.2-.45h0Zm3.94-2.05.28.41h0Zm6-6.37.4.28h0Zm3.15-7.17L33.72,22h0ZM34.93,20l.47.16,0-.08V20Zm0-.08.44.22h0Zm.43-.8L35,18.85h0Zm1-2.13.48.13.09-.31-.26-.21ZM29.94,4,29.45,4h0Zm2.58-.31L32,3.7h0Zm5.76,11.48-.29.4.13.1h.16Zm0,0L38,15.5l0,0,0,0Z" transform="translate(0 -0.11)"/><path class="cls-3" d="M38.33,15.16s0,0,0,0c-4.71-3.41-5.74-11.36-5.76-11.48A1.3,1.3,0,0,0,29.94,4c0,.36,1.11,8.82,6.45,13a14.11,14.11,0,0,1-1,2.13c-.18.33-.33.59-.43.8a.41.41,0,0,0,0,.08c-.26.73-.5,1.46-.75,2.18A27.89,27.89,0,0,1,31,29.32a28.19,28.19,0,0,1-6,6.37,24,24,0,0,1-3.94,2.05,30.54,30.54,0,0,0-3.9,2,18.15,18.15,0,0,0-1.95,1.44,7.68,7.68,0,0,1-3.85,2.1l-.7.07a10.4,10.4,0,0,0-4.67,1.21C.31,48,.44,55.77.51,59.53a1.29,1.29,0,0,0,1.3,1.28h0A1.31,1.31,0,0,0,3.11,59.5v0c-.11-5.25.34-10.41,4.24-12.7a7.91,7.91,0,0,1,3.58-.86l.73-.06c2.21-.22,3.81-1.52,5.24-2.66a16.76,16.76,0,0,1,1.71-1.26,24.88,24.88,0,0,1,3.57-1.81,26.42,26.42,0,0,0,4.36-2.29,31.08,31.08,0,0,0,6.6-7A30.61,30.61,0,0,0,36.64,23c.23-.69.47-1.39.71-2.08.07-.12.18-.35.31-.56C38.59,18.67,39.86,16.38,38.33,15.16Z" transform="translate(0 -0.11)"/><path class="cls-3" d="M64,33.91a29.66,29.66,0,0,0-3-14.76l-.87.46A28.58,28.58,0,0,1,63,33.87ZM58.71,51.24A33.07,33.07,0,0,0,64,33.91l-1,0a32,32,0,0,1-5.1,16.82ZM44.66,62.07A28.31,28.31,0,0,0,58.71,51.24l-.82-.55A27.31,27.31,0,0,1,44.32,61.15Zm-9.47,1.77a34.2,34.2,0,0,0,9.48-1.77l-.36-.92a33.34,33.34,0,0,1-9.18,1.71Zm-2,0c.68,0,1.35,0,2,0l0-1c-.68,0-1.34,0-2,0ZM20.17,61a28,28,0,0,0,13,2.91v-1A27,27,0,0,1,20.62,60.1Zm-5.61-5a16.23,16.23,0,0,0,5.61,5l.45-.88a15.32,15.32,0,0,1-5.28-4.72Zm0,0h0l.7-.69,0,0Zm0,0,0,0,.7-.7,0,0ZM12,54.36a2,2,0,0,1,.67-.16.71.71,0,0,1,.43.12,6.13,6.13,0,0,1,1.44,1.6l.79-.59a6.9,6.9,0,0,0-1.73-1.86,1.79,1.79,0,0,0-1-.26,2.91,2.91,0,0,0-1,.24Zm-.2,0h0v-1h0ZM10.3,60.33a19,19,0,0,1,.24-3.43,5.68,5.68,0,0,1,.53-1.66,1.73,1.73,0,0,1,.87-.88l-.36-.92a2.75,2.75,0,0,0-1.38,1.33,7,7,0,0,0-.63,1.95,20.63,20.63,0,0,0-.25,3.61ZM8.51,62.12a1.79,1.79,0,0,0,1.79-1.79h-1a.82.82,0,0,1-.81.81ZM6.72,60.33a1.79,1.79,0,0,0,1.79,1.79v-1a.82.82,0,0,1-.81-.81ZM10.66,51a6,6,0,0,0-3.48,4.44,19.74,19.74,0,0,0-.46,4.87h1a18.7,18.7,0,0,1,.44-4.63A5,5,0,0,1,11,51.94Zm6.72,2.79a9.52,9.52,0,0,0-2.44-2.53A4.51,4.51,0,0,0,10.65,51l.36.92a3.52,3.52,0,0,1,3.4.17,8.57,8.57,0,0,1,2.17,2.28Zm.06.1,0,0-.88.44,0,0Zm4.33,3.9a13.09,13.09,0,0,1-4.38-4l-.78.6a14,14,0,0,0,4.72,4.26Zm-.2.45v-.49h.07a.33.33,0,0,1,.14,0A.52.52,0,0,1,22,58a.47.47,0,0,1,.08.27h-1a.5.5,0,0,0,.08.28.5.5,0,0,0,.2.17l.14,0h.09Zm21.84.5a31,31,0,0,1-8.81,1.56,25.59,25.59,0,0,1-12.81-2.5l-.45.88a26.66,26.66,0,0,0,13.3,2.61,32.15,32.15,0,0,0,9.12-1.63Zm17-24.94c-.5,12.25-6.54,21.07-17,24.94l.34.92c10.88-4,17.13-13.22,17.64-25.82ZM57.78,20.9a26,26,0,0,1,2.63,12.92l1,0a26.93,26.93,0,0,0-2.74-13.42Zm-10-7.11a12.8,12.8,0,0,1,10,7.11l.87-.46a13.79,13.79,0,0,0-10.78-7.63Zm-.67,0a4.3,4.3,0,0,1,.66,0l.14-1a7.31,7.31,0,0,0-.8,0Zm-3-.64a5.72,5.72,0,0,0,3,.64l0-1a5,5,0,0,1-2.53-.5ZM37.16,2A14.54,14.54,0,0,0,40,8.86a24.66,24.66,0,0,0,2.19,2.68,10.08,10.08,0,0,0,1.88,1.59l.49-.86a8.39,8.39,0,0,1-1.66-1.42,20.86,20.86,0,0,1-2.09-2.56A13.55,13.55,0,0,1,38.14,2ZM38.82.11A1.78,1.78,0,0,0,37.16,2l1-.07a.8.8,0,0,1,.74-.86Zm1.9,1.66A1.77,1.77,0,0,0,38.82.11l.06,1a.81.81,0,0,1,.86.75ZM45.84,10a6,6,0,0,1-1.13-1A19.67,19.67,0,0,1,43,6.86a11.48,11.48,0,0,1-2.29-5.09l-1,.07a12.31,12.31,0,0,0,2.47,5.59A21.35,21.35,0,0,0,44,9.63a6.65,6.65,0,0,0,1.37,1.22Zm-.21,0a.32.32,0,0,1,.13,0l.11,0a.1.1,0,0,1,.07.05h0l0,0a.81.81,0,0,0-.08-.06L45.74,10l-.14,0v1l-.13,0-.12-.05-.06,0,0,0h0l.08.06a.33.33,0,0,0,.12.05.36.36,0,0,0,.14,0Zm1.49.21c-.31,0-.57,0-.8,0a1.11,1.11,0,0,1-.44-.1l-.5.84a2,2,0,0,0,.84.24,8.38,8.38,0,0,0,.88,0Zm1,0c-.36,0-.69,0-1,0v1a8.63,8.63,0,0,1,.88,0Zm0,0H48v1h.06Zm12.84,9A16.52,16.52,0,0,0,48.17,10.2l-.13,1a15.59,15.59,0,0,1,12,8.45Zm2.54,14.74.5,0h0ZM58.3,51l.41.28h0ZM44.49,61.61l-.17-.46h0Zm-9.33,1.74,0,.49h0ZM20.39,60.54l.23-.44h0ZM15,55.68l.39-.3,0,0,0,0Zm0,0,.35-.35h0Zm0,0-.4.29,0,0,0,0ZM11.78,53.9v.5h.09l.09,0Zm0,0v-.49h-.09l-.09,0Zm-.93-2.42.18.46h0ZM17,54.1l.44-.22,0,0,0,0Zm0,0-.44.22,0,0,0,0Zm4.55,4.12H22v-.31l-.27-.13Zm0,0,.22-.44-.1,0h-.12Zm22,1-.17-.46h0ZM60.9,33.84l.49,0h0ZM58.22,20.67l.43-.23h0ZM47.81,13.3l-.07.49h0Zm-.73,0v.49h0Zm-2.77-.57.25-.42h0ZM37.65,2l.49,0h0Zm2.58-.17-.49,0h0Zm5.37,8.61-.24.43.11.07h.13Zm0,0,.25-.42L45.77,10h-.14Zm1.48.21v.49h0Zm.93,0,0,.49h0Zm.06,0,.07-.48H48.1Zm12.41,8.7.43-.23h0Z" transform="translate(0 -0.11)"/><path class="cls-3" d="M60.51,19.38a16.08,16.08,0,0,0-12.41-8.7H48c-.33,0-.64,0-.93,0a3.29,3.29,0,0,1-1.48-.21s0,0,0,0c-1-.58-5.14-5.28-5.37-8.61A1.29,1.29,0,1,0,37.65,2c.27,4.33,4.86,9.68,6.66,10.72a5.38,5.38,0,0,0,2.77.57,5.7,5.7,0,0,1,.73,0,13.3,13.3,0,0,1,10.41,7.37A26.46,26.46,0,0,1,60.9,33.84c-.5,12.42-6.65,21.43-17.32,25.38-3,1.14-13.54,3.43-22-1h0A13.59,13.59,0,0,1,17,54.13l0,0c-1.22-1.64-2.88-3.9-6.15-2.62-3.62,1.37-3.62,6.62-3.62,8.85a1.3,1.3,0,0,0,2.6,0c0-1.56,0-5.68,1.95-6.43h0c1.28-.5,1.77-.09,3.12,1.73l0,0,0,0a16,16,0,0,0,5.44,4.86A27.53,27.53,0,0,0,33.14,63.4c.67,0,1.34,0,2,0a33.77,33.77,0,0,0,9.33-1.74A27.79,27.79,0,0,0,58.3,51a32.51,32.51,0,0,0,5.18-17.07A29.19,29.19,0,0,0,60.51,19.38Z" transform="translate(0 -0.11)"/><path class="cls-3" d="M51.39,34.74a9,9,0,0,1,.23,6.89l.93.33a10,10,0,0,0-.27-7.65Zm-.08-.26a.52.52,0,0,0,.11.32l.06.07.7-.7,0,0a.58.58,0,0,1,.09.28Zm-.16-.13a1.07,1.07,0,0,1,.2.32l.91-.38a2.1,2.1,0,0,0-.38-.6Zm.26.58a1.65,1.65,0,0,1,.43-.54l-.65-.74a2.73,2.73,0,0,0-.67.86Zm-.14.2a.4.4,0,0,0,.1-.13l0-.06-.88-.44h0v0a.23.23,0,0,1,0-.05Zm-9.8,7.53a19.69,19.69,0,0,0,9.87-7.61l-.83-.53a18.75,18.75,0,0,1-9.39,7.22ZM27.86,45c4.41-.28,9.07-.58,13.61-2.35l-.35-.92c-4.38,1.71-8.89,2-13.32,2.28Zm-2.93.53A9.29,9.29,0,0,1,27.86,45l-.06-1a10.36,10.36,0,0,0-3.24.61Zm-.21.05h.06a.45.45,0,0,0,.17-.05l.12-.08,0,0h0l-.7-.7h0l.1-.07.17,0h0Zm-2,2.27a3.37,3.37,0,0,1,2.21-2.3l-.34-.92a4.33,4.33,0,0,0-2.83,3Zm.94,3a3.34,3.34,0,0,1-.94-3l-1-.22a4.37,4.37,0,0,0,1.17,3.93Zm3.22,1.91a8.39,8.39,0,0,1-3.22-1.91l-.72.67a9.2,9.2,0,0,0,3.6,2.16Zm10.92.52a18.9,18.9,0,0,1-10.92-.52l-.34.92A19.83,19.83,0,0,0,38,54.29Zm9.68-5.42a21.51,21.51,0,0,1-9.68,5.42l.24,1a22.48,22.48,0,0,0,10.12-5.67Zm4.16-6.24a15.19,15.19,0,0,1-4.17,6.24l.69.71A16.29,16.29,0,0,0,52.54,42Zm0,.13a.66.66,0,0,1,0-.18l.05-.08,0,0h0l.35.35.35.34h0l0,0,0,0a.53.53,0,0,0,.09-.29Zm3.08.9a12.18,12.18,0,0,0-.36-9.35l-.89.42a11.16,11.16,0,0,1,.32,8.6Zm-5,7.54a18.47,18.47,0,0,0,5-7.55l-.94-.31A17.43,17.43,0,0,1,49,49.53ZM38.54,56.45a24.86,24.86,0,0,0,11.14-6.21L49,49.53a23.89,23.89,0,0,1-10.69,6Zm-5.43.66a23.12,23.12,0,0,0,5.43-.66l-.23-1a22.82,22.82,0,0,1-5.2.62Zm-7.36-1.29a21.21,21.21,0,0,0,7.36,1.29v-1a20.22,20.22,0,0,1-7-1.22Zm-4.48-2.73a11.32,11.32,0,0,0,4.48,2.73l.34-.92A10.41,10.41,0,0,1,22,52.42Zm-1.71-6a6.57,6.57,0,0,0,1.7,6l.73-.67a5.56,5.56,0,0,1-1.47-5.07Zm4.19-4.56a6.51,6.51,0,0,0-4.19,4.56l1,.23a5.53,5.53,0,0,1,3.58-3.87Zm3.91-.75a12.37,12.37,0,0,0-3.92.76l.37.91a11.68,11.68,0,0,1,3.61-.69Zm12.68-2.14c-4.08,1.58-8.21,1.86-12.68,2.14l.06,1c4.45-.28,8.74-.56,13-2.21Zm8.31-6.34a17.07,17.07,0,0,1-8.31,6.33l.35.92a18,18,0,0,0,8.78-6.71Zm3.2-2.06a2.78,2.78,0,0,0-1.5.3,4.31,4.31,0,0,0-1.72,1.79l.86.48a3.2,3.2,0,0,1,1.31-1.39,1.75,1.75,0,0,1,1-.2Zm0,0H51.8v1h.05Zm2.47,2.09a4.41,4.41,0,0,0-.71-1.12,2.79,2.79,0,0,0-1.7-1l-.13,1a1.77,1.77,0,0,1,1.09.64,3.34,3.34,0,0,1,.55.86Zm-2.49,1.16.45-.21,0-.08-.06-.06Zm0,0h.5v-.1l0-.09ZM51.51,34l.37-.33-.33-.36-.36.32Zm-.54.7.44.22h0Zm0,.07-.35-.35,0,0,0,.05ZM41.29,42.2l-.17-.46h0ZM27.83,44.52l0,.49h0Zm-3.08.57-.19-.46-.09,0-.07.07Zm0,0v-.49h-.09l-.08,0Zm-1.46,6.13-.37.34h0Zm3.41,2-.17.46h0Zm11.21.54.11.48h0Zm9.9-5.54.34.35h0Zm4.29-6.44-.35-.35-.08.08,0,.11Zm0,0-.46-.17,0,.08v.09Zm2.12.74-.46-.17h0Zm-4.86,7.34.34.36h0ZM38.42,56l.12.48h0Zm-5.31.65v-.5h0Zm-7.19-1.26-.17.46h0Zm-4.29-2.61-.37.34h0ZM23.93,43l.17.46h0Zm3.76-.72,0,.49h0Zm12.82-2.18-.17-.46h0Zm8.55-6.52.41.27h0v0Zm2.74-1.84,0,.49h0Zm.05,0,.06-.49h-.06Zm2,1.8-.45.19h0Z" transform="translate(0 -0.11)"/><path class="cls-3" d="M52.08,41.8a.1.1,0,0,1,0,0,15.82,15.82,0,0,1-4.29,6.44,22.08,22.08,0,0,1-9.9,5.54,19.38,19.38,0,0,1-11.21-.54,8.72,8.72,0,0,1-3.41-2,3.62,3.62,0,0,1,1.46-6.13h0a9.49,9.49,0,0,1,3.08-.57c4.42-.28,9-.58,13.46-2.32a19.25,19.25,0,0,0,9.64-7.41.25.25,0,0,1,0-.07,2.06,2.06,0,0,1,.54-.7,1.49,1.49,0,0,1,.29.46s0,0,0,0A9.39,9.39,0,0,1,52.08,41.8Zm1.79-8.24a2.89,2.89,0,0,0-2-1.8H51.8c-.59-.05-1.75.1-2.74,1.84a17.58,17.58,0,0,1-8.55,6.52c-4.15,1.62-8.36,1.9-12.82,2.18a12.09,12.09,0,0,0-3.76.72,5.84,5.84,0,0,0-2.3,9.73,10.83,10.83,0,0,0,4.29,2.61,20.74,20.74,0,0,0,7.19,1.26A22.63,22.63,0,0,0,38.42,56a24.25,24.25,0,0,0,10.92-6.09,18,18,0,0,0,4.86-7.34A11.7,11.7,0,0,0,53.87,33.56Z" transform="translate(0 -0.11)"/></g></svg>