<svg width="64" height="64" viewBox="0 0 64 64" fill="none" xmlns="http://www.w3.org/2000/svg">
<path d="M41.9454 4.19779L41.9454 4.19776C44.3301 1.81257 47.4993 0.5 50.8726 0.5C54.2458 0.5 57.4145 1.81255 59.7998 4.19779C62.185 6.58303 63.4976 9.75175 63.4976 13.125C63.4976 16.4982 62.185 19.667 59.7998 22.0522L32.8531 48.9988L18.3972 52.9414L18.2692 52.9764L18.1753 53.0703L9.24607 61.999L9.59961 62.3525L9.24606 61.999C8.27731 62.9677 6.99237 63.5 5.62256 63.5C4.25223 63.5 2.9673 62.9677 1.99857 61.999C0.000475693 60.0009 0.000475693 56.7491 1.99857 54.751L10.9273 45.8223L11.0212 45.7284L11.0561 45.6003L14.9987 31.1444L41.9454 4.19779ZM8.83988 52.5063L8.48635 52.1528L8.1328 52.5063L3.94285 56.6957L4.29639 57.0493L3.94283 56.6958C3.01661 57.622 3.01661 59.128 3.94283 60.0542C4.39057 60.502 4.98893 60.75 5.62256 60.75C6.25577 60.75 6.85411 60.5019 7.3018 60.0542L11.4912 55.8648L11.8448 55.5112L11.4912 55.1577L8.83988 52.5063ZM13.436 53.2134L13.7896 53.567L14.1431 53.2134L16.8407 50.5153L28.6599 47.292L29.4911 47.0653L28.8819 46.456L17.5415 35.1152L16.9323 34.5059L16.7056 35.3372L13.4822 47.1564L10.7841 49.8545L10.4306 50.208L10.7841 50.5616L13.436 53.2134ZM31.7851 45.4702L32.1387 45.8238L32.4922 45.4703L57.855 20.1075C57.855 20.1075 57.855 20.1075 57.855 20.1075C59.7198 18.2432 60.7476 15.7615 60.7476 13.125C60.7476 10.4885 59.7198 8.00689 57.8551 6.14259C55.9908 4.27777 53.5091 3.25 50.8726 3.25C48.2355 3.25 45.7544 4.27778 43.8896 6.14254L18.5273 31.5048L18.1738 31.8584L18.5273 32.2119L31.7851 45.4702Z" fill="#EE2E24" stroke="#EE2E24"/>
<path d="M29.4878 36.4551L27.5431 34.5107L29.4878 32.566L31.4325 34.5107L29.4878 36.4551Z" fill="#EE2E24" stroke="#EE2E24"/>
<path d="M37.0898 29.5606L37.4434 29.9141L37.7969 29.5606L51.2271 16.1304L51.5806 15.7769L51.2271 15.4233L48.5752 12.7714L48.2217 12.4179L47.8681 12.7714L34.438 26.2016L34.0844 26.5552L34.438 26.9087L37.0898 29.5606ZM37.4434 33.8031L30.1954 26.5552L48.2217 8.52888L55.4697 15.7769L37.4434 33.8031Z" fill="#EE2E24" stroke="#EE2E24"/>
</svg>
