<svg width="64" height="64" viewBox="0 0 64 64" fill="none" xmlns="http://www.w3.org/2000/svg">
<g clip-path="url(#clip0)">
<path d="M57.458 36.6887C57.022 36.6887 56.586 36.7463 56.1617 36.86C55.7208 36.9781 55.3045 37.1522 54.9178 37.3801L50.3927 35.6576C50.6299 34.4571 50.7498 33.2316 50.7498 32.0009C50.7498 28.2809 49.6791 24.7281 47.6433 21.6603L54.5572 14.7464C55.1878 14.9153 55.8382 15.0007 56.5 15.0007C60.6355 15.0007 64 11.6362 64 7.5007C64 3.36534 60.6355 0.000976562 56.5 0.000976562C52.3645 0.000976562 49.0001 3.36534 49.0001 7.5007C49.0001 8.16232 49.0853 8.8127 49.2539 9.44319L42.3401 16.357C40.6928 15.2639 38.9051 14.4521 37.0276 13.9319L37.918 9.64094C38.728 9.53244 39.4766 9.16469 40.0647 8.57695C41.5263 7.11495 41.5263 4.73596 40.0645 3.27372C39.356 2.56547 38.4143 2.17547 37.4128 2.17547C36.4111 2.17547 35.4695 2.56559 34.7615 3.27372C34.053 3.98196 33.6629 4.92371 33.6629 5.92546C33.6629 6.92708 34.053 7.86882 34.7612 8.57695C34.9774 8.79307 35.2154 8.9792 35.47 9.13407L34.5789 13.4277C33.731 13.3118 32.8701 13.2508 31.9997 13.2508C27.0715 13.2508 22.3379 15.2033 18.8426 18.6437L9.99384 12.2524C9.86421 9.61019 7.67384 7.5007 4.99998 7.5007C2.24287 7.5007 0 9.74357 0 12.5006C0 15.2577 2.24287 17.5007 4.99998 17.5007C5.45648 17.5007 5.9036 17.4402 6.33598 17.3202L15.1802 23.708C13.9146 26.2746 13.2498 29.1187 13.2498 32.0007C13.2498 33.5919 13.4547 35.1626 13.8462 36.6781L9.67659 38.0551C9.17759 37.4077 8.48472 36.9432 7.68197 36.7282C7.3641 36.643 7.03697 36.5998 6.70985 36.5998C5.01648 36.5998 3.52774 37.7431 3.08924 39.38C2.55412 41.3772 3.74349 43.4375 5.7406 43.9727C6.05873 44.0579 6.38585 44.1012 6.71297 44.1012C8.40634 44.1012 9.89509 42.958 10.3336 41.3212C10.413 41.026 10.455 40.7267 10.4617 40.4287L14.6307 39.0518C15.5494 41.313 16.9063 43.3933 18.6429 45.1577L12.2518 54.0065C9.60959 54.1364 7.49997 56.3268 7.49997 59.0006C7.49997 61.7576 9.74284 64.0008 12.5002 64.0008C15.2571 64.0008 17.4999 61.7576 17.4999 59.0006C17.4999 58.5441 17.4394 58.097 17.3196 57.6645L23.707 48.8203C26.2739 50.0862 29.1181 50.7508 32 50.7508C35.3091 50.7508 38.4685 49.8937 41.2256 48.3381L44.9973 54.0859C44.5168 54.7163 44.2307 55.5023 44.2307 56.3543C44.2307 58.422 45.9131 60.1041 47.9812 60.1041C50.0488 60.1041 51.7309 58.422 51.7309 56.3543C51.7309 54.2865 50.0488 52.6044 47.9812 52.6044C47.6728 52.6044 47.3736 52.6425 47.0867 52.713L43.316 46.9671C45.2463 45.5054 46.9023 43.6599 48.1702 41.4988L52.6968 43.2218C53.3577 45.2764 55.2795 46.6907 57.4539 46.6904C57.8901 46.6904 58.3263 46.6328 58.7503 46.5191C60.0403 46.1734 61.1184 45.3462 61.7864 44.1896C62.4541 43.033 62.6314 41.6855 62.2856 40.3955C61.7004 38.213 59.7154 36.6887 57.458 36.6887ZM7.91872 40.6741C7.77247 41.22 7.2766 41.6012 6.71285 41.6012C6.60422 41.6012 6.49485 41.5867 6.38772 41.558C5.72198 41.3796 5.32548 40.6927 5.50398 40.0268C5.65023 39.4811 6.1461 39.0998 6.70972 39.0998C6.81835 39.0998 6.92772 39.1143 7.03497 39.1431C7.35747 39.2295 7.62697 39.4363 7.79397 39.7256C7.96097 40.0146 8.00509 40.3515 7.91872 40.6741ZM47.9811 55.1043C48.6702 55.1043 49.2308 55.6649 49.2308 56.3542C49.2308 57.0434 48.6703 57.604 47.9811 57.604C47.2916 57.604 46.7306 57.0433 46.7306 56.3542C46.7306 55.6649 47.2916 55.1043 47.9811 55.1043ZM36.5294 5.04108C36.7652 4.80508 37.079 4.67509 37.4128 4.67509C37.7466 4.67509 38.0606 4.80521 38.2966 5.04108C38.7838 5.52846 38.7838 6.32158 38.2969 6.80883C38.0605 7.04495 37.7466 7.17508 37.4128 7.17508C37.0789 7.17508 36.7651 7.04508 36.5291 6.80883C36.2927 6.5727 36.1629 6.25883 36.1629 5.92508C36.163 5.59133 36.2929 5.27733 36.5294 5.04108ZM59.6211 42.9396C59.2871 43.5178 58.7481 43.9314 58.103 44.1043C57.8899 44.1614 57.6714 44.1904 57.4537 44.1904C56.3258 44.1906 55.3338 43.4282 55.0418 42.3396C55.0188 42.253 55.0005 42.1676 54.987 42.0856C54.9153 41.6456 54.6147 41.2771 54.1979 41.1185L48.0419 38.7752C47.4453 38.548 46.7738 38.8068 46.4838 39.3753C45.1889 41.9133 43.3007 44.0046 41.0366 45.5189C40.9956 45.5398 40.9553 45.5626 40.916 45.5883C40.8778 45.6133 40.842 45.6402 40.8076 45.6683C38.2356 47.3263 35.1985 48.2508 31.9997 48.2508C29.1741 48.2508 26.3909 47.5141 23.9512 46.1203C23.3963 45.8031 22.6919 45.9558 22.3179 46.4738L14.9086 56.7328C14.6468 57.0949 14.5986 57.5692 14.7813 57.9767C14.9263 58.2993 14.9998 58.6438 14.9998 59.0006C14.9998 60.3791 13.8784 61.5008 12.5001 61.5008C11.1215 61.5008 9.99984 60.3793 9.99984 59.0006C9.99996 57.622 11.1216 56.5005 12.5002 56.5005C12.5845 56.5005 12.6701 56.5049 12.7553 56.5135C13.1982 56.5583 13.6332 56.3635 13.8944 56.0018L21.3065 45.7394C21.6803 45.2219 21.6042 44.5059 21.1298 44.0787C17.7106 40.9997 15.7497 36.5973 15.7497 32.0007C15.7497 29.1747 16.4866 26.3916 17.8803 23.9524C18.1972 23.3976 18.0448 22.693 17.5268 22.319L7.2676 14.9093C6.9056 14.6478 6.43122 14.5994 6.02348 14.7824C5.70085 14.9273 5.35673 15.0007 4.99998 15.0007C3.62161 15.0007 2.49999 13.8791 2.49999 12.5006C2.49999 11.1222 3.62161 10.0007 4.99998 10.0007C6.37835 10.0007 7.49997 11.1222 7.49997 12.5006C7.49997 12.5854 7.4956 12.6714 7.48697 12.7561C7.4421 13.1999 7.63709 13.6342 7.99872 13.8954L18.2612 21.307C18.7786 21.6808 19.4945 21.6044 19.9218 21.1302C23.0007 17.7112 27.403 15.7504 31.9999 15.7504C33.1082 15.7504 34.1996 15.8602 35.2624 16.0758C35.2762 16.0792 35.2897 16.0837 35.3039 16.0865C35.3115 16.088 35.3187 16.0887 35.3264 16.09C37.6345 16.5679 39.8078 17.5449 41.7311 18.9852C42.2286 19.3578 42.9247 19.3083 43.3641 18.8684L51.564 10.6683C51.9157 10.3168 52.0254 9.79069 51.8438 9.32794C51.6158 8.74645 51.5 8.13157 51.5 7.50045C51.5 4.74359 53.7429 2.50072 56.5 2.50072C59.2569 2.50072 61.5 4.74359 61.5 7.50045C61.5 10.2574 59.2569 12.5004 56.5 12.5004C55.8689 12.5004 55.2539 12.3847 54.6724 12.1563C54.2098 11.9748 53.6834 12.0846 53.3318 12.4361L45.1316 20.6364C44.6921 21.076 44.6423 21.7719 45.0151 22.2695C47.1312 25.095 48.2498 28.46 48.2498 32.0007C48.2498 33.396 48.0723 34.7829 47.7222 36.123C47.5608 36.7403 47.8907 37.3801 48.4868 37.6071L54.6415 39.9498C55.0593 40.109 55.5297 40.033 55.8759 39.7506C56.15 39.5271 56.464 39.367 56.8085 39.2747C57.0219 39.2176 57.2404 39.1886 57.4579 39.1886C58.5859 39.1886 59.578 39.951 59.8705 41.0426C60.0435 41.6877 59.9549 42.3613 59.6211 42.9396Z" fill="#EE2E24" stroke="#EE2E24" stroke-width="0.5"/>
<path d="M26.833 20.5495C26.488 19.9518 25.7239 19.7468 25.1256 20.0919C22.1796 21.7927 19.9773 24.511 18.925 27.7463C18.7113 28.4028 19.0705 29.1081 19.727 29.3216C19.8553 29.3634 19.9857 29.3834 20.114 29.3834C20.6406 29.3834 21.1306 29.0478 21.3024 28.5198C22.1634 25.8725 23.9652 23.6484 26.3755 22.257C26.9734 21.9119 27.1783 21.1474 26.833 20.5495Z" fill="#EE2E24" stroke="#EE2E24" stroke-width="0.5"/>
<path d="M19.5 30.7092C18.8099 30.7092 18.25 31.2689 18.25 31.9592V32C18.25 32.6904 18.8099 33.25 19.5 33.25C20.1904 33.25 20.75 32.6904 20.75 32V31.9592C20.75 31.2689 20.1904 30.7092 19.5 30.7092Z" fill="#EE2E24" stroke="#EE2E24" stroke-width="0.5"/>
<path d="M44.2733 34.6777C43.6165 34.4639 42.9113 34.8235 42.6981 35.4799C41.8375 38.1265 40.036 40.3505 37.6252 41.7423C37.0275 42.0874 36.8224 42.8519 37.1677 43.4497C37.3992 43.8507 37.8193 44.075 38.2514 44.075C38.4635 44.075 38.6784 44.021 38.8752 43.9074C41.8219 42.2063 44.0239 39.4878 45.0755 36.2528C45.2889 35.5964 44.9299 34.8912 44.2733 34.6777Z" fill="#EE2E24" stroke="#EE2E24" stroke-width="0.5"/>
<path d="M44.5 30.75C43.8095 30.75 43.25 31.3096 43.25 32V32.0401C43.25 32.7305 43.8095 33.2901 44.5 33.2901C45.1901 33.2901 45.75 32.7305 45.75 32.0401V32C45.75 31.3096 45.1901 30.75 44.5 30.75Z" fill="#EE2E24" stroke="#EE2E24" stroke-width="0.5"/>
<path d="M35.5935 22.7329C32.8366 22.7329 30.5938 24.9759 30.5938 27.733C30.5938 30.49 32.8366 32.7331 35.5935 32.7331C38.3506 32.7331 40.5937 30.49 40.5937 27.733C40.5937 24.9759 38.3506 22.7329 35.5935 22.7329ZM35.5935 30.2331C34.2151 30.2331 33.0937 29.1116 33.0937 27.733C33.0937 26.3544 34.2151 25.2329 35.5935 25.2329C36.9721 25.2329 38.0937 26.3544 38.0937 27.733C38.0937 29.1116 36.9721 30.2331 35.5935 30.2331Z" fill="#EE2E24" stroke="#EE2E24" stroke-width="0.5"/>
<path d="M27.1562 33.7664C25.0884 33.7664 23.4062 35.4486 23.4062 37.5162C23.4062 39.584 25.0884 41.2662 27.1562 41.2662C29.2241 41.2662 30.9062 39.5841 30.9062 37.5162C30.9062 35.4486 29.2241 33.7664 27.1562 33.7664ZM27.1562 38.7662C26.467 38.7662 25.9062 38.2055 25.9062 37.5162C25.9062 36.827 26.467 36.2663 27.1562 36.2663C27.8455 36.2663 28.4062 36.827 28.4062 37.5162C28.4062 38.2055 27.8455 38.7662 27.1562 38.7662Z" fill="#EE2E24" stroke="#EE2E24" stroke-width="0.5"/>
</g>
<defs>
<clipPath id="clip0">
<rect width="64" height="64" fill="white"/>
</clipPath>
</defs>
</svg>
