<svg width="29" height="30" viewBox="0 0 29 30" fill="none" xmlns="http://www.w3.org/2000/svg">
<path d="M14.1376 0C10.4098 0 6.91287 1.41229 4.24641 3.80814V2.14286C4.24641 0.959429 3.29578 0 2.1232 0C0.950629 0 0 0.959429 0 2.14286V10.7143C0 10.7219 0.000990207 10.7293 0.00113175 10.7369C0.0133048 11.9164 0.973702 12.8571 2.1232 12.8571H9.89116C11.0637 12.8571 12.0144 11.8977 12.0144 10.7143C12.0144 9.53086 11.0637 8.57143 9.89116 8.57143H5.64277C7.61381 5.92571 10.7417 4.28571 14.1376 4.28571C19.9912 4.28571 24.7536 9.09214 24.7536 15C24.7536 20.9079 19.9912 25.7143 14.1376 25.7143C11.302 25.7143 8.63606 24.5999 6.63091 22.5761C5.80187 21.7393 4.45745 21.7393 3.62827 22.5761C2.79909 23.413 2.79909 24.7697 3.62827 25.6066C6.43543 28.4397 10.1677 30 14.1376 30C22.3327 30 29 23.271 29 15C29 6.729 22.3327 0 14.1376 0Z" fill="#4E4D6C"/>
</svg>
