<svg width="27" height="40" viewBox="0 0 27 40" fill="none" xmlns="http://www.w3.org/2000/svg">
<path d="M2.15518 40C2.15518 40 2.69007 33.0816 8.87594 23.0744C13.2399 16.0204 18.5008 18.3054 23.0062 12.5374C25.708 8.98605 27.0906 4.53313 26.8991 0C24.4784 1.63091 21.8223 2.84373 19.0328 3.59204C14.3301 4.89161 7.81442 5.35563 4.44443 8.70357C-2.04379 15.1485 0.930398 25.7961 0.930398 25.7961C1.7425 22.3082 3.11138 18.988 4.9792 15.9758C6.70566 13.6502 9.002 11.8568 11.6246 10.7847C8.11181 14.1782 5.41636 18.3917 3.75823 23.0817C1.39132 30.3866 2.15518 40 2.15518 40Z" fill="#4E4D6C"/>
</svg>
