<svg width="34" height="40" viewBox="0 0 34 40" fill="none" xmlns="http://www.w3.org/2000/svg">
<path fill-rule="evenodd" clip-rule="evenodd" d="M32.5893 31.0616C32.6039 31.0827 32.6178 31.1041 32.6309 31.126C34.9797 35.0352 32.1615 40 27.5993 40H6.62769C2.06254 40 -0.751139 35.0326 1.5961 31.1259C1.60924 31.1041 1.62309 31.0826 1.63772 31.0616L11.2458 17.2119V6.83047C9.87973 6.3468 8.89873 5.04344 8.89873 3.51562C8.89873 1.57711 10.4781 0 12.4194 0H21.8077C23.7489 0 25.3283 1.57711 25.3283 3.51562C25.3283 5.04352 24.3473 6.3468 22.9812 6.83047V17.2119L27.8116 24.1747C27.8247 24.1924 27.8371 24.2104 27.8491 24.2287L32.5893 31.0616ZM6.62769 37.6562H27.5993C30.3272 37.6562 32.0113 34.7016 30.6367 32.3625L26.0723 25.7831L24.3179 24.9072C22.7461 24.1224 20.8694 24.1224 19.2976 24.9072L16.4667 26.3206C13.9085 27.5979 10.8532 27.397 8.49159 25.8248C8.40819 25.7692 8.32299 25.7162 8.2367 25.6652L3.59049 32.3625C2.2151 34.7025 3.90093 37.6562 6.62769 37.6562ZM13.5929 14.0625V16.4062L13.034 18.75L9.57555 23.7353C9.64886 23.7808 9.72177 23.827 9.79352 23.8748C11.4652 24.9877 13.6199 25.1216 15.417 24.2244L18.2479 22.8109C19.9006 21.9858 21.791 21.773 23.5667 22.1716L20.843 18.2455C20.7071 18.0495 20.6341 17.8166 20.6341 17.5781V5.85937C20.6341 5.21219 21.1596 4.6875 21.8077 4.6875C22.4548 4.6875 22.9812 4.1618 22.9812 3.51562C22.9812 2.86945 22.4548 2.34375 21.8077 2.34375H12.4194C11.7723 2.34375 11.2458 2.86945 11.2458 3.51562C11.2458 4.1618 11.7723 4.6875 12.4194 4.6875C13.0675 4.6875 13.5929 5.21219 13.5929 5.85937V7.03125V9.375V11.7187V14.0625Z" fill="#4E4D6C"/>
<path d="M27.5993 37.6562H6.62769C3.90093 37.6562 2.2151 34.7025 3.59049 32.3625L8.2367 25.6652C8.32299 25.7162 8.40819 25.7692 8.49159 25.8248C10.8532 27.397 13.9085 27.5979 16.4667 26.3206L19.2976 24.9072C20.8694 24.1224 22.7461 24.1224 24.3179 24.9072L26.0723 25.7831L30.6367 32.3625C32.0113 34.7016 30.3272 37.6562 27.5993 37.6562Z" fill="#4E4D6C"/>
</svg>
