<svg width="36" height="36" viewBox="0 0 36 36" fill="none" xmlns="http://www.w3.org/2000/svg">
<circle cx="18" cy="18" r="18" fill="#EEEEEE"/>
<path d="M11.1431 30C11.1431 30 11.464 25.849 15.1756 19.8446C17.794 15.6122 20.9505 16.9832 23.6537 13.5224C25.2748 11.3916 26.1044 8.71988 25.9895 6C24.5371 6.97855 22.9434 7.70624 21.2697 8.15523C18.4481 8.93497 14.5386 9.21338 12.5167 11.2221C8.62372 15.0891 10.4082 21.4777 10.4082 21.4777C10.8955 19.3849 11.7168 17.3928 12.8375 15.5855C13.8734 14.1901 15.2512 13.1141 16.8247 12.4708C14.7171 14.5069 13.0998 17.035 12.1049 19.849C10.6848 24.232 11.1431 30 11.1431 30Z" fill="white"/>
</svg>
