<svg width="48" height="58" viewBox="0 0 48 58" fill="none" xmlns="http://www.w3.org/2000/svg">
<path d="M1.41336 8.16093C0.647318 8.26679 0.109826 8.9262 0.0245706 9.69202C-0.315195 24.2382 2.86929 36.1402 9.54727 45.392C13.1852 50.4317 17.738 54.5222 23.2356 57.6413C23.6606 57.9535 24.327 57.9298 24.8227 57.6413C26.088 56.9059 27.3044 56.1226 28.4718 55.2907C29.1878 53.9003 29.708 52.4729 30.0655 51.126C30.4953 49.5767 30.7298 47.9797 30.7636 46.3721C30.7824 44.4042 30.5504 42.442 30.0732 40.5329C29.9702 40.1164 29.8405 39.6807 29.6917 39.2183C28.6732 36.1612 26.6667 32.0951 22.6536 26.9018C16.0591 18.3641 12.888 10.4813 11.4426 5.72607C8.1454 6.89154 4.78957 7.69387 1.41336 8.16093Z" fill="#D1D2D4"/>
<path d="M47.977 9.69202C47.9595 8.9262 47.4111 8.26562 46.6451 8.16093C43.0748 7.67032 39.5536 6.81677 36.1019 5.55187C32.6664 4.29301 28.8652 2.53568 24.7654 0.221206C24.2448 -0.0728321 23.7552 -0.074637 23.2352 0.221206C20.4221 1.81952 17.751 3.15067 15.2266 4.23765C15.511 5.18938 15.8756 6.29586 16.3322 7.53083C18.6543 13.6005 21.8687 19.2884 25.8689 24.4064C30.1147 29.9055 32.3653 34.3689 33.5479 37.9305C33.8317 38.7853 34.0723 39.6539 34.2689 40.5329C34.6545 42.4549 34.8398 44.4118 34.822 46.3721C34.7922 47.651 34.6637 48.9227 34.4389 50.1762C35.883 48.6901 37.2217 47.0962 38.4545 45.392C45.1414 36.1462 48.2999 24.2388 47.977 9.69202Z" fill="#A7A9AC"/>
</svg>
