<svg width="96" height="96" viewBox="0 0 96 96" fill="none" xmlns="http://www.w3.org/2000/svg">
<g clip-path="url(#clip0)">
<path d="M40.898 10.2248L5.67903 72.426C5.11098 74.9822 4.0885 80.2083 4.54293 80.6627C4.99737 81.1171 15.3358 84.4497 20.4483 86.0592H85.4897L90.3181 76.1183L85.4897 59.929L51.9749 8.52069L40.898 10.2248Z" fill="#FDE000" stroke="#FDE000"/>
<path d="M93.6639 83.2752C96.7622 77.9272 96.782 71.553 93.7034 66.2248L62.7995 12.7054C59.7407 7.31793 54.2151 4.12097 48.0185 4.12097C41.822 4.12097 36.2964 7.33766 33.2376 12.6857L2.2942 66.2642C-0.784344 71.6517 -0.764609 78.0653 2.35341 83.4133C5.43196 88.7021 10.9378 91.8793 17.0949 91.8793H78.8238C85.0006 91.8793 90.5459 88.6626 93.6639 83.2752ZM86.9543 79.4073C85.2374 82.3674 82.1983 84.1238 78.804 84.1238H17.0752C13.7204 84.1238 10.701 82.4069 9.0236 79.5059C7.32645 76.5655 7.30671 73.0528 9.00386 70.0927L39.9472 16.5338C41.6246 13.5934 44.6242 11.8568 48.0185 11.8568C51.3931 11.8568 54.4125 13.6132 56.0899 16.5536L87.0135 70.1124C88.6712 72.9936 88.6514 76.4669 86.9543 79.4073Z" fill="#FDE000"/>
<path d="M48.0693 68.1656C44.7867 68.1656 42.0352 70.8855 42.0352 74.1301C42.0352 77.3748 44.7867 80.0947 48.0693 80.0947C51.2312 80.0947 54.1035 77.3748 53.9586 74.2733C54.1035 70.8616 51.376 68.1656 48.0693 68.1656Z" fill="#2C2A44"/>
<path d="M46.5942 26.299C43.7832 27.1123 42.0352 29.6958 42.0352 32.8294C42.1769 34.7191 42.295 36.6327 42.4367 38.5225C42.8383 45.7226 43.2399 52.7792 43.6414 59.9793C43.7832 62.4192 45.6493 64.1894 48.0587 64.1894C50.4681 64.1894 52.3579 62.2996 52.476 59.8358C52.476 58.3527 52.476 56.9892 52.6177 55.4822C52.8776 50.8655 53.161 46.2488 53.4209 41.6322C53.5626 38.6421 53.8224 35.652 53.9642 32.6619C53.9642 31.5855 53.8224 30.6287 53.4209 29.6718C52.2161 26.9927 49.4052 25.6292 46.5942 26.299Z" fill="#2C2A44"/>
</g>
<defs>
<clipPath id="clip0">
<rect width="96" height="96" fill="white"/>
</clipPath>
</defs>
</svg>
