<svg width="1920" height="509" viewBox="0 0 1920 509" fill="none" xmlns="http://www.w3.org/2000/svg">
<rect y="72" width="1920" height="380" fill="#00D581"/>
<path d="M1920 72H0V34.4321C311.5 -15.1574 572.5 -7.64386 960 34.4321C1336.28 75.2902 1545.19 82.8797 1920 34.4321V72Z" fill="#00D581"/>
<mask id="mask0" mask-type="alpha" maskUnits="userSpaceOnUse" x="0" y="0" width="1920" height="509">
<rect y="72" width="1920" height="380" fill="#00D581"/>
<path d="M1920 72H0V34.4321C311.5 -15.1574 572.5 -7.64386 960 34.4321C1336.28 75.2902 1545.19 82.8797 1920 34.4321V72Z" fill="#00D581"/>
</mask>
<g mask="url(#mask0)">
<path d="M288.47 53.117C44.0534 156.286 44.0816 322.1 68.1012 385.425C102.927 450.172 163.573 477.209 287.868 492.151C398.232 505.418 1477.38 519.156 1695.34 463.658C1807.14 435.193 1850.12 366.181 1817.24 217.476C1788.29 86.5578 1637.38 28.6468 1498.39 55.9629C1359.4 83.279 1007.39 27.2947 821.252 -34.3116C635.115 -95.918 428.376 -5.9379 288.47 53.117Z" fill="#01BE6C"/>
<path d="M402.928 73.965C199.386 164.584 199.409 310.228 219.412 365.849C248.413 422.72 298.918 446.468 402.427 459.592C494.334 471.246 1387.98 501.747 1569.5 453C1662.6 427.997 1703.42 348.946 1676.04 218.33C1651.93 103.338 1512.96 50.6928 1395 43C1257 34 1001.62 51.2839 846.612 -2.8283C691.603 -56.9405 519.437 22.0939 402.928 73.965Z" fill="#00AF61"/>
</g>
</svg>
