<svg width="26" height="26" viewBox="0 0 26 26" fill="none" xmlns="http://www.w3.org/2000/svg">
<path d="M14.082 2.16675H6.4987C5.92406 2.16675 5.37296 2.39502 4.96663 2.80135C4.5603 3.20768 4.33203 3.75878 4.33203 4.33341V21.6667C4.33203 22.2414 4.5603 22.7925 4.96663 23.1988C5.37296 23.6051 5.92406 23.8334 6.4987 23.8334H19.4987C20.0733 23.8334 20.6244 23.6051 21.0308 23.1988C21.4371 22.7925 21.6654 22.2414 21.6654 21.6667V9.75008L14.082 2.16675Z" fill="#FF7B80" stroke="#FF7B80" stroke-width="2" stroke-linecap="round" stroke-linejoin="round"/>
<path d="M14.082 2.16675C14.082 5.12822 14.082 9.75008 14.082 9.75008C14.082 9.75008 18.7039 9.75008 21.6654 9.75008" fill="#F54B56"/>
<path d="M14.082 2.16675C14.082 5.12822 14.082 9.75008 14.082 9.75008C14.082 9.75008 18.7039 9.75008 21.6654 9.75008L14.082 2.16675Z" stroke="#F54B56" stroke-width="2" stroke-linecap="round" stroke-linejoin="round"/>
</svg>
