<svg width="56" height="54" viewBox="0 0 56 54" fill="none" xmlns="http://www.w3.org/2000/svg">
<path d="M4.9687 11.1073C2.52307 15.0574 5.91553 23.4515 2.05468 27.9994C-1.80617 32.5474 -0.130845 40.4159 6.27983 42.1503C12.6905 43.8848 10.3592 51.5641 17.2069 51.5641C24.0546 51.5641 24.8558 54.2039 28.2797 53.9874C31.7036 53.7708 30.9699 50.1058 40.8095 50.835C50.649 51.5641 45.2285 44.9638 51.3236 40.4159C57.4187 35.868 54.5047 32.4965 54.5047 27.9994C54.5047 23.0255 58.5843 16.3771 53.2665 13.8505C49.3412 11.9855 47.0744 12.4811 45.7631 6.77602C44.3062 -0.873836 29.2269 -1.02737 25.2931 1.3618C18.0084 5.47661 17.7898 5.83757 14.0017 6.12633C10.2135 6.41509 7.13457 7.60915 4.9687 11.1073Z" fill="#00AF61"/>
</svg>
