<svg width="1920" height="1124" viewBox="0 0 1920 1124" fill="none" preserveAspectRatio="none" xmlns="http://www.w3.org/2000/svg">
<path d="M225.307 -7.84506C-48.6311 258.535 -48.5995 686.662 -21.6787 850.164C17.3529 1017.34 85.3242 1087.15 224.632 1125.73C348.326 1159.98 1551.05 1249.64 1795.34 1106.35C1920.64 1032.85 1975.58 800.478 1938.72 416.525C1906.28 78.4983 1719.24 -76.2551 1560.49 -98.8684C1374.76 -125.324 1031.06 -74.5174 822.439 -233.583C613.82 -392.649 382.111 -160.323 225.307 -7.84506Z" fill="#01BE6C"/>
<path d="M305.695 33.7777C64.2213 268.308 64.2492 645.246 87.9796 789.199C122.386 936.386 182.302 997.849 305.101 1031.82C414.136 1061.97 1474.33 1140.91 1689.67 1014.75C1800.12 950.044 1848.55 745.453 1816.06 407.408C1787.46 109.797 1622.59 -26.4529 1482.65 -46.3624C1318.93 -69.6552 1015.96 -24.9229 832.063 -164.97C648.167 -305.017 443.917 -100.469 305.695 33.7777Z" fill="#00AF61"/>
</svg>
