<svg width="1282" height="698" viewBox="0 0 1282 698" fill="none" xmlns="http://www.w3.org/2000/svg">
<path d="M1075.91 425.273C915.037 226.795 850.492 45.8775 826.772 -41H-251V700H1233C1230.66 691.605 1227.92 682.825 1224.93 673.505C1203.23 611.89 1160.79 529.942 1075.91 425.273Z" fill="#FAFBFB"/>
<path d="M924.89 34.9661C914.101 5.81365 905.971 -19.7912 899.969 -41H816C838.338 45.9947 899.123 227.157 1050.63 425.902C1130.56 530.713 1170.53 612.771 1190.97 674.47C1193.78 683.802 1196.36 692.594 1198.56 701L1282 700.923C1278.08 683.183 1273.29 665.654 1267.64 648.402C1243.78 576.524 1199.11 486.213 1114.61 375.464C1035.05 272.169 971.104 157.408 924.89 34.9661Z" fill="#FAFBFB"/>
</svg>
