<svg width="24" height="36" viewBox="0 0 24 36" fill="none" xmlns="http://www.w3.org/2000/svg">
<path d="M1.71466 36C1.71466 36 2.19606 29.7734 7.76335 20.767C11.6909 14.4184 16.4257 16.4748 20.4806 11.2836C22.9122 8.08745 24.1566 4.07981 23.9842 0C21.8056 1.46782 19.4151 2.55936 16.9045 3.23284C12.6721 4.40245 6.80797 4.82007 3.77499 7.83321C-2.06441 13.6336 0.612358 23.2165 0.612358 23.2165C1.34325 20.0774 2.57524 17.0892 4.25628 14.3782C5.81009 12.2852 7.8768 10.6711 10.2371 9.70627C7.07563 12.7604 4.64972 16.5526 3.1574 20.7735C1.02719 27.348 1.71466 36 1.71466 36Z" fill="#4E4D6C"/>
</svg>
