<svg width="19" height="20" viewBox="0 0 19 20" fill="none" xmlns="http://www.w3.org/2000/svg">
<path d="M9.26255 0C6.82021 0 4.52912 0.941524 2.78213 2.53876V1.42857C2.78213 0.639619 2.1593 0 1.39107 0C0.622826 0 0 0.639619 0 1.42857V7.14286C0 7.1479 0.000648756 7.15286 0.000741494 7.1579C0.00871693 7.94428 0.637942 8.57143 1.39107 8.57143H6.48042C7.24865 8.57143 7.87148 7.93181 7.87148 7.14286C7.87148 6.3539 7.24865 5.71429 6.48042 5.71429H3.69699C4.98836 3.95048 7.03768 2.85714 9.26255 2.85714C13.0977 2.85714 16.2179 6.06143 16.2179 10C16.2179 13.9386 13.0977 17.1429 9.26255 17.1429C7.40473 17.1429 5.65811 16.3999 4.34439 15.0508C3.80122 14.4929 2.9204 14.4929 2.37714 15.0508C1.83389 15.6087 1.83389 16.5131 2.37714 17.071C4.21632 18.9598 6.66162 20 9.26255 20C14.6318 20 19 15.514 19 10C19 4.486 14.6318 0 9.26255 0Z" fill="#4E4D6C"/>
</svg>
