<svg width="37" height="38" viewBox="0 0 37 38" fill="none" xmlns="http://www.w3.org/2000/svg">
<path d="M17.922 0.25C13.2622 0.25 8.89109 2.01536 5.55801 5.01018V2.92857C5.55801 1.44929 4.36972 0.25 2.90401 0.25C1.43829 0.25 0.25 1.44929 0.25 2.92857V13.6429C0.25 13.6523 0.251238 13.6616 0.251415 13.6711C0.266631 15.1455 1.46713 16.3214 2.90401 16.3214H12.614C14.0797 16.3214 15.268 15.1221 15.268 13.6429C15.268 12.1636 14.0797 10.9643 12.614 10.9643H7.30346C9.76726 7.65714 13.6771 5.60714 17.922 5.60714C25.2391 5.60714 31.192 11.6152 31.192 19C31.192 26.3848 25.2391 32.3929 17.922 32.3929C14.3774 32.3929 11.0451 30.9998 8.53864 28.4702C7.50233 27.4241 5.82182 27.4241 4.78534 28.4702C3.74886 29.5162 3.74886 31.2121 4.78534 32.2582C8.29429 35.7996 12.9597 37.75 17.922 37.75C28.1659 37.75 36.5 29.3388 36.5 19C36.5 8.66125 28.1659 0.25 17.922 0.25Z" fill="#4E4D6C"/>
</svg>
