<svg width="32" height="32" viewBox="0 0 32 32" fill="none" xmlns="http://www.w3.org/2000/svg">
<path d="M31.9324 12.1175C31.7738 11.6059 31.3561 11.2291 30.8492 11.14L21.5707 9.51004L17.2228 0.776384C16.9853 0.299275 16.514 0 16 0C15.4861 0 15.0147 0.299275 14.7772 0.776384L10.4291 9.51004L1.15081 11.14C0.643931 11.2289 0.226403 11.6057 0.0675551 12.1175C-0.0912932 12.6292 0.0348277 13.1908 0.394994 13.5748L6.98609 20.6025L5.59985 30.3437C5.5241 30.8758 5.73737 31.4078 6.15324 31.7242C6.56875 32.0402 7.11828 32.0881 7.57828 31.8485L16 27.4581L24.4215 31.8485C24.6162 31.95 24.8266 32 25.0361 32C25.3224 32 25.6068 31.9068 25.8468 31.7244C26.2626 31.408 26.4759 30.876 26.4001 30.3439L25.0141 20.6027L31.6052 13.5748C31.9652 13.1908 32.0913 12.6292 31.9324 12.1175V12.1175ZM22.565 19.093C22.262 19.4162 22.1214 19.8692 22.1852 20.3169L23.2827 28.0295L16.6148 24.5535C16.421 24.4527 16.2107 24.402 16 24.402C15.7895 24.402 15.5788 24.4525 15.3854 24.5535L8.71743 28.0295L9.81503 20.3169C9.87882 19.8692 9.73818 19.416 9.43519 19.093L4.21655 13.5286L11.5627 12.238C11.9893 12.1631 12.3575 11.8831 12.5574 11.4816L16 4.5667L19.4426 11.4818C19.6427 11.8833 20.0107 12.1633 20.4373 12.2382L27.7836 13.5288L22.565 19.093V19.093Z" fill="#4E4D6C"/>
<path d="M11.1351 11.1989L2.7027 12.543L2 13.8871L8.32432 19.2634L7.62162 24.6398V29.5L16.0541 24.6398L23.7838 29V27.328L23.0811 21L28 13.8871L27.2973 12.543L19.5 9L16.0541 3L11.1351 11.1989Z" fill="#4E4D6C"/>
</svg>
