<svg width="27" height="32" viewBox="0 0 27 32" fill="none" xmlns="http://www.w3.org/2000/svg">
<path fill-rule="evenodd" clip-rule="evenodd" d="M25.4714 24.8493C25.4831 24.8661 25.4942 24.8833 25.5047 24.9008C27.3838 28.0281 25.1292 32 21.4795 32H4.70216C1.05003 32 -1.20091 28.0261 0.676879 24.9007C0.687394 24.8832 0.698472 24.8661 0.710177 24.8493L8.39665 13.7695V5.46438C7.30379 5.07744 6.51898 4.03475 6.51898 2.8125C6.51898 1.26169 7.78247 0 9.33548 0H16.8461C18.3992 0 19.6626 1.26169 19.6626 2.8125C19.6626 4.03481 18.8778 5.07744 17.785 5.46438V13.7695L21.6493 19.3398C21.6597 19.3539 21.6697 19.3683 21.6793 19.383L25.4714 24.8493ZM4.70216 30.125H21.4794C23.6618 30.125 25.009 27.7612 23.9094 25.89L20.2579 20.6265L18.8543 19.9258C17.5969 19.2979 16.0955 19.2979 14.8381 19.9258L12.5734 21.0565C10.5268 22.0783 8.08258 21.9176 6.19327 20.6598C6.12655 20.6154 6.05839 20.5729 5.98936 20.5321L2.27239 25.89C1.17208 27.762 2.52075 30.125 4.70216 30.125ZM10.2743 11.25V13.125L9.82718 15L7.06044 18.9883C7.11909 19.0246 7.17742 19.0616 7.23481 19.0998C8.57215 19.9901 10.2959 20.0973 11.7336 19.3795L13.9983 18.2488C15.3205 17.5886 16.8328 17.4184 18.2533 17.7372L16.0744 14.5964C15.9656 14.4396 15.9073 14.2533 15.9073 14.0625V4.6875C15.9073 4.16975 16.3277 3.75 16.8461 3.75C17.3638 3.75 17.785 3.32944 17.785 2.8125C17.785 2.29556 17.3638 1.875 16.8461 1.875H9.33548C8.81781 1.875 8.39665 2.29556 8.39665 2.8125C8.39665 3.32944 8.81781 3.75 9.33548 3.75C9.85397 3.75 10.2743 4.16975 10.2743 4.6875V5.625V7.5V9.375V11.25Z" fill="#4E4D6C"/>
<path d="M21.4794 30.125H4.70216C2.52075 30.125 1.17208 27.762 2.27239 25.89L5.98936 20.5321C6.05839 20.5729 6.12655 20.6154 6.19327 20.6598C8.08258 21.9176 10.5268 22.0783 12.5734 21.0565L14.8381 19.9258C16.0955 19.2979 17.5969 19.2979 18.8543 19.9258L20.2579 20.6265L23.9094 25.89C25.009 27.7612 23.6618 30.125 21.4794 30.125Z" fill="#4E4D6C"/>
</svg>
