<svg width="196" height="62" viewBox="0 0 196 62" fill="none" xmlns="http://www.w3.org/2000/svg">
<path d="M175.118 23.0996C170.08 16.742 166.359 9.4445 164.172 1.63306H161.915V35.748H182.026C181.917 35.362 181.798 34.9562 181.66 34.5307C180.139 30.3787 177.927 26.5139 175.118 23.0996ZM158.154 50.9498C160.282 52.9292 162.964 53.9189 166.606 53.9189C168.778 53.9866 170.931 53.5103 172.871 52.5333C163.509 52.5333 159.57 47.852 158.273 44.2792H154.443C154.443 44.4079 154.443 44.5266 154.532 44.6553C155.181 47.029 156.428 49.1963 158.154 50.9498ZM185.866 35.748H181.976C182.413 37.5223 182.622 39.3446 182.6 41.1715C182.569 42.6605 182.352 44.1399 181.957 45.5757C181.2 48.5716 179.647 51.3073 177.463 53.4933C175.059 55.7696 171.713 57.4521 166.577 57.4521C161.44 57.4521 157.848 55.7696 155.453 53.4933C153.263 51.3103 151.706 48.5738 150.949 45.5757C150.831 45.1204 150.752 44.7048 150.662 44.2792H146.812C147.136 46.1835 147.681 48.0436 148.436 49.8215C149.997 53.6322 152.783 56.8147 156.353 58.8674C159.504 60.5171 163.021 61.3443 166.577 61.2723C170.06 61.3453 173.504 60.5169 176.573 58.8674C180.143 56.8147 182.929 53.6322 184.49 49.8215C185.678 47.0882 186.327 44.151 186.4 41.1715C186.426 39.3518 186.263 37.5344 185.916 35.748H185.866Z" fill="#439539"/>
<path d="M168.09 1.63306C168.367 2.62276 168.743 3.7906 169.248 5.12669C171.418 10.7593 174.417 16.0364 178.145 20.7837C181.212 24.5364 183.624 28.7789 185.281 33.3331C185.568 34.1942 185.786 35.0057 185.954 35.748H195.96V1.63306H168.09Z" fill="#EE3124"/>
<path d="M60.7873 26.138H75.3062L79.265 35.7479H83.4613L68.2002 0L52.4541 35.7479H56.6504L60.7873 26.138ZM68.0913 8.90729L73.8217 22.5651H62.262L68.0913 8.90729ZM107.165 23.5845V1.633H103.384V22.5552C103.384 25.4155 103.384 28.5429 100.672 30.839C99.0664 32.0967 97.0855 32.7801 95.0458 32.7801C93.0061 32.7801 91.0251 32.0967 89.4193 30.839C86.7075 28.5429 86.7075 25.4155 86.7075 22.5552V1.633H82.917V23.5746C82.917 26.4448 83.2238 29.206 85.0646 31.7594C86.2415 33.2573 87.7563 34.4552 89.4851 35.2551C91.214 36.055 93.1076 36.4342 95.0111 36.3615C96.9196 36.4389 98.8191 36.0621 100.553 35.262C102.288 34.4619 103.807 33.2615 104.987 31.7594C106.888 29.206 107.165 26.4448 107.165 23.5746V23.5845ZM27.6225 1.633H23.4262L13.8558 27.7116L4.19632 1.633H0L13.8558 37.7966L27.6225 1.633ZM30.3343 35.7479H34.1149V1.633H30.3343V35.7479ZM127.325 36.3615C131.001 36.3364 134.579 35.1749 137.568 33.0362V28.3351C136.407 29.491 135.071 30.4563 133.609 31.1953C131.647 32.209 129.474 32.7512 127.265 32.7788C125.446 32.7936 123.643 32.4445 121.961 31.7521C120.278 31.0598 118.752 30.0381 117.47 28.7472C116.188 27.4563 115.178 25.9222 114.497 24.2351C113.817 22.548 113.481 20.7419 113.509 18.923C113.509 11.0055 119.338 4.70107 127.216 4.70107C129.257 4.69598 131.276 5.11736 133.144 5.9382C134.783 6.7646 136.277 7.85083 137.568 9.15472V4.45365C134.688 2.21407 131.131 1.02048 127.483 1.06888C117.26 1.06888 109.669 8.64007 109.669 18.8241C109.628 21.1476 110.057 23.4553 110.931 25.6086C111.805 27.7619 113.105 29.7163 114.753 31.3544C116.402 32.9925 118.364 34.2805 120.523 35.141C122.681 36.0014 124.992 36.4166 127.315 36.3615H127.325ZM45.6152 35.7479H49.4058V5.21571H57.6896V1.633H37.3216V5.21571H45.6053L45.6152 35.7479ZM139.023 1.633V5.21571H146.772V35.7479H150.563V5.21571H158.134V1.633H139.023ZM58.8574 46.5752C58.8703 46.257 58.8147 45.9396 58.6945 45.6447C58.5743 45.3497 58.3921 45.084 58.1604 44.8654C57.9287 44.6468 57.6528 44.4805 57.3513 44.3776C57.0499 44.2748 56.7298 44.2378 56.4128 44.2692H54.1662V52.8103H54.9976V48.8516H55.3143L58.2834 52.8103H59.2731L56.304 48.8516C58.3032 48.7328 58.8772 47.6243 58.8772 46.5752H58.8574ZM54.9976 48.1984V44.9521H56.0467C57.0364 44.9521 58.0261 45.16 58.0261 46.5752C58.0261 47.2581 57.7786 48.1984 55.8586 48.1984H54.9976ZM36.1933 52.8103H40.7756V52.1275H36.995V48.3666H40.5777V47.6837H36.995V44.9521H40.7459V44.2692H36.1636L36.1933 52.8103ZM27.8798 44.9521H30.166V52.8103H30.9875V44.9521H33.2737V44.2692H27.8501L27.8798 44.9521ZM13.8558 52.8103H14.6871V44.2692H13.8558V52.8103ZM24.3862 51.0586L17.9136 43.9327V52.84H18.7449V46.0111L25.2175 53.1468V44.2396H24.3862V51.0586ZM47.6243 49.3464H50.6924C50.6759 49.7559 50.5783 50.1581 50.4053 50.5297C50.2323 50.9012 49.9872 51.2348 49.6844 51.5109C49.3815 51.7871 49.0269 52.0004 48.641 52.1385C48.2551 52.2766 47.8456 52.3368 47.4363 52.3155C46.9456 52.327 46.458 52.235 46.0053 52.0455C45.5525 51.856 45.1448 51.5732 44.8087 51.2156C44.4725 50.858 44.2155 50.4335 44.0543 49.9699C43.8932 49.5063 43.8315 49.014 43.8734 48.5249C43.8734 46.3674 45.1897 44.6552 47.2284 44.6552C47.8584 44.6569 48.4777 44.8186 49.0281 45.125C49.5786 45.4313 50.0423 45.8725 50.3757 46.407L51.0091 45.9418C50.6013 45.318 50.0408 44.8087 49.3809 44.4623C48.7209 44.1159 47.9834 43.9438 47.2383 43.9624C44.7839 43.9624 43.0024 45.7538 43.0024 48.5151C42.9665 49.111 43.0572 49.7079 43.2687 50.2663C43.4801 50.8246 43.8075 51.3319 44.2292 51.7545C44.6509 52.1772 45.1574 52.5057 45.7154 52.7184C46.2733 52.9311 46.8699 53.0231 47.466 52.9885C50.4351 52.9885 51.5534 50.732 51.5732 48.6041H47.6144L47.6243 49.3464ZM104.641 44.9521H106.888V52.8103H107.709V44.9521H109.995V44.2692H104.601L104.641 44.9521ZM123 44.2692H120.872V52.8103H123C126.573 52.8103 127.661 50.3262 127.661 48.5348C127.612 46.219 125.999 44.2692 122.95 44.2692H123ZM122.911 52.1275H121.703V44.9521H122.911C125.256 44.9521 126.78 46.3575 126.78 48.5348C126.731 50.4747 125.632 52.1275 122.861 52.1275H122.911ZM60.9754 52.8103H61.8265L63.0141 50.0293H66.5969L67.7845 52.8103H68.6356L64.8055 44.0218L60.9754 52.8103ZM63.3012 49.3464L64.8055 45.8429L66.3098 49.3464H63.3012ZM133.738 44.0218C132.846 44.0316 131.977 44.3056 131.24 44.8092C130.504 45.3128 129.933 46.0233 129.6 46.8511C129.268 47.6789 129.188 48.5867 129.371 49.4599C129.553 50.3331 129.991 51.1325 130.628 51.7571C131.265 52.3817 132.073 52.8034 132.95 52.9691C133.826 53.1348 134.732 53.0369 135.553 52.6879C136.374 52.3388 137.074 51.7542 137.563 51.008C138.051 50.2618 138.308 49.3874 138.301 48.4953C138.305 47.8948 138.188 47.2996 137.956 46.7457C137.724 46.1918 137.382 45.6907 136.951 45.2726C136.52 44.8545 136.008 44.5281 135.448 44.3132C134.887 44.0982 134.289 43.9991 133.689 44.0218H133.738ZM133.738 52.365C132.977 52.3925 132.225 52.1925 131.578 51.7904C130.931 51.3884 130.419 50.8026 130.106 50.108C129.794 49.4134 129.696 48.6414 129.825 47.8907C129.953 47.14 130.303 46.4447 130.828 45.8936C131.354 45.3425 132.032 44.9606 132.776 44.7968C133.52 44.633 134.296 44.6947 135.004 44.974C135.713 45.2532 136.322 45.7374 136.754 46.3647C137.186 46.9919 137.421 47.7337 137.43 48.4953C137.454 48.999 137.375 49.5024 137.197 49.9744C137.02 50.4464 136.747 50.877 136.396 51.2396C136.046 51.6022 135.625 51.8892 135.159 52.0827C134.693 52.2763 134.193 52.3723 133.689 52.365H133.738ZM117.715 49.7423C117.715 50.0788 117.715 52.365 115.528 52.365C113.34 52.365 113.33 50.0788 113.33 49.7423V44.2692H112.499V49.6235C112.499 50.3163 112.568 53.0479 115.528 53.0479C118.487 53.0479 118.497 50.3163 118.497 49.6235V44.2692H117.665L117.715 49.7423ZM97.9802 52.8103H102.553V52.1275H98.7621V48.3666H102.374V47.6837H98.7621V44.9521H102.513V44.2692H97.9802V52.8103ZM78.8196 51.0091L76.3949 44.2692H75.4942L78.8196 53.1765L82.1549 44.2692H81.2543L78.8196 51.0091ZM82.244 52.8103H83.1347L84.3224 50.0293H87.9051L89.0729 52.8103H89.9241L86.1038 44.0218L82.244 52.8103ZM84.5698 49.3464L86.1038 45.8429L87.6082 49.3464H84.5698ZM92.8239 44.2692H92.042V52.8103H95.6247V52.1275H92.8239V44.2692Z" fill="#231F20"/>
</svg>
