<svg width="64" height="64" viewBox="0 0 64 64" fill="none" xmlns="http://www.w3.org/2000/svg">
<path d="M45.7264 5.5345L44.8584 4.59121V5.87305V11.1935V11.6935H45.3584H50.2539H51.3934L50.6218 10.855L45.7264 5.5345ZM42.5609 3.29747V2.79747H42.0609H12.2209C11.5987 2.79747 11.0927 3.30146 11.0927 3.92484V60.0746C11.0927 60.6945 11.596 61.2042 12.2209 61.2042H51.6751C52.2986 61.2042 52.8055 60.6965 52.8055 60.0746V14.4876V13.9876H52.3055H43.7105C43.0758 13.9876 42.5609 13.4732 42.5609 12.8421V3.29747ZM12.2209 0.5H44.2129L55.1012 12.3309V60.0745C55.1012 61.9641 53.5653 63.4999 51.6769 63.4999H12.2209C10.3342 63.4999 8.79688 61.964 8.79688 60.0745V3.92484C8.79688 2.03841 10.3344 0.5 12.2209 0.5Z" fill="#EE2E24" stroke="#EE2E24"/>
<path d="M44.1335 28.2175H37.7819V21.8668C37.7819 21.2503 37.2825 20.75 36.6652 20.75H27.3324C26.7154 20.75 26.2156 21.2502 26.2156 21.8668V28.2175H19.8668C19.2505 28.2175 18.75 28.7179 18.75 29.3339V38.6686C18.75 39.2834 19.2502 39.7853 19.8668 39.7853H26.2175V46.1332C26.2175 46.7481 26.7177 47.25 27.3342 47.25H36.6686C37.2844 47.25 37.7853 46.7482 37.7853 46.1332V39.7813H44.1335C44.7485 39.7813 45.2503 39.2825 45.2503 38.6648V29.3321V29.3319C45.2499 28.7152 44.7481 28.2175 44.1335 28.2175ZM43.0171 37.5484H36.6652C36.0505 37.5484 35.5484 38.0497 35.5484 38.6652V45.0168H28.4491V38.6648C28.4491 38.0496 27.9489 37.5481 27.3324 37.5481H20.9835V30.447H27.3342C27.9508 30.447 28.451 29.9465 28.451 29.3305V22.9832H35.5521V29.3339C35.5521 29.9502 36.0537 30.4504 36.6689 30.4504H43.0171V37.5484Z" fill="#EE2E24" stroke="#EE2E24" stroke-width="0.5"/>
</svg>
