<svg width="64" height="64" viewBox="0 0 64 64" fill="none" xmlns="http://www.w3.org/2000/svg">
<path d="M35.7654 9.4C35.7654 10.2284 36.4369 10.9 37.2654 10.9H41.6654C41.9415 10.9 42.1654 11.1239 42.1654 11.4V17.9333C42.1654 18.2095 41.9415 18.4333 41.6654 18.4333H37.2654C36.4369 18.4333 35.7654 19.1049 35.7654 19.9333V24.3333C35.7654 24.6095 35.5415 24.8333 35.2654 24.8333H28.732C28.4559 24.8333 28.232 24.6095 28.232 24.3333V19.9333C28.232 19.1049 27.5605 18.4333 26.732 18.4333H22.332C22.0559 18.4333 21.832 18.2095 21.832 17.9333V11.4C21.832 11.1239 22.0559 10.9 22.332 10.9H26.732C27.5605 10.9 28.232 10.2284 28.232 9.4V5C28.232 4.72386 28.4559 4.5 28.732 4.5H35.2654C35.5415 4.5 35.7654 4.72386 35.7654 5V9.4ZM39.532 17.3C40.3605 17.3 41.032 16.6284 41.032 15.8V13.5333C41.032 12.7049 40.3605 12.0333 39.532 12.0333H35.132C34.8559 12.0333 34.632 11.8095 34.632 11.5333V7.13333C34.632 6.30491 33.9605 5.63333 33.132 5.63333H30.8654C30.0369 5.63333 29.3654 6.30491 29.3654 7.13333V11.5333C29.3654 11.8095 29.1415 12.0333 28.8654 12.0333H24.4654C23.6369 12.0333 22.9654 12.7049 22.9654 13.5333V15.8C22.9654 16.6284 23.6369 17.3 24.4654 17.3H28.8654C29.1415 17.3 29.3654 17.5239 29.3654 17.8V22.2C29.3654 23.0284 30.0369 23.7 30.8654 23.7H33.132C33.9605 23.7 34.632 23.0284 34.632 22.2V17.8C34.632 17.5239 34.8559 17.3 35.132 17.3H39.532Z" fill="#EE2E24" stroke="#EE2E24"/>
<path d="M46.4328 22.4667C46.4328 23.2951 47.1044 23.9667 47.9328 23.9667H60.8661C61.1423 23.9667 61.3661 24.1905 61.3661 24.4667V63C61.3661 63.2761 61.1423 63.5 60.8661 63.5H3.13281C2.85667 63.5 2.63281 63.2761 2.63281 63V24.4667C2.63281 24.1905 2.85667 23.9667 3.13281 23.9667H16.0661C16.8946 23.9667 17.5661 23.2951 17.5661 22.4667V1C17.5661 0.723859 17.79 0.5 18.0661 0.5H45.9328C46.209 0.5 46.4328 0.723857 46.4328 1V22.4667ZM16.0661 62.3667C16.8946 62.3667 17.5661 61.6951 17.5661 60.8667V26.6C17.5661 25.7716 16.8946 25.1 16.0661 25.1H5.26615C4.43772 25.1 3.76615 25.7716 3.76615 26.6V60.8667C3.76615 61.6951 4.43772 62.3667 5.26615 62.3667H16.0661ZM29.9328 62.3667C30.7612 62.3667 31.4328 61.6951 31.4328 60.8667V43.6667C31.4328 42.8382 30.7612 42.1667 29.9328 42.1667H26.5995C25.7711 42.1667 25.0995 42.8382 25.0995 43.6667V60.8667C25.0995 61.6951 25.7711 62.3667 26.5995 62.3667H29.9328ZM37.3995 62.3667C38.2279 62.3667 38.8995 61.6951 38.8995 60.8667V43.6667C38.8995 42.8382 38.2279 42.1667 37.3995 42.1667H34.0661C33.2377 42.1667 32.5661 42.8382 32.5661 43.6667V60.8667C32.5661 61.6951 33.2377 62.3667 34.0661 62.3667H37.3995ZM43.7995 62.3667C44.6279 62.3667 45.2995 61.6951 45.2995 60.8667V3.13333C45.2995 2.30491 44.6279 1.63333 43.7995 1.63333H20.1995C19.371 1.63333 18.6995 2.30491 18.6995 3.13334V60.8667C18.6995 61.6951 19.3711 62.3667 20.1995 62.3667H22.4661C23.2946 62.3667 23.9661 61.6951 23.9661 60.8667V41.5333C23.9661 41.2572 24.19 41.0333 24.4661 41.0333H39.5328C39.809 41.0333 40.0328 41.2572 40.0328 41.5333V60.8667C40.0328 61.6951 40.7044 62.3667 41.5328 62.3667H43.7995ZM58.7328 62.3667C59.5612 62.3667 60.2328 61.6951 60.2328 60.8667V26.6C60.2328 25.7716 59.5612 25.1 58.7328 25.1H47.9328C47.1044 25.1 46.4328 25.7716 46.4328 26.6V60.8667C46.4328 61.6951 47.1044 62.3667 47.9328 62.3667H58.7328Z" fill="#EE2E24" stroke="#EE2E24"/>
<mask id="path-3-inside-1" fill="white">
<rect x="50" y="29" width="7" height="7" rx="1"/>
</mask>
<rect x="50" y="29" width="7" height="7" rx="1" fill="#EE2E24" stroke="#EE2E24" stroke-width="4" mask="url(#path-3-inside-1)"/>
<mask id="path-4-inside-2" fill="white">
<rect x="50" y="40" width="7" height="7" rx="1"/>
</mask>
<rect x="50" y="40" width="7" height="7" rx="1" fill="#EE2E24" stroke="#EE2E24" stroke-width="4" mask="url(#path-4-inside-2)"/>
<mask id="path-5-inside-3" fill="white">
<rect x="7" y="29" width="7" height="7" rx="1"/>
</mask>
<rect x="7" y="29" width="7" height="7" rx="1" fill="#EE2E24" stroke="#EE2E24" stroke-width="4" mask="url(#path-5-inside-3)"/>
<mask id="path-6-inside-4" fill="white">
<rect x="7" y="40" width="7" height="7" rx="1"/>
</mask>
<rect x="7" y="40" width="7" height="7" rx="1" fill="#EE2E24" stroke="#EE2E24" stroke-width="4" mask="url(#path-6-inside-4)"/>
</svg>
