<svg width="64" height="64" viewBox="0 0 64 64" fill="none" xmlns="http://www.w3.org/2000/svg">
<g clip-path="url(#clip0)">
<path d="M63.8917 29.6327C63.9287 29.5326 63.9501 29.4278 63.9548 29.3209C63.9548 29.2083 63.9365 29.0962 63.9016 28.9893L63.8192 28.7562C62.9474 20.3296 58.7643 12.5945 52.1895 7.25288C51.7196 6.87014 51.2284 6.52442 50.7372 6.16984C50.7127 6.1495 50.6997 6.12082 50.6731 6.10153C50.6465 6.08224 50.6251 6.08432 50.6027 6.07024C45.1667 2.17349 38.6497 0.0725985 31.9611 0.0600839C31.6858 0.0600839 31.4089 0.0600839 31.2029 0.081463C27.6352 0.150815 24.1061 0.829735 20.7673 2.08902C17.8727 -0.16883 13.9437 -0.578163 10.6455 1.03466C7.3474 2.64749 5.25798 6.00037 5.26319 9.67133C5.32733 10.8926 5.61099 12.0919 6.10167 13.2114C5.01186 14.7012 4.0524 16.2817 3.23425 17.9362C3.21809 17.9618 3.2087 17.9894 3.19463 18.016C-4.37674 33.6713 1.92335 52.5085 17.3899 60.4584C32.8559 68.4088 51.8406 62.5692 60.1649 47.3008C62.4447 43.1006 63.7405 38.4373 63.9538 33.6635C63.9871 33.1483 63.9986 32.6232 63.9986 32.0976C63.9986 31.2701 63.9558 30.4498 63.8917 29.6327V29.6327ZM60.7886 24.1523C60.653 24.0319 60.5279 23.8927 60.386 23.7816C58.9907 22.722 57.4091 21.932 55.7233 21.4528C54.1882 21.0675 52.5837 21.0508 51.0407 21.4038C49.7283 21.701 48.3673 21.7078 47.0517 21.4236C44.4987 20.8662 42.4812 20.4266 41.4112 18.7179C39.8787 16.2613 40.5973 12.8089 42.2143 11.5939C42.7472 11.2263 43.4047 11.086 44.0414 11.2039C45.174 11.2967 46.3123 11.1048 47.352 10.6464C48.4585 10.1281 49.4415 9.37985 50.2356 8.45063C50.4374 8.60655 50.6507 8.74681 50.8483 8.90794C55.6675 12.8313 59.1419 18.1604 60.7886 24.1523ZM14.8744 2.19592C19.0006 2.2027 22.3436 5.54567 22.3499 9.67133C22.3499 12.8657 17.5521 20.1789 14.8744 23.8864C12.3355 20.4553 10.1293 16.7896 8.28652 12.9392C7.78437 11.9167 7.48298 10.8076 7.39902 9.67133C7.40372 5.54463 10.7477 2.20061 14.8744 2.19592ZM2.05944 32.0976C2.06361 30.1078 2.26437 28.1226 2.65858 26.1719C2.77278 27.6564 2.96623 28.9773 3.13935 30.1229C3.80106 34.5014 4.42627 38.6292 7.65349 42.4039C9.00299 43.9943 11.2629 46.6532 14.7571 47.0463C18.2513 47.4395 22.6267 45.4293 23.8907 44.8036L24.3757 44.559C25.0473 44.1362 25.8148 43.8906 26.6069 43.8447C27.958 43.9672 29.2094 44.6065 30.1011 45.629C31.9236 47.6465 32.3861 51.015 31.0908 52.8375C30.6757 53.3787 30.1027 53.7771 29.4504 53.9774C28.3339 54.3507 27.3849 55.1073 26.7722 56.1132C25.8696 57.7474 25.7017 59.6877 26.3107 61.4528C12.2464 58.7277 2.08134 46.4237 2.05944 32.0976V32.0976ZM31.9611 61.9992C30.9292 61.9992 29.8983 61.9461 28.8716 61.8402C28.7839 61.7281 28.7026 61.6113 28.628 61.4898C27.9064 60.1549 27.8985 58.5473 28.6077 57.2056C28.993 56.5934 29.5901 56.1445 30.2847 55.9442C31.303 55.5933 32.1916 54.941 32.8314 54.0743C34.6888 51.4624 34.1632 46.9373 31.6889 44.2003C30.402 42.7288 28.5811 41.8319 26.6304 41.7088H26.5829C25.4582 41.7427 24.3621 42.0692 23.4016 42.6563L22.9459 42.8868C20.6124 44.0371 17.2924 45.1743 14.9944 44.9157C12.3423 44.619 10.5006 42.4488 9.27883 41.0117C6.44635 37.701 5.89205 34.0379 5.25172 29.7985C4.56446 26.1719 4.53734 22.4514 5.17037 18.8148C5.7424 17.6567 6.38847 16.5367 7.10545 15.4614C7.14091 15.5324 7.18002 15.6048 7.21235 15.6752C7.28066 15.8108 7.35105 15.9453 7.42562 16.0809C7.53251 16.2827 7.63941 16.4845 7.74631 16.6879C7.81983 16.8245 7.8944 16.9611 7.97053 17.0988C8.08368 17.3016 8.19788 17.5045 8.31312 17.7073C8.39029 17.8418 8.46694 17.9769 8.54516 18.1114C8.66405 18.3143 8.78294 18.5161 8.90287 18.7179C8.98161 18.8503 9.05982 18.9817 9.1396 19.1131C9.26579 19.3264 9.39303 19.5261 9.52026 19.7321C9.59274 19.8489 9.66418 19.9672 9.73353 20.0825C9.89153 20.3359 10.0485 20.5815 10.2054 20.8302C10.2472 20.8944 10.2889 20.9616 10.3295 21.0247C10.5251 21.3277 10.7191 21.6233 10.9094 21.9117C10.9819 22.0186 11.0523 22.1255 11.1232 22.2324C11.2405 22.4086 11.3578 22.5849 11.472 22.7533L11.7254 23.1241C11.8172 23.2596 11.91 23.3952 11.9997 23.5245L12.2558 23.8927C12.335 24.0074 12.4143 24.1195 12.4899 24.2269C12.5655 24.3349 12.651 24.4569 12.7303 24.5669C12.809 24.6769 12.8627 24.7536 12.9258 24.8422L13.1391 25.1368L13.3132 25.3783L13.4832 25.6124L13.6219 25.8001L13.7523 25.9774L13.83 26.0843C13.9254 26.2136 13.9979 26.3106 14.0182 26.3372C14.2195 26.6063 14.536 26.7648 14.8724 26.7648C15.2087 26.7648 15.5252 26.6063 15.7265 26.3372C16.6228 25.1488 24.4857 14.6073 24.4857 9.67133C24.4857 9.35951 24.4664 9.04977 24.4367 8.74212C24.4273 8.64722 24.4122 8.55232 24.4002 8.45741C24.3725 8.24362 24.3397 8.02983 24.2938 7.81656C24.2735 7.70966 24.251 7.60955 24.2276 7.50682C24.178 7.29303 24.1207 7.07976 24.0555 6.86597C24.0289 6.78045 24.0065 6.69389 23.9783 6.60994C23.8824 6.32367 23.7744 6.04052 23.6519 5.7652C23.6284 5.71253 23.6003 5.6583 23.5758 5.61033C23.4689 5.3882 23.3625 5.16815 23.2394 4.95331C23.1863 4.85737 23.1273 4.76455 23.07 4.67017C22.9672 4.50174 22.8603 4.33592 22.7493 4.17271C22.6831 4.07781 22.6158 3.9829 22.5464 3.88957C22.5099 3.84264 22.4792 3.79258 22.4395 3.74669C24.6614 2.99842 26.9657 2.52078 29.3023 2.32419C27.6373 5.46693 27.0934 8.37398 27.715 10.9744C28.1786 12.716 29.0582 14.3195 30.2784 15.6466C31.2832 16.8907 32.0059 17.7876 31.9611 19.2518C31.8693 22.3487 28.372 24.9267 27.0486 25.9007C25.3127 27.1506 23.3724 28.0877 21.3143 28.6707C19.3745 29.3042 17.7012 29.8507 17.0614 31.7602C16.4289 34.2819 17.4676 36.9277 19.6472 38.345C20.9534 39.0505 22.4927 39.1866 23.9027 38.721C25.4472 38.3622 27.0439 38.2856 28.6155 38.4957C30.6445 38.783 32.3939 39.0297 33.2235 40.1914C33.7158 40.8855 33.6902 41.603 33.5943 42.9191C33.3753 44.7822 33.5645 46.6709 34.148 48.4537C34.6351 49.9148 35.3708 52.121 37.1385 52.3755C37.2532 52.3937 37.3695 52.4031 37.4853 52.4031C38.7362 52.4031 39.5017 51.2987 40.3068 50.1369C40.6624 49.6233 41.0546 49.069 41.5244 48.5126C43.7223 52.0637 45.9551 55.027 46.0589 55.1678C46.2607 55.4369 46.5772 55.5949 46.913 55.5949C47.2493 55.5949 47.5658 55.4369 47.7676 55.1678C50.0844 52.0652 52.1962 48.8135 54.0886 45.4351C55.4005 45.8152 56.6499 46.3846 57.7971 47.1256C52.4538 56.3364 42.6095 62.0039 31.9611 61.9992V61.9992ZM51.8938 32.9382C53.4806 34.3533 54.3879 36.3786 54.3874 38.5051C54.3874 39.2732 54.0755 40.7958 52.5946 43.6877C50.9041 46.8211 49.0061 49.8371 46.9119 52.716C45.9071 51.3159 44.178 48.8307 42.6309 46.2188C41.7684 44.7869 40.9982 43.3024 40.324 41.773C39.8219 40.7504 39.5205 39.6413 39.4365 38.5051C39.4412 34.3784 42.7852 31.0344 46.9119 31.0297C47.1429 31.0297 47.3718 31.0401 47.5997 31.061C49.1964 31.2054 50.7034 31.8645 51.8938 32.9382V32.9382ZM61.8252 33.5535C61.6412 37.6155 60.6176 41.5952 58.8181 45.2416C57.6479 44.5017 56.3871 43.9145 55.0678 43.4943C55.8928 41.9503 56.3887 40.2509 56.5232 38.5051C56.5143 34.8404 54.4306 31.4969 51.144 29.8741L51.0767 29.8444C50.8379 29.7292 50.5954 29.6212 50.3477 29.5243C50.1777 29.458 50.0015 29.4064 49.8273 29.3511C49.7204 29.3188 49.6245 29.2787 49.5207 29.2442C49.2454 29.166 48.9654 29.1024 48.6838 29.0497H48.6697C48.4992 29.0179 48.3261 29.0007 48.153 28.9783C45.407 28.5982 42.6314 29.4309 40.5482 31.2596C38.4645 33.0888 37.2793 35.7331 37.3007 38.5051C37.3836 39.9286 37.7429 41.323 38.3582 42.6094C38.9568 43.9724 39.6321 45.3005 40.3809 46.5869C39.7134 47.3175 39.1023 48.097 38.5522 48.9194C38.2586 49.4225 37.8878 49.8762 37.4535 50.2642C37.2397 50.2318 36.8439 49.7761 36.1718 47.7779C35.6816 46.261 35.5278 44.655 35.7223 43.0729C35.9997 41.652 35.727 40.1789 34.9599 38.9514C33.5964 37.0445 31.216 36.7087 28.8997 36.3802C27.0992 36.1341 25.2689 36.2165 23.4981 36.6227C22.1319 36.8839 21.4978 36.9814 20.7725 36.5293C19.4475 35.621 18.7853 34.0144 19.0851 32.436C19.3703 31.5819 20.225 31.2732 21.9687 30.7006C24.2458 30.0473 26.3921 29.0044 28.3131 27.6179C29.8691 26.4764 33.9734 23.4474 34.0969 19.3149C34.1652 17.0539 33.0342 15.6591 31.9408 14.3106C30.9302 13.2281 30.195 11.9188 29.7966 10.4926C29.2293 8.11326 29.9322 5.32301 31.8386 2.19592H31.9611C37.8404 2.20426 43.5877 3.94171 48.4872 7.19187C47.9215 7.82229 47.2368 8.33435 46.4718 8.69884C45.7272 9.02109 44.9132 9.14833 44.1055 9.06907C42.9823 8.93036 41.8487 9.22185 40.9315 9.88513C38.5099 11.7081 37.4248 16.3568 39.6013 19.8478C41.1505 22.3221 43.7968 22.8988 46.6867 23.5287C48.2421 23.8572 49.8497 23.8504 51.4026 23.5084C52.6489 23.2111 53.9483 23.2148 55.1925 23.5204C56.5925 23.924 57.9066 24.582 59.0694 25.4606C60.2771 26.4623 61.1927 27.7701 61.7209 29.2474C61.8085 30.1907 61.8628 31.1366 61.8628 32.0976C61.8628 32.5752 61.8534 33.0586 61.8211 33.5535H61.8252Z" fill="#EE2E24" stroke="#EE2E24" stroke-width="0.5"/>
<path d="M14.8771 12.8749C17.2362 12.8749 19.1488 10.9627 19.1488 8.60321C19.1488 6.2442 17.2362 4.33154 14.8771 4.33154C12.5181 4.33154 10.6055 6.2442 10.6055 8.60321C10.6055 10.9627 12.5181 12.8749 14.8771 12.8749ZM14.8771 6.46738C16.0566 6.46738 17.013 7.4237 17.013 8.60321C17.013 9.78271 16.0566 10.739 14.8771 10.739C13.6976 10.739 12.7413 9.78271 12.7413 8.60321C12.7413 7.4237 13.6976 6.46738 14.8771 6.46738Z" fill="#EE2E24" stroke="#EE2E24" stroke-width="0.5"/>
<path d="M42.6406 37.4372C42.6406 39.7967 44.5533 41.7089 46.9123 41.7089C49.2713 41.7089 51.1839 39.7967 51.1839 37.4372C51.1839 35.0782 49.2713 33.1655 46.9123 33.1655C44.5533 33.1655 42.6406 35.0782 42.6406 37.4372ZM49.0481 37.4372C49.0481 38.6167 48.0918 39.573 46.9123 39.573C45.7328 39.573 44.7765 38.6167 44.7765 37.4372C44.7765 36.2577 45.7328 35.3014 46.9123 35.3014C48.0918 35.3014 49.0481 36.2577 49.0481 37.4372Z" fill="#EE2E24" stroke="#EE2E24" stroke-width="0.5"/>
</g>
<defs>
<clipPath id="clip0">
<rect width="64" height="64" fill="white"/>
</clipPath>
</defs>
</svg>
