<svg width="64" height="64" viewBox="0 0 64 64" fill="none" xmlns="http://www.w3.org/2000/svg">
<path d="M51.3281 22.6665V23.3384H52H54.668C59.4511 23.3384 63.3281 27.2162 63.3281 31.9995C63.3281 36.7829 59.451 40.6616 54.668 40.6616H52H51.3281V41.3335V42.6655C51.3281 43.7678 50.4349 44.6616 49.334 44.6616H14.668C13.5663 44.6616 12.6719 43.7671 12.6719 42.6655V41.3335V40.6616H12H9.334C4.55082 40.6616 0.671875 36.7827 0.671875 31.9995C0.671875 27.2164 4.55072 23.3384 9.334 23.3384H12H12.6719V22.6665V21.3325C12.6719 20.2316 13.5658 19.3384 14.668 19.3384H49.334C50.4356 19.3384 51.3281 20.2309 51.3281 21.3325V22.6665ZM12 39.3374H12.6719V38.6655V25.3325V24.6606H12H9.334C5.28705 24.6606 1.99612 27.9528 1.99612 31.9995C1.99612 36.0463 5.28718 39.3374 9.334 39.3374H12ZM13.9961 42.6655V43.3374H14.668H49.334V42.6655H50.0059V21.3325V20.6606H49.334H14.668H13.9961V21.3325V42.6655ZM51.3281 38.6655V39.3374H52H54.668C58.7148 39.3374 62.0059 36.0463 62.0059 31.9995C62.0059 27.9528 58.7149 24.6606 54.668 24.6606H52H51.3281V25.3325V38.6655Z" fill="#EE2E24" stroke="#EE2E24" stroke-width="1.34375"/>
<path d="M19.3653 39.3276V39.3256H18.6934C18.6753 39.3256 18.6591 39.3263 18.6458 39.3272C18.2911 39.3145 18.0078 39.024 18.0078 38.6655C18.0078 38.3028 18.304 38.0054 18.6699 38.0054H18.67H18.67H18.6701H18.6701H18.6702H18.6702H18.6703H18.6703H18.6704H18.6704H18.6704H18.6705H18.6705H18.6706H18.6706H18.6707H18.6707H18.6708H18.6708H18.6709H18.6709H18.671H18.671H18.671H18.6711H18.6711H18.6712H18.6712H18.6713H18.6713H18.6714H18.6714H18.6715H18.6715H18.6716H18.6716H18.6716H18.6717H18.6717H18.6718H18.6718H18.6719H18.6719H18.672H18.672H18.6721H18.6721H18.6722H18.6722H18.6722H18.6723H18.6723H18.6724H18.6724H18.6725H18.6725H18.6726H18.6726H18.6727H18.6727H18.6728H18.6728H18.6728H18.6729H18.6729H18.673H18.673H18.6731H18.6731H18.6732H18.6732H18.6733H18.6733H18.6734H18.6734H18.6734H18.6735H18.6735H18.6736H18.6736H18.6737H18.6737H18.6738H18.6738H18.6739H18.6739H18.674H18.674H18.674H18.6741H18.6741H18.6742H18.6742H18.6743H18.6743H18.6744H18.6744H18.6745H18.6745H18.6746H18.6746H18.6746H18.6747H18.6747H18.6748H18.6748H18.6749H18.6749H18.675H18.675H18.6751H18.6751H18.6752H18.6752H18.6752H18.6753H18.6753H18.6754H18.6754H18.6755H18.6755H18.6756H18.6756H18.6757H18.6757H18.6757H18.6758H18.6758H18.6759H18.6759H18.676H18.676H18.6761H18.6761H18.6762H18.6762H18.6763H18.6763H18.6763H18.6764H18.6764H18.6765H18.6765H18.6766H18.6766H18.6767H18.6767H18.6768H18.6768H18.6769H18.6769H18.6769H18.677H18.677H18.6771H18.6771H18.6772H18.6772H18.6773H18.6773H18.6774H18.6774H18.6775H18.6775H18.6775H18.6776H18.6776H18.6777H18.6777H18.6778H18.6778H18.6779H18.6779H18.678H18.678H18.6781H18.6781H18.6781H18.6782H18.6782H18.6783H18.6783H18.6784H18.6784H18.6785H18.6785H18.6786H18.6786H18.6787H18.6787H18.6787H18.6788H18.6788H18.6789H18.6789H18.679H18.679H18.6791H18.6791H18.6792H18.6792H18.6793H18.6793H18.6793H18.6794H18.6794H18.6795H18.6795H18.6796H18.6796H18.6797H18.6797H18.6798H18.6798H18.6798H18.6799H18.6799H18.68H18.68H18.6801H18.6801H18.6802H18.6802H18.6803H18.6803H18.6804H18.6804H18.6804H18.6805H18.6805H18.6806H18.6806H18.6807H18.6807H18.6808H18.6808H18.6809H18.6809H18.681H18.681H18.681H18.6811H18.6811H18.6812H18.6812H18.6813H18.6813H18.6814H18.6814H18.6815H18.6815H18.6816H18.6816H18.6816H18.6817H18.6817H18.6818H18.6818H18.6819H18.6819H18.682H18.682H18.6821H18.6821H18.6821H18.6822H18.6822H18.6823H18.6823H18.6824H18.6824H18.6825H18.6825H18.6826H18.6826H18.6827H18.6827H18.6827H18.6828H18.6828H18.6829H18.6829H18.683H18.683H18.6831H18.6831H18.6832H18.6832H18.6833H18.6833H18.6833H18.6834H18.6834H18.6835H18.6835H18.6836H18.6836H18.6837H18.6837H18.6838H18.6838H18.6838H18.6839H18.6839H18.684H18.684H18.6841H18.6841H18.6842H18.6842H18.6843H18.6843H18.6844H18.6844H18.6844H18.6845H18.6845H18.6846H18.6846H18.6847H18.6847H18.6848H18.6848H18.6849H18.6849H18.6849H18.685H18.685H18.6851H18.6851H18.6852H18.6852H18.6853H18.6853H18.6854H18.6854H18.6855H18.6855H18.6855H18.6856H18.6856H18.6857H18.6857H18.6858H18.6858H18.6859H18.6859H18.686H18.686H18.686H18.6861H18.6861H18.6862H18.6862H18.6863H18.6863H18.6864H18.6864H18.6865H18.6865H18.6866H18.6866H18.6866H18.6867H18.6867H18.6868H18.6868H18.6869H18.6869H18.687H18.687H18.6871H18.6871H18.6871H18.6872H18.6872H18.6873H18.6873H18.6874H18.6874H18.6875H18.6875H18.6876H18.6876H18.6876H18.6877H18.6877H18.6878H18.6878H18.6879H18.6879H18.688H18.688H18.6881H18.6881H18.6882H18.6882H18.6882H18.6883H18.6883H18.6884H18.6884H18.6885H18.6885H18.6886H18.6886H18.6887H18.6887H18.6887H18.6888H18.6888H18.6889H18.6889H18.689H18.689H18.6891H18.6891H18.6892H18.6892H18.6892H18.6893H18.6893H18.6894H18.6894H18.6895H18.6895H18.6896H18.6896H18.6897H18.6897H18.6898H18.6898H18.6898H18.6899H18.6899H18.69H18.69H18.6901H18.6901H18.6902H18.6902H18.6903H18.6903H18.6903H18.6904H18.6904H18.6905H18.6905H18.6906H18.6906H18.6907H18.6907H18.6908H18.6908H18.6908H18.6909H18.6909H18.691H18.691H18.6911H18.6911H18.6912H18.6912H18.6913H18.6913H18.6913H18.6914H18.6914H18.6915H18.6915H18.6916H18.6916H18.6917H18.6917H18.6918H18.6918H18.6918H18.6919H18.6919H18.692H18.692H18.6921H18.6921H18.6922H18.6922H18.6923H18.6923H18.6923H18.6924H18.6924H18.6925H18.6925H18.6926H18.6926H18.6927H18.6927H18.6928H18.6928H18.6928H18.6929H18.6929H18.693H18.693H18.6931H18.6931H18.6932H18.6932H18.6933H18.6933H18.6933H18.6934H18.6934H45.3595C45.7254 38.0054 46.0216 38.3028 46.0216 38.6655C46.0216 39.0321 45.7254 39.3276 45.3595 39.3276H19.3653Z" fill="#EE2E24" stroke="#EE2E24" stroke-width="1.34375"/>
<path d="M19.3497 32.6714H45.3438C45.7097 32.6714 46.0059 32.9669 46.0059 33.3335C46.0059 33.6962 45.7098 33.9936 45.3438 33.9936H18.6778H18.6778H18.6777H18.6777H18.6776H18.6776H18.6775H18.6775H18.6774H18.6774H18.6774H18.6773H18.6773H18.6772H18.6772H18.6771H18.6771H18.677H18.677H18.6769H18.6769H18.6768H18.6768H18.6768H18.6767H18.6767H18.6766H18.6766H18.6765H18.6765H18.6764H18.6764H18.6763H18.6763H18.6762H18.6762H18.6762H18.6761H18.6761H18.676H18.676H18.6759H18.6759H18.6758H18.6758H18.6757H18.6757H18.6756H18.6756H18.6756H18.6755H18.6755H18.6754H18.6754H18.6753H18.6753H18.6752H18.6752H18.6751H18.6751H18.675H18.675H18.675H18.6749H18.6749H18.6748H18.6748H18.6747H18.6747H18.6746H18.6746H18.6745H18.6745H18.6744H18.6744H18.6744H18.6743H18.6743H18.6742H18.6742H18.6741H18.6741H18.674H18.674H18.6739H18.6739H18.6738H18.6738H18.6738H18.6737H18.6737H18.6736H18.6736H18.6735H18.6735H18.6734H18.6734H18.6733H18.6733H18.6732H18.6732H18.6732H18.6731H18.6731H18.673H18.673H18.6729H18.6729H18.6728H18.6728H18.6727H18.6727H18.6726H18.6726H18.6726H18.6725H18.6725H18.6724H18.6724H18.6723H18.6723H18.6722H18.6722H18.6721H18.6721H18.672H18.672H18.672H18.6719H18.6719H18.6718H18.6718H18.6717H18.6717H18.6716H18.6716H18.6715H18.6715H18.6714H18.6714H18.6714H18.6713H18.6713H18.6712H18.6712H18.6711H18.6711H18.671H18.671H18.6709H18.6709H18.6708H18.6708H18.6708H18.6707H18.6707H18.6706H18.6706H18.6705H18.6705H18.6704H18.6704H18.6703H18.6703H18.6702H18.6702H18.6702H18.6701H18.6701H18.67H18.67H18.6699H18.6699H18.6698H18.6698H18.6697H18.6697H18.6697H18.6696H18.6696H18.6695H18.6695H18.6694H18.6694H18.6693H18.6693H18.6692H18.6692H18.6691H18.6691H18.6691H18.669H18.669H18.6689H18.6689H18.6688H18.6688H18.6687H18.6687H18.6686H18.6686H18.6685H18.6685H18.6685H18.6684H18.6684H18.6683H18.6683H18.6682H18.6682H18.6681H18.6681H18.668H18.668H18.6679H18.6679H18.6679H18.6678H18.6678H18.6677H18.6677H18.6676H18.6676H18.6675H18.6675H18.6674H18.6674H18.6673H18.6673H18.6673H18.6672H18.6672H18.6671H18.6671H18.667H18.667H18.6669H18.6669H18.6668H18.6668H18.6668H18.6667H18.6667H18.6666H18.6666H18.6665H18.6665H18.6664H18.6664H18.6663H18.6663H18.6662H18.6662H18.6662H18.6661H18.6661H18.666H18.666H18.6659H18.6659H18.6658H18.6658H18.6657H18.6657H18.6656H18.6656H18.6656H18.6655H18.6655H18.6654H18.6654H18.6653H18.6653H18.6652H18.6652H18.6651H18.6651H18.6651H18.665H18.665H18.6649H18.6649H18.6648H18.6648H18.6647H18.6647H18.6646H18.6646H18.6645H18.6645H18.6645H18.6644H18.6644H18.6643H18.6643H18.6642H18.6642H18.6641H18.6641H18.664H18.664H18.6639H18.6639H18.6639H18.6638H18.6638H18.6637H18.6637H18.6636H18.6636H18.6635H18.6635H18.6634H18.6634H18.6634H18.6633H18.6633H18.6632H18.6632H18.6631H18.6631H18.663H18.663H18.6629H18.6629H18.6628H18.6628H18.6628H18.6627H18.6627H18.6626H18.6626H18.6625H18.6625H18.6624H18.6624H18.6623H18.6623H18.6623H18.6622H18.6622H18.6621H18.6621H18.662H18.662H18.6619H18.6619H18.6618H18.6618H18.6617H18.6617H18.6617H18.6616H18.6616H18.6615H18.6615H18.6614H18.6614H18.6613H18.6613H18.6612H18.6612H18.6612H18.6611H18.6611H18.661H18.661H18.6609H18.6609H18.6608H18.6608H18.6607H18.6607H18.6606H18.6606H18.6606H18.6605H18.6605H18.6604H18.6604H18.6603H18.6603H18.6602H18.6602H18.6601H18.6601H18.6601H18.66H18.66H18.6599H18.6599H18.6598H18.6598H18.6597H18.6597H18.6596H18.6596H18.6596H18.6595H18.6595H18.6594H18.6594H18.6593H18.6593H18.6592H18.6592H18.6591H18.6591H18.659H18.659H18.659H18.6589H18.6589H18.6588H18.6588H18.6587H18.6587H18.6586H18.6586H18.6585H18.6585H18.6585H18.6584H18.6584H18.6583H18.6583H18.6582H18.6582H18.6581H18.6581H18.658H18.658H18.658H18.6579H18.6579H18.6578H18.6578H18.6577H18.6577H18.6576H18.6576H18.6575H18.6575H18.6575H18.6574H18.6574H18.6573H18.6573H18.6572H18.6572H18.6571H18.6571H18.657H18.657H18.657H18.6569H18.6569H18.6568H18.6568H18.6567H18.6567H18.6566H18.6566H18.6565H18.6565H18.6564H18.6564H18.6564H18.6563H18.6563H18.6562H18.6562H18.6561H18.6561H18.656H18.656H18.6559H18.6559H18.6559H18.6558H18.6558H18.6557H18.6557H18.6556H18.6556H18.6555H18.6555H18.6554H18.6554H18.6554H18.6553H18.6553H18.6552H18.6552H18.6551H18.6551H18.655H18.655H18.6549H18.6549H18.6549H18.6548H18.6548H18.6547H18.6547H18.6546H18.6546H18.6545H18.6545H18.6544H18.6544H18.6544H18.6543C18.2883 33.9936 17.9922 33.6962 17.9922 33.3335C17.9922 32.975 18.2755 32.6845 18.6302 32.6718C18.6435 32.6727 18.6597 32.6734 18.6778 32.6734H19.3497V32.6714Z" fill="#EE2E24" stroke="#EE2E24" stroke-width="1.34375"/>
</svg>
