<svg width="64" height="64" viewBox="0 0 64 64" fill="none" xmlns="http://www.w3.org/2000/svg">
<g clip-path="url(#clip0)">
<path d="M46.2006 9.70725C45.2615 3.66729 40.0001 0 31.9983 0C23.9964 0 18.7348 3.66729 17.7957 9.70725C13.6927 13.5961 11.3477 19.0282 11.3477 24.684V62.5388C11.3477 63.3458 12.0018 64 12.8088 64C13.6159 64 14.27 63.3458 14.27 62.5388V24.684C14.27 20.9331 15.4721 17.2964 17.6436 14.2965V29.4612C17.6436 32.871 18.8396 36.0064 20.833 38.4717C20.8645 38.5157 20.899 38.558 20.9358 38.5989C23.5709 41.7834 27.5518 43.8157 31.9983 43.8157C36.413 43.8157 40.3679 41.812 43.0033 38.6668C43.0795 38.5921 43.1456 38.5105 43.2021 38.424C45.1724 35.9661 46.3529 32.8492 46.3529 29.4613V14.2965C48.5243 17.2964 49.7265 20.9331 49.7265 24.684V62.5388C49.7265 63.3458 50.3806 64 51.1877 64C51.9947 64 52.6488 63.3458 52.6488 62.5388V24.684C52.6488 19.0282 50.3036 13.5961 46.2006 9.70725ZM20.5658 11.7164C20.5658 3.77921 28.5609 2.92237 31.9983 2.92237C35.4356 2.92237 43.4305 3.77921 43.4305 11.7164V29.4612C43.4305 31.5928 42.8424 33.589 41.8223 35.2991C39.1758 32.7719 35.6871 31.3524 31.9983 31.3524C28.3098 31.3524 24.8207 32.7719 22.1742 35.2992C21.1541 33.5892 20.566 31.5929 20.566 29.4612V11.7164H20.5658ZM23.9903 37.6099C26.1194 35.4772 28.9759 34.2748 31.9983 34.2748C35.0209 34.2748 37.8773 35.4772 40.0062 37.6099C37.942 39.6388 35.1145 40.8934 31.9983 40.8934C28.8822 40.8932 26.0547 39.6386 23.9903 37.6099Z" fill="#EE2E24" stroke="#EE2E24" stroke-width="0.5"/>
<path d="M19 15.5L27 8.5L35 10.5L42.5 6" stroke="#EE2E24" stroke-width="3" stroke-linejoin="round"/>
</g>
<defs>
<clipPath id="clip0">
<rect width="64" height="64" fill="white"/>
</clipPath>
</defs>
</svg>
