<svg id="Слой_1" data-name="Слой 1" xmlns="http://www.w3.org/2000/svg" xmlns:xlink="http://www.w3.org/1999/xlink" viewBox="0 0 64 64"><defs><style>.cls-1{fill:none;}.cls-2{clip-path:url(#clip-path);}.cls-3{fill:#ee2e24;}</style><clipPath id="clip-path"><rect class="cls-1" width="64" height="64"/></clipPath></defs><title>pool</title><g class="cls-2"><path class="cls-3" d="M22.36,21.31a5,5,0,0,0,.81-7.4,18.32,18.32,0,0,1-1.44-1.75,4.77,4.77,0,0,0-5.5-1.81c-3.07.74-6.16,1.4-9.18,2A1,1,0,0,1,6,11.56a1.12,1.12,0,0,1,.12-.84,1.09,1.09,0,0,1,.69-.48l6.93-1.5,6-1.29c.29-.06.53-.08,1,.34,3.16,2.84,6.55,5.89,10,8.92C33.22,19,35,20.55,36.47,22l1.32,1.22a21.7,21.7,0,0,0-5.95,2.87c-2.46,1.56-4.59,2.9-9.09,2.9a13.8,13.8,0,0,1-8-2.24ZM39,7.48a5,5,0,0,1,9.2.55A4.82,4.82,0,0,1,48,11.79a4.95,4.95,0,0,1-9.15-.51A4.91,4.91,0,0,1,39,7.48Zm53.33-7V5.77H77.11V.52ZM77.11,23.76v-5H92.32v5.3a18.49,18.49,0,0,0-8-1.58A19.48,19.48,0,0,0,77.11,23.76Zm15.21-9.41H77.11V10.2H92.32ZM2.21,26.91c4.5,0,6.63,1.34,9.09,2.9a19.07,19.07,0,0,0,11.45,3.57A19,19,0,0,0,34.2,29.81c2.47-1.56,4.6-2.9,9.09-2.9s6.63,1.34,9.09,2.9a19.07,19.07,0,0,0,11.45,3.57,19,19,0,0,0,11.45-3.57c2.47-1.56,4.6-2.9,9.09-2.9s6.63,1.34,9.09,2.9a20.15,20.15,0,0,0,22.9,0c2.47-1.56,4.6-2.9,9.09-2.9a2.21,2.21,0,1,0,0-4.42A19.07,19.07,0,0,0,114,26.06c-2.46,1.55-4.59,2.9-9.09,2.9a14,14,0,0,1-8.27-2.4,2.13,2.13,0,0,0,.1-.57V-6.74a5.48,5.48,0,0,1,5.47-5.49,2.21,2.21,0,0,0,2.21-2.21,2.21,2.21,0,0,0-2.21-2.21,9.9,9.9,0,0,0-9.89,9.91v2.83H77.11V-6.74a5.52,5.52,0,0,1,5.52-5.49,2.21,2.21,0,0,0,2.21-2.22,2.21,2.21,0,0,0-2.22-2.2,9.94,9.94,0,0,0-9.94,9.91V25.67a1.79,1.79,0,0,0,.09.46,14.52,14.52,0,0,1-9,2.83c-4.49,0-6.61-1.35-9.08-2.9A19,19,0,0,0,43.6,22.49c-1.56-1.38-2.81-2.55-4.12-3.76l-2.06-1.91a9.31,9.31,0,0,0,6,2.23,9.66,9.66,0,0,0,3.11-.52A9.41,9.41,0,0,0,52,13.7a9.21,9.21,0,0,0,.37-7.19,9.38,9.38,0,1,0-17.7,6.24,9.56,9.56,0,0,0,2.28,3.61c-1-.87-2-1.84-3.3-3-3.4-3-6.78-6.05-9.93-8.89a5.33,5.33,0,0,0-4.9-1.37l-6,1.29L5.86,5.91A5.51,5.51,0,0,0,1.65,12.4a5.35,5.35,0,0,0,6.21,4.26c3.1-.58,6.26-1.26,9.41-2a4.16,4.16,0,0,1,.69-.12,1.46,1.46,0,0,1,.16.19,23.06,23.06,0,0,0,1.78,2.17.51.51,0,0,1,.14.42.55.55,0,0,1-.23.39l-9.27,6.57a18.29,18.29,0,0,0-8.33-1.78,2.21,2.21,0,0,0,0,4.42Z"/><path class="cls-3" d="M2.21,41.47c4.5,0,6.63,1.34,9.09,2.89a19,19,0,0,0,11.45,3.58A19,19,0,0,0,34.2,44.36c2.47-1.55,4.6-2.89,9.09-2.89s6.63,1.34,9.09,2.89a19,19,0,0,0,11.45,3.58,19,19,0,0,0,11.45-3.58c2.47-1.55,4.6-2.89,9.09-2.89s6.63,1.34,9.09,2.89a20.1,20.1,0,0,0,22.9,0c2.47-1.55,4.6-2.89,9.09-2.89a2.22,2.22,0,1,0,0-4.43A19,19,0,0,0,114,40.62c-2.46,1.55-4.59,2.89-9.09,2.89s-6.62-1.34-9.09-2.89a20.1,20.1,0,0,0-22.9,0c-2.46,1.55-4.59,2.89-9.09,2.89s-6.63-1.34-9.09-2.89A19,19,0,0,0,43.29,37a19,19,0,0,0-11.45,3.58c-2.46,1.55-4.59,2.89-9.09,2.89s-6.62-1.34-9.09-2.89A19,19,0,0,0,2.21,37a2.22,2.22,0,0,0,0,4.43Z"/><path class="cls-3" d="M2.21,56c4.5,0,6.63,1.34,9.09,2.9a19.07,19.07,0,0,0,11.45,3.57A19,19,0,0,0,34.2,58.92c2.47-1.56,4.6-2.9,9.09-2.9s6.63,1.34,9.09,2.9a19.07,19.07,0,0,0,11.45,3.57,19,19,0,0,0,11.45-3.57c2.47-1.56,4.6-2.9,9.09-2.9s6.63,1.34,9.09,2.9a20.15,20.15,0,0,0,22.9,0c2.47-1.56,4.6-2.9,9.09-2.9a2.21,2.21,0,1,0,0-4.42A19.07,19.07,0,0,0,114,55.17c-2.46,1.56-4.59,2.9-9.09,2.9s-6.62-1.34-9.09-2.9a20.15,20.15,0,0,0-22.9,0c-2.46,1.56-4.59,2.9-9.09,2.9s-6.62-1.34-9.09-2.9A19.07,19.07,0,0,0,43.29,51.6a19.07,19.07,0,0,0-11.45,3.57c-2.46,1.56-4.59,2.9-9.09,2.9s-6.62-1.34-9.09-2.9A19,19,0,0,0,2.21,51.6a2.21,2.21,0,0,0,0,4.42Z"/></g></svg>