<svg width="64" height="64" viewBox="0 0 64 64" fill="none" xmlns="http://www.w3.org/2000/svg">
<g clip-path="url(#clip0)">
<path d="M96.4801 26.6219L96.5121 26.5194C96.5655 26.3481 96.5969 26.1697 96.6052 25.9902V-6.74269V-6.74303H96.7434C96.7359 -9.7667 99.1816 -12.2222 102.205 -12.2276L96.4801 26.6219ZM96.4801 26.6219L96.5715 26.6783M96.4801 26.6219L96.5715 26.6783M82.6296 -12.3658C79.5181 -12.3657 76.9902 -9.85438 76.9691 -6.74397V-6.74303V-3.90517V-3.76689H77.1074H92.3176H92.4559V-3.90517V-6.74303C92.4537 -12.134 96.8199 -16.5076 102.211 -16.5141C103.356 -16.513 104.284 -15.5834 104.283 -14.438L82.6297 -12.2276M82.6296 -12.3658C82.6296 -12.3658 82.6297 -12.3658 82.6297 -12.3658V-12.2276M82.6296 -12.3658C82.6295 -12.3658 82.6294 -12.3658 82.6294 -12.3658L82.6297 -12.2276M82.6296 -12.3658C83.7749 -12.369 84.7015 -13.2996 84.6995 -14.445M82.6297 -12.2276C83.8515 -12.2308 84.84 -13.2236 84.8378 -14.4453M84.6995 -14.445L84.8378 -14.4453M84.6995 -14.445C84.6965 -15.5905 83.7657 -16.5171 82.6204 -16.5141L82.6201 -16.5141C77.2204 -16.5109 72.8401 -12.1423 72.8209 -6.74254M84.6995 -14.445C84.6995 -14.445 84.6995 -14.4451 84.6995 -14.4451L84.8378 -14.4453M84.8378 -14.4453L72.8209 -6.74254M72.8209 -6.74254V25.6629C72.8322 25.8082 72.8603 25.9522 72.9026 26.093L72.9328 26.1938L72.8438 26.2498C71.6358 27.0098 70.4917 27.7229 69.0926 28.2441C67.6913 28.7661 66.0395 29.0938 63.8115 29.0938C61.5486 29.0938 59.8779 28.756 58.4605 28.22C57.0548 27.6884 55.9031 26.9635 54.6806 26.194L54.656 26.1785L54.6559 26.1785C52.0526 24.5374 49.128 22.6949 43.5979 22.6273L43.5466 22.6267L43.5081 22.5926C42.0767 21.3274 40.9128 20.2473 39.7218 19.1421C39.61 19.0383 39.498 18.9344 39.3855 18.83L39.3853 18.8299C39.2816 18.7334 39.177 18.636 39.0713 18.5376C38.5286 18.0323 37.9576 17.5007 37.3313 16.926L37.5146 16.7189C39.1737 18.1343 41.2818 18.9112 43.4623 18.9101L72.8209 -6.74254ZM96.5715 26.6783C98.7447 28.0176 100.874 29.0938 104.912 29.0938C107.175 29.0938 108.849 28.7563 110.269 28.2204C111.686 27.6855 112.846 26.9545 114.077 26.1787L114.078 26.1785L114.078 26.1784C116.73 24.5074 119.718 22.6251 125.453 22.6251C126.598 22.6251 127.527 23.5538 127.527 24.6993C127.527 25.8447 126.598 26.7734 125.453 26.7734C123.19 26.7734 121.517 27.1109 120.097 27.6468C118.681 28.1812 117.522 28.9114 116.291 29.6864L116.287 29.6887C113.635 31.3597 110.646 33.242 104.912 33.242C99.1779 33.242 96.19 31.3597 93.5376 29.6888L93.5375 29.6887L93.5338 29.6864C92.3034 28.9114 91.1442 28.1812 89.728 27.6468C88.3081 27.1109 86.635 26.7734 84.3722 26.7734C82.1089 26.7734 80.4355 27.1109 79.0156 27.6468C77.5989 28.1814 76.4396 28.912 75.2091 29.6874L75.207 29.6887L75.2069 29.6888C72.5544 31.3598 69.5666 33.242 63.832 33.242C58.0986 33.242 55.1108 31.3605 52.4577 29.6898L52.4559 29.6887L52.4559 29.6887L52.4538 29.6874C51.2234 28.912 50.064 28.1815 48.6474 27.6468C47.2277 27.1109 45.5546 26.7734 43.2918 26.7734C41.0289 26.7734 39.3559 27.1109 37.9361 27.6468C36.5195 28.1814 35.3602 28.912 34.1297 29.6874L34.1276 29.6887L34.1276 29.6887L34.1243 29.6908C31.4716 31.3613 28.4849 33.242 22.7526 33.242C17.0193 33.242 14.0315 31.3605 11.3783 29.6898L11.3766 29.6887L11.3765 29.6887L11.3744 29.6874C10.144 28.912 8.98466 28.1814 7.56804 27.6468C6.14829 27.1109 4.47521 26.7734 2.21239 26.7734C1.06697 26.7734 0.138274 25.8447 0.138274 24.6993C0.138274 23.5538 1.06697 22.6251 2.21239 22.6251C5.88936 22.6251 8.43448 23.3999 10.4832 24.3916L10.5567 24.4272L10.6234 24.38L19.8856 17.8181C19.8858 17.818 19.8859 17.8179 19.8861 17.8177M96.5715 26.6783L19.8861 17.8177M51.8404 13.6394L51.841 13.6382C52.921 11.4261 53.0551 8.87024 52.2134 6.55588L52.2124 6.5531L52.2124 6.55309C51.1417 3.40047 48.4584 1.06634 45.1877 0.442625C41.9169 -0.18108 38.5631 1.00247 36.4078 3.54096L36.3024 3.45146L36.4078 3.54098C34.2525 6.07839 33.6277 9.5801 34.774 12.706L34.7747 12.708C35.2431 14.0471 36.0106 15.2618 37.0177 16.2603L36.827 16.4605C35.8812 15.5946 34.8091 14.6262 33.5328 13.4967C30.1284 10.4856 26.7446 7.44319 23.5956 4.60419C22.181 3.32923 20.5795 2.88153 18.824 3.26464L18.8239 3.26465C16.8285 3.69896 14.8319 4.12897 12.8331 4.55249L12.6528 4.59098C10.4317 5.06511 8.1403 5.55425 5.88581 6.04953C3.02136 6.68038 1.19419 9.49537 1.78394 12.3694L1.7843 12.3711C2.32309 15.1809 5.02331 17.0331 7.83942 16.5239C10.9269 15.9465 14.089 15.2699 17.2339 14.5134C17.4699 14.4497 17.7107 14.4095 17.9538 14.3938L18.017 14.3897L18.0614 14.4349C18.1254 14.5001 18.1819 14.5696 18.2331 14.6428C18.7772 15.3939 19.3674 16.1108 19.9996 16.7913C20.1345 16.9358 20.1968 17.1313 20.1743 17.326M51.8404 13.6394L20.1741 17.3275C20.1742 17.327 20.1743 17.3265 20.1743 17.326M51.8404 13.6394C50.7772 15.8723 48.8637 17.5858 46.5276 18.3969M51.8404 13.6394L46.5276 18.3969M20.1743 17.326C20.155 17.5245 20.0495 17.7041 19.8861 17.8177M20.1743 17.326L19.8861 17.8177M22.2838 21.2009L22.2838 21.2009C23.4138 20.4006 24.1469 19.153 24.2971 17.7761C24.4462 16.3984 23.998 15.0238 23.0667 13.9988C23.0666 13.9986 23.0664 13.9984 23.0662 13.9982L23.1685 13.9052L22.2838 21.2009ZM22.2838 21.2009L14.6506 26.612L14.4786 26.7339L14.659 26.8431C16.7454 28.1056 18.883 29.0949 22.7537 29.0949C25.016 29.0949 26.6888 28.7573 28.1084 28.2215C29.5249 27.6868 30.6842 26.9563 31.9146 26.1809L31.9168 26.1796C33.5695 25.1382 35.3446 24.0216 37.8242 23.3232L38.062 23.2562L37.8806 23.0886C37.575 22.8062 37.2727 22.525 36.969 22.2426C36.8347 22.1177 36.7002 21.9926 36.5651 21.867L36.4695 21.7783C34.9684 20.3835 33.2607 18.7967 30.7821 16.6039L30.6904 16.7074L30.782 16.6039C27.3657 13.5817 23.974 10.5314 20.8165 7.68496L20.8164 7.68493C20.5799 7.47179 20.3882 7.35549 20.2055 7.30709C20.02 7.25797 19.8606 7.28364 19.7059 7.3177C17.7043 7.75084 15.7018 8.1818 13.6982 8.60954M22.2838 21.2009L5.99638 10.6506M5.99638 10.6506L5.99652 10.6503C6.16967 10.3687 6.45126 10.1699 6.77556 10.1014C9.07895 9.59582 11.4276 9.09346 13.6982 8.60954M5.99638 10.6506C5.82409 10.9321 5.7737 11.2706 5.85749 11.5901L5.99638 10.6506ZM13.6982 8.60954L13.727 8.74478L13.6982 8.60954ZM46.5276 18.3969C45.5417 18.7355 44.5058 18.909 43.4624 18.9101L46.5276 18.3969ZM92.3176 14.4853H92.4559V14.3471V10.1988V10.0605H92.3176H77.1074H76.9691V10.1988V14.3471V14.4853H77.1074H92.3176ZM76.9691 23.7616V23.9623L77.1567 23.8908C79.4531 23.0156 81.8954 22.5854 84.3538 22.6251H84.356C87.7833 22.6251 90.3429 23.2976 92.2592 24.1905L92.4559 24.2821V24.0651V18.7718V18.6336H92.3176H77.1074H76.9691V18.7718V23.7616ZM92.4559 0.519613V0.381338H92.3176H77.1074H76.9691V0.519613V5.77404V5.91231H77.1074H92.3176H92.4559V5.77404V0.519613ZM38.869 7.41724L38.8685 7.41833C38.2867 8.64406 38.221 10.0518 38.6848 11.3263C39.3591 13.2822 41.1499 14.6365 43.216 14.7509C45.2822 14.8663 47.2118 13.7185 48.0992 11.8492C48.6933 10.6426 48.7721 9.24614 48.3177 7.98075L48.3174 7.98C47.3177 5.24572 44.5099 3.89198 41.7895 4.84172C40.5103 5.27498 39.4587 6.20232 38.869 7.41724Z" fill="#EE2E24" stroke="#EE2E24" stroke-width="0.276549"/>
<path d="M2.21239 41.329H2.14478C1.03061 41.2933 0.138274 40.3798 0.138274 39.256C0.138274 38.1105 1.06697 37.1818 2.21239 37.1818C7.94524 37.1818 10.933 39.0641 13.5849 40.7347L13.5874 40.7362L13.5875 40.7363L13.6065 40.7483C14.8317 41.5186 15.9868 42.2449 17.3967 42.7773C18.8161 43.3135 20.4887 43.6516 22.7515 43.6516C25.0144 43.6516 26.6872 43.314 28.1067 42.7782C29.5223 42.2437 30.6809 41.5136 31.9107 40.7387L31.9146 40.7363L31.9146 40.7362L31.9188 40.7336C34.5713 39.0633 37.5591 37.1818 43.2907 37.1818C49.0235 37.1818 52.0113 39.0641 54.6632 40.7347L54.6657 40.7362L54.6657 40.7363L54.6765 40.743C55.9037 41.5153 57.0611 42.2437 58.4747 42.7774C59.8947 43.3135 61.5681 43.6516 63.8309 43.6516C66.0938 43.6516 67.7668 43.3138 69.1867 42.7778C70.6008 42.2439 71.7588 41.5151 72.9872 40.7419L72.9961 40.7363L72.9225 40.6193L72.9962 40.7362L72.9971 40.7356C75.6494 39.0648 78.6383 37.1818 84.3711 37.1818C90.104 37.1818 93.0918 39.0641 95.7437 40.7347L95.7461 40.7362L95.7462 40.7363L95.7574 40.7434C96.985 41.5155 98.1424 42.2435 99.5556 42.7768C100.975 43.3127 102.649 43.6505 104.911 43.6505C107.174 43.6505 108.848 43.3127 110.268 42.7767C111.683 42.2426 112.841 41.5133 114.071 40.7397L114.078 40.7352L114.004 40.6182L114.078 40.7352L114.08 40.7336C116.732 39.063 119.72 37.1808 125.453 37.1808C126.598 37.1808 127.527 38.1095 127.527 39.2549C127.527 40.4003 126.598 41.329 125.453 41.329C123.19 41.329 121.517 41.6668 120.097 42.2028C118.683 42.7366 117.525 43.4654 116.296 44.2386L116.287 44.2443L116.287 44.2443C113.635 45.9164 110.646 47.7987 104.912 47.7987C99.1778 47.7987 96.1899 45.9164 93.5375 44.2443L93.5374 44.2443L93.5286 44.2387C92.3001 43.4655 91.1422 42.7366 89.728 42.2028C88.3081 41.6668 86.6351 41.329 84.3722 41.329C82.1088 41.329 80.4355 41.6668 79.0156 42.2028C77.6009 42.7368 76.4428 43.4661 75.2143 44.2397L75.207 44.2443L75.2069 44.2443C72.5545 45.9164 69.5666 47.7987 63.832 47.7987C58.0974 47.7987 55.1095 45.9164 52.4559 44.2443L52.4559 44.2443L52.4486 44.2397C51.2201 43.4661 50.062 42.7368 48.6474 42.2028C47.2277 41.6668 45.5546 41.329 43.2918 41.329C41.0289 41.329 39.3558 41.6668 37.9361 42.2028C36.5215 42.7368 35.3635 43.4661 34.135 44.2397L34.1276 44.2443L34.1276 44.2443L34.127 44.2447C31.4736 45.9167 28.4868 47.7987 22.7526 47.7987C17.018 47.7987 14.0301 45.9164 11.3766 44.2443L11.3765 44.2443L11.3692 44.2397C10.1407 43.4661 8.98266 42.7368 7.56805 42.2028C6.14831 41.6668 4.47523 41.329 2.21239 41.329Z" fill="#EE2E24" stroke="#EE2E24" stroke-width="0.276549"/>
<path d="M11.3766 58.7997L11.3765 58.7997L11.3692 58.7951C10.1407 58.0215 8.98266 57.2923 7.56805 56.7582C6.14831 56.2222 4.47523 55.8844 2.21239 55.8844C1.06697 55.8844 0.138274 54.9557 0.138274 53.8103C0.138274 52.6649 1.06697 51.7362 2.21239 51.7362C7.94524 51.7362 10.933 53.6184 13.5849 55.289L13.5874 55.2906L13.5874 55.2906L13.5947 55.2952C14.8232 56.0688 15.9813 56.798 17.3959 57.3321C18.8156 57.8681 20.4887 58.2059 22.7515 58.2059C25.0144 58.2059 26.6875 57.8681 28.1072 57.3321C29.5218 56.798 30.6799 56.0688 31.9083 55.2952L31.9157 55.2906L31.9157 55.2906C34.5682 53.6185 37.556 51.7362 43.2907 51.7362C49.0242 51.7362 52.0121 53.6189 54.6653 55.2907L54.6667 55.2917L54.6717 55.2948C55.9011 56.0695 57.0597 56.7996 58.4752 57.3341C59.895 57.8703 61.5681 58.2081 63.8309 58.2081C66.0938 58.2081 67.7668 57.8703 69.1867 57.3341C70.6018 56.7998 71.7603 56.0701 72.9897 55.2957L72.9961 55.2917C75.6486 53.6207 78.6376 51.7383 84.3711 51.7383C90.1057 51.7383 93.0936 53.6206 95.746 55.2916L95.7461 55.2917L95.7525 55.2957C96.9819 56.0701 98.1405 56.7998 99.5556 57.3341C100.975 57.8703 102.649 58.2081 104.911 58.2081C107.174 58.2081 108.848 57.87 110.268 57.3336C111.683 56.7991 112.841 56.0694 114.07 55.2953L114.078 55.2906L114.004 55.1736L114.078 55.2906C116.73 53.6185 119.718 51.7362 125.453 51.7362C126.598 51.7362 127.527 52.6649 127.527 53.8103C127.527 54.9557 126.598 55.8844 125.453 55.8844C123.19 55.8844 121.517 56.2222 120.097 56.7582C118.683 57.292 117.525 58.0209 116.296 58.7941L116.287 58.7997L116.287 58.7997C113.635 60.4718 110.646 62.3541 104.912 62.3541C99.1778 62.3541 96.1899 60.4718 93.5375 58.7997L93.5374 58.7997L93.5286 58.7941C92.3001 58.0209 91.1422 57.292 89.728 56.7582C88.3081 56.2222 86.6351 55.8844 84.3722 55.8844C82.1088 55.8844 80.4355 56.2222 79.0156 56.7582C77.6009 57.2923 76.4428 58.0215 75.2143 58.7951L75.207 58.7997L75.2069 58.7997C72.5545 60.4718 69.5666 62.3541 63.832 62.3541C58.0974 62.3541 55.1095 60.4718 52.4559 58.7997L52.4559 58.7997L52.4486 58.7951C51.2201 58.0215 50.062 57.2923 48.6474 56.7582C47.2277 56.2222 45.5546 55.8844 43.2918 55.8844C41.0289 55.8844 39.3558 56.2222 37.9361 56.7582C36.5215 57.2923 35.3635 58.0215 34.135 58.7951L34.1276 58.7997L34.1276 58.7997L34.127 58.8001C31.4736 60.4721 28.4868 62.3541 22.7526 62.3541C17.018 62.3541 14.0301 60.4718 11.3766 58.7997Z" fill="#EE2E24" stroke="#EE2E24" stroke-width="0.276549"/>
</g>
<defs>
<clipPath id="clip0">
<rect width="64" height="64" fill="white"/>
</clipPath>
</defs>
</svg>
