<svg width="64" height="64" viewBox="0 0 64 64" fill="none" xmlns="http://www.w3.org/2000/svg">
<path d="M23.1742 48.3927L23.0285 48.25H22.8245H20.75C15.8568 48.25 11.875 44.2682 11.875 39.375V13.125C11.875 8.23177 15.8568 4.25 20.75 4.25H21.3269H21.5477L21.6965 4.08674C22.8853 2.78196 24.6662 1.87997 26.5752 1.30548C28.4782 0.732788 30.4608 0.5 32 0.5C33.5758 0.5 35.5716 0.747408 37.4724 1.32759C39.3795 1.90974 41.1419 2.81179 42.3035 4.08675L42.4523 4.25H42.6731H43.25C48.1432 4.25 52.125 8.23177 52.125 13.125V39.375C52.125 44.2682 48.1432 48.25 43.25 48.25H41.1755H40.9715L40.8257 48.3927C40.4587 48.7521 40.0697 49.0892 39.6611 49.4022L39.0418 49.8767L39.7317 50.2412C42.5642 51.7378 44.625 54.8134 44.625 58.375V63.5H39.5C37.136 63.5 34.9003 62.5292 33.2028 60.7535L33.2028 60.7535C32.9136 60.4511 32.648 60.1309 32.4035 59.7968L32 59.2452L31.5965 59.7968C31.352 60.1309 31.0864 60.4511 30.7972 60.7535L30.7972 60.7535C29.0997 62.5292 26.864 63.5 24.5 63.5H19.375V58.375C19.375 54.8111 21.4371 51.7371 24.2683 50.2412L24.9583 49.8767L24.3388 49.4022C23.9304 49.0894 23.5415 48.7521 23.1742 48.3927ZM41.5336 29.148L41.875 29.0339V28.6739V23.8261V23.4661L41.5336 23.352C38.9345 22.4825 35.5438 22 32 22C28.4562 22 25.0655 22.4825 22.4664 23.352L22.125 23.4661V23.8261V28.6737V29.0337L22.4664 29.1479C25.0655 30.0175 28.4562 30.5 32 30.5C35.5438 30.5 38.9345 30.0175 41.5336 29.148ZM22.125 35.4351V35.6394L22.268 35.7852C24.8245 38.3926 28.3316 39.875 32 39.875C35.6684 39.875 39.1756 38.3926 41.732 35.7852L41.875 35.6393V35.4351V32.5942V31.937L41.2416 32.1124C38.5784 32.8499 35.3924 33.25 32 33.25C28.6076 33.25 25.4216 32.8499 22.7584 32.1124L22.125 31.937V32.5942V35.4351ZM41.2416 20.3876L41.875 20.563V19.9058V17.0649V16.8607L41.732 16.7148C39.1756 14.1074 35.6684 12.625 32 12.625C28.3316 12.625 24.8245 14.1074 22.268 16.7148L22.125 16.8606V17.0649V19.9058V20.563L22.7584 20.3876C25.4216 19.6501 28.6076 19.25 32 19.25C35.3924 19.25 38.5784 19.6501 41.2416 20.3876ZM41.8257 40.3598L41.93 39.3111L41.0518 39.8936C38.3927 41.657 35.2489 42.625 32 42.625C28.7511 42.625 25.6073 41.657 22.9482 39.8937L22.07 39.3113L22.1743 40.3599C22.6704 45.3446 26.8865 49.25 32 49.25C37.1136 49.25 41.3296 45.3445 41.8257 40.3598ZM22.125 60.25V60.75H22.625H24.5C27.8455 60.75 30.625 57.8151 30.625 54.375V52.5V52H30.125H28.25C24.9045 52 22.125 54.9349 22.125 58.375V60.25ZM41.375 60.75H41.875V60.25V58.375C41.875 54.9349 39.0955 52 35.75 52H33.875H33.375V52.5V54.375C33.375 57.8151 36.1545 60.75 39.5 60.75H41.375ZM43.4214 44.751L43.039 45.5601L43.9286 45.4616C46.9879 45.1226 49.375 42.5239 49.375 39.375V13.125C49.375 10.3387 47.5058 7.98527 44.9584 7.24404L44.1136 6.9982L44.3348 7.84983C44.5242 8.57878 44.625 9.33868 44.625 10.1141V39.375C44.625 41.2973 44.1927 43.1192 43.4214 44.751ZM41.0973 12.6372L41.875 13.1566V12.2214V10.1141C41.875 7.57547 40.5684 5.83242 38.676 4.75033C36.8093 3.68293 34.3692 3.25 32 3.25C29.6303 3.25 27.1901 3.68313 25.3236 4.75062C23.4313 5.83282 22.125 7.57587 22.125 10.1141V12.2214V13.1567L22.9027 12.6371C25.5716 10.8544 28.7326 9.875 32 9.875C35.2674 9.875 38.4284 10.8545 41.0973 12.6372ZM19.6652 7.84997L19.8864 6.99832L19.0416 7.24416C16.4942 7.98539 14.625 10.3387 14.625 13.125V39.375C14.625 42.5239 17.0122 45.1226 20.0716 45.4616L20.9612 45.5602L20.5787 44.7509C19.8073 43.1192 19.375 41.2973 19.375 39.375V10.1143C19.375 9.33879 19.4758 8.57877 19.6652 7.84997Z" fill="#EE2E24" stroke="#EE2E24"/>
</svg>
