<svg width="64" height="64" viewBox="0 0 64 64" fill="none" xmlns="http://www.w3.org/2000/svg">
<g clip-path="url(#clip0)">
<path d="M15.7109 15.7493C15.0209 15.7493 14.4609 16.3093 14.4609 16.9993C14.4609 17.6893 15.0209 18.2493 15.7109 18.2493C16.4009 18.2493 16.9609 17.6893 16.9609 16.9993C16.9609 16.3093 16.4009 15.7493 15.7109 15.7493Z" fill="#EE2E24" stroke="#EE2E24" stroke-width="0.5"/>
<path d="M26.9603 39.123H23.2106V35.3733C23.2106 34.683 22.6508 34.1233 21.9606 34.1233C21.2703 34.1233 20.7107 34.683 20.7107 35.3733V39.123H16.9609C16.2707 39.123 15.7109 39.6828 15.7109 40.3729C15.7109 41.063 16.2707 41.6229 16.9609 41.6229H20.7107V45.3727C20.7107 46.0629 21.2704 46.6227 21.9606 46.6227C22.6507 46.6227 23.2106 46.0629 23.2106 45.3727V41.6229H26.9603C27.6506 41.6229 28.2103 41.0632 28.2103 40.3729C28.2103 39.6827 27.6507 39.123 26.9603 39.123Z" fill="#EE2E24" stroke="#EE2E24" stroke-width="0.5"/>
<path d="M60.6956 40.248C57.9324 35.4623 51.8229 33.8244 47.0363 36.5881L41.9591 39.5194V28.6649C41.9591 27.323 41.5153 25.9914 40.7092 24.9151L34.4596 16.5825V13.0343C35.9143 12.5183 36.9594 11.129 36.9594 9.49938V3.74975C36.9592 1.68212 35.2771 0 33.2094 0H10.7106C8.64294 0 6.96069 1.68212 6.96069 3.74975V9.4995C6.96069 11.1289 8.00581 12.5184 9.46056 13.0344V16.5826L3.21044 24.9158C2.40469 25.9915 1.96094 27.323 1.96094 28.6649V52.8724C1.96094 56.3185 4.76456 59.122 8.21056 59.122H28.2983C31.1009 63.8199 37.1442 65.3921 41.8813 62.6569L57.0358 53.9072C61.7802 51.1675 63.4726 45.0599 60.6956 40.248ZM9.46056 3.74975C9.46056 3.0605 10.0213 2.49975 10.7104 2.49975H33.2093C33.8986 2.49975 34.4593 3.0605 34.4593 3.74975V9.4995C34.4593 10.1888 33.8986 10.7494 33.2093 10.7494H10.7106C10.0213 10.7494 9.46069 10.1886 9.46069 9.4995V3.74975H9.46056ZM5.21094 26.4149L11.7104 17.7491C11.8727 17.5329 11.9604 17.2696 11.9604 16.9991V13.2494H31.9594V15.7493H20.7101C20.0198 15.7493 19.4601 16.309 19.4601 16.9993C19.4601 17.6895 20.0198 18.2493 20.7101 18.2493H32.5844L38.7086 26.4145C39.1088 26.9489 39.3574 27.5883 39.4326 28.2488H4.48744C4.56244 27.5881 4.81106 26.9488 5.21094 26.4149ZM8.21069 56.6221C6.14306 56.6221 4.46094 54.94 4.46094 52.8724V51.61H27.1703C26.7739 53.2306 26.7766 54.9616 27.2304 56.6222H8.21069V56.6221ZM28.1507 49.1225H4.46081V30.7484H39.4591V40.9625L31.8817 45.3377C30.3018 46.2504 29.0248 47.5495 28.1507 49.1225ZM40.6316 60.4919C37.0444 62.5632 32.4607 61.3383 30.3879 57.7486C28.3053 54.1244 29.5674 49.5614 33.1319 47.5025L39.9166 43.5853L47.4162 56.5746L40.6316 60.4919ZM55.7858 51.7424L49.5812 55.3247L42.0814 42.3351L48.2862 38.7531C51.8757 36.6809 56.4578 37.908 58.5306 41.4977C60.6124 45.1055 59.3464 49.6862 55.7858 51.7424Z" fill="#EE2E24" stroke="#EE2E24" stroke-width="0.5"/>
</g>
<defs>
<clipPath id="clip0">
<rect width="64" height="64" fill="white"/>
</clipPath>
</defs>
</svg>
