<svg width="64" height="65" viewBox="0 0 64 65" fill="none" xmlns="http://www.w3.org/2000/svg">
<path d="M55.3298 55.2564L55.3284 55.2527L51.5593 45.2649C50.457 42.3437 47.5576 40.6197 44.5914 40.8704V35.1022C44.5914 31.1558 43.3965 27.3578 41.1363 24.1226C41.1363 24.1226 41.1363 24.1225 41.1363 24.1225L39.3356 21.5438C40.9774 20.405 42.0573 18.5069 42.0573 16.3585C42.0573 14.0498 40.8108 12.0291 38.9586 10.9302V6.46047C38.9586 2.62287 35.8373 -0.499025 31.9991 -0.499025H20.9678C17.1297 -0.499025 14.0083 2.62287 14.0083 6.46047V10.9307C12.1567 12.0295 10.9097 14.0497 10.9097 16.3585C10.9097 18.5069 11.9895 20.405 13.6313 21.5438L11.8307 24.1225C11.8306 24.1226 11.8306 24.1226 11.8306 24.1226C9.57092 27.3578 8.37597 31.1558 8.37597 35.1022V56.0779C8.37597 60.7206 12.1521 64.4973 16.795 64.4973H36.172C38.9361 64.4973 41.4496 63.1352 42.9963 61.002C43.9388 62.5915 45.9423 64.4988 48.9347 64.4988C53.9478 64.4993 57.0146 59.8287 55.3298 55.2564ZM11.249 56.0779V54.3918H40.4011L41.5497 57.4359C40.9358 59.8757 38.7124 61.6243 36.172 61.6243H16.795C13.7371 61.6243 11.249 59.1358 11.249 56.0779ZM38.7769 50.0886L39.3169 51.5188H11.249V36.7497H41.7184V41.7813C39.8066 42.8882 38.9016 44.5088 38.5589 46.065C38.2053 47.6705 38.4467 49.2135 38.7769 50.0885L38.7769 50.0886ZM48.8717 46.2789L50.2487 49.9292L42.8421 52.7243L41.4651 49.0741L41.465 49.074C41.2825 48.5903 41.0854 47.5631 41.3276 46.5349C41.5615 45.5418 42.2059 44.5283 43.7611 43.9769C45.3296 43.4208 46.4932 43.7599 47.3204 44.3365C48.1741 44.9317 48.6901 45.7979 48.8717 46.2789ZM33.4805 10.0498H33.4799L33.4799 10.051L33.4798 10.051C33.4797 10.0498 33.4797 10.0498 33.4797 10.0498H33.4791L33.4768 10.0498L33.4677 10.0499L33.4316 10.0499L33.354 10.05L33.3419 10.0499L33.3355 10.0499L33.3338 10.0499L33.3334 10.0499L33.3333 10.0499L33.3333 10.05H33.3333L33.3333 10.0498H33.3297C33.3209 10.0498 33.3122 10.0499 33.3034 10.0501L33.2909 10.0501L32.7564 10.0508L30.8466 10.0538C29.2649 10.0565 27.1531 10.0604 25.0328 10.0655C22.9125 10.0707 20.7833 10.0771 19.167 10.0847C18.3589 10.0885 17.6784 10.0925 17.1911 10.0969C17.0772 10.0979 16.9737 10.099 16.8814 10.1V6.46047C16.8814 4.20775 18.7151 2.37403 20.9678 2.37403H31.9991C34.2518 2.37403 36.0856 4.20775 36.0856 6.46047V10.0876C36.0485 10.0866 36.0108 10.0857 35.9727 10.0848C35.6522 10.0772 35.2517 10.0707 34.8614 10.0656C34.4707 10.0604 34.0887 10.0565 33.8045 10.0538L33.5533 10.0517C33.5292 10.0505 33.5049 10.0498 33.4805 10.0498ZM14.186 25.7678L14.186 25.7678L16.39 22.6118C16.6604 22.648 16.9368 22.6676 17.2183 22.6676H35.7486C36.0305 22.6676 36.307 22.648 36.5775 22.6118L38.7814 25.7678L38.7814 25.7678C40.4678 28.1823 41.4552 30.9634 41.6718 33.8766H11.2956C11.5121 30.9634 12.4992 28.1823 14.186 25.7678ZM45.2341 59.0619L45.2341 59.0618L43.8566 55.412L51.2632 52.6169L52.6407 56.2671C52.83 56.7693 53.0532 57.7284 52.8306 58.7113C52.6159 59.6592 51.9754 60.6885 50.3201 61.3736C48.9391 61.9452 47.7844 61.6243 46.9025 61.027C45.9955 60.4127 45.4078 59.5222 45.2341 59.0619ZM17.2183 12.9229H33.3297H33.4805H35.7486C37.6425 12.9229 39.1842 14.4646 39.1842 16.3585C39.1842 18.2528 37.6424 19.7945 35.7486 19.7945H17.2183C15.3245 19.7945 13.7827 18.2528 13.7827 16.3585C13.7827 14.4646 15.3245 12.9229 17.2183 12.9229Z" fill="#EE2E24" stroke="#EE2E24" stroke-width="0.998051"/>
</svg>
